/* XPM */
static char *Component_91696780323[] = {
/* columns rows colors chars-per-pixel */
"90 82 170 2 ",
"   c None",
".  c #020201",
"X  c #070901",
"o  c #0E0E00",
"O  c #060708",
"+  c #0C0C0C",
"@  c #0E1201",
"#  c #0E1B01",
"$  c #0F120C",
"%  c #131400",
"&  c #151B04",
"*  c #181C03",
"=  c #12150C",
"-  c #141D09",
";  c #191C08",
":  c #0C0E12",
">  c #0F1318",
",  c #131414",
"<  c #151B13",
"1  c #1A1C15",
"2  c #13161B",
"3  c #161A1C",
"4  c #191B1B",
"5  c #0E2101",
"6  c #0D2509",
"7  c #162107",
"8  c #1A2206",
"9  c #1D2807",
"0  c #16230A",
"q  c #192509",
"w  c #17290C",
"e  c #1B2B0C",
"r  c #1D310E",
"t  c #163A0E",
"y  c #1B380F",
"u  c #162312",
"i  c #1A2413",
"p  c #1C2B12",
"a  c #1A231C",
"s  c #1D2D18",
"d  c #1E3411",
"f  c #1F3912",
"g  c #22290E",
"h  c #20340E",
"j  c #212D13",
"k  c #24241B",
"l  c #223413",
"z  c #223B13",
"x  c #283917",
"c  c #263618",
"v  c #263A19",
"b  c #293D1B",
"n  c #151A24",
"m  c #1A1E24",
"M  c #171D29",
"N  c #191F2A",
"B  c #1B2225",
"V  c #1F2825",
"C  c #1C222C",
"Z  c #1E2532",
"A  c #1D2738",
"S  c #1F293C",
"D  c #20232B",
"F  c #2D3E20",
"G  c #3A3A21",
"H  c #333528",
"J  c #202733",
"K  c #222936",
"L  c #292C33",
"P  c #232C3B",
"I  c #2C2F38",
"U  c #27303F",
"Y  c #2B333F",
"T  c #38383C",
"R  c #244215",
"E  c #2C431E",
"W  c #2C4523",
"Q  c #314122",
"!  c #44441B",
"~  c #62621C",
"^  c #454524",
"/  c #505329",
"(  c #425835",
")  c #6F6F26",
"_  c #737323",
"`  c #232E41",
"'  c #263144",
"]  c #293344",
"[  c #273349",
"{  c #2B364A",
"}  c #2D394C",
"|  c #323641",
" . c #363A44",
".. c #393C45",
"X. c #313B4D",
"o. c #383F4F",
"O. c #2E3B50",
"+. c #333E52",
"@. c #354156",
"#. c #3A4356",
"$. c #374359",
"%. c #3A465B",
"&. c #3C485E",
"*. c #3D4A62",
"=. c #444141",
"-. c #494745",
";. c #4F4D45",
":. c #41434C",
">. c #4D4B4E",
",. c #434856",
"<. c #424857",
"1. c #4E535F",
"2. c #565355",
"3. c #414D65",
"4. c #44526C",
"5. c #4C5261",
"6. c #555B6A",
"7. c #595E69",
"8. c #515563",
"9. c #465671",
"0. c #485772",
"q. c #4A5A75",
"w. c #4C5D7A",
"e. c #50617E",
"r. c #5B6274",
"t. c #6E6B6D",
"y. c #656976",
"u. c #6C6D76",
"i. c #666C7D",
"p. c #6D717E",
"a. c #75747E",
"s. c #9B9B1C",
"d. c #979725",
"f. c #DADA0F",
"g. c #CBCB1D",
"h. c #DBDB17",
"j. c #FEFE02",
"k. c #F7F70E",
"l. c #FCFC09",
"z. c #ECEC14",
"x. c #526382",
"c. c #57698A",
"v. c #596C8E",
"b. c #5C6F91",
"n. c #5D7193",
"m. c #5F7499",
"M. c #707482",
"N. c #71788B",
"B. c #7C7A81",
"V. c #61769C",
"C. c #787D90",
"Z. c #667BA0",
"A. c #697EA5",
"S. c #817E87",
"D. c #7E8394",
"F. c #6A80A6",
"G. c #6E83AB",
"H. c #81818A",
"J. c #8A868A",
"K. c #888588",
"L. c #918C8F",
"P. c #868895",
"I. c #8D8B93",
"U. c #8A8B98",
"Y. c #91939F",
"T. c #9B9595",
"R. c #8A8FA1",
"E. c #8F94A8",
"W. c #9A9AA7",
"Q. c #969BAD",
/* pixels */
"        % % % o o o o % o % % % % % % % & - 8 ; 8 8 8 8 8 * * * % % % & & % * * * ; 8 8 8 & 8 - & 8 q 7 7 7 7 & - - 0 7 j w 7 w 7 w 7 p e 0 q i 0 e q e r e e e 9 e q r e y         ",
"        o % o % o o o % % % * % % % % - % & 8 ; 8 * 8 * 8 & & & & & & % & * * ; & * 8 8 8 8 9 8 0 9 q 7 0 e e 0 7 - 0 w w e w q w w w q 0 0 q w 0 e 7 e e 8 e e q 0 q w q e         ",
"        % % % % o % o % * % % * % % % % % - & & 8 * 8 * 8 * & % % & 8 % & * ; * * 9 * 8 8 8 q 0 8 0 q 7 q 8 e e p 0 0 e p l w q 0 - e w d 7 q q e e p e 0 e e e 0 0 q 0 0 7         ",
"        * % % % o % o o % % % % % % * * & % % % * * 8 8 ; 8 & & * * * & & 8 * 7 * 8 9 9 9 9 e 9 e 0 q q 8 9 e e e r b e q q w e - 0 0 w w p 0 0 e 0 e 0 0 q e 0 0 7 7 0 7 7         ",
"        % % * % % % o o % % % % * % % % * % % % % * ; * * & & & & & & & 8 8 8 * 8 8 8 8 8 9 9 e 9 0 8 q e e e g e q e q p e w 7 7 6 w p l q q l l q w - w 0 e 8 w - - - 7 p         ",
"        % * * % % % % % o o % % % % % % % % ; % % & & & & & & & & % & - & & * ; & 8 8 8 8 8 e q e ; 0 q e q e h e e d z W e - 0 w q 0 i 0 w e r c e - 0 0 e q e 0 7 # # - -         ",
"        % % % % % % % o o o o % % ; % % % % % % % % & & & & & & & % & & & & & 8 9 & 8 9 8 & 7 7 & - 7 0 q e e q e e r d f 0 6 - u w 0 7 w w h e e 7 w 7 e e Q e 0 - # = 7 7         ",
"        % % % % % % o o o % o o % % % % % % % % % o % % % % @ & & - % 0 # - % 7 8 7 & ; 9 q 0 & & 7 e e e 9 q e e b e r p p - 0 - 0 0 0 0 p e l e 0 0 e e r e q 7 - = - 7 &         ",
"        % % % % % o o o % % % o % % % % % o % % o % % @ % = % % % & ; 8 ; & & & & q & 7 - 7 & 7 8 8 h e e r e q e r r e d w 0 w w e 7 w e e e e e q 0 p e e q 8 - 7 = # # -         ",
"        % % % % o o o o o % % % % % % % % % % o o + @ % % % % ; % - & 8 8 8 8 7 & 8 8 & - & & - 8 9 l e g e e e e e e e q e 7 p e d w e e x r r e e 0 q e q 0 0 0 & = # - 7         ",
"        % % % % % % o o o o o o o o o o % % % o % @ @ @ % % % ; & * ; 8 9 9 8 8 7 7 & & @ & 7 & 8 e e 9 q q q e 0 7 e e w e w w e y q e e e e r e q 7 q e e e l q 0 - i & 7         ",
"        % % % % % o o o o % o o % % % % % o % % % % % o @ - % * 8 8 & 8 & < V B < & 7 & & & 8 8 0 9 e 9 l q e r e l w e e r r e e e e e e e e d q e q e q 9 e e 0 0 0 0 7 e         ",
"        o % % % o o o o o % o % % % % % % % % % % % % o % % ; * & 8 8 & L %.@.%.%.{ 3 & & 8 & 8 9 0 9 e e e e f e r e e r d d e b r y e e q q e q q e e e e e 8 0 0 e 0 q q         ",
"        o % o o o o o o % % o o o o o % % % % % o o o % % * ; % * * 8 1 q.B $ @.%.%.%.Z & e 8 8 8 9 e 9 0 0 q e e e e e r d r r e e e 8 e e q q e e r h e 8 e e e 0 0 0 q 0         ",
"        o o o o o % o % o % o o o o % % % % % o % o o o % % * ; * 8 * i w.x.$ +.$.*.*.%.P = 8 8 0 9 9 0 e & e e 0 e c r r e b f r e e e q 9 8 e q 9 h g h e e 9 0 7 0 q 7 #         ",
"        o o % % % % % % % o o % % % o o % % % % % o o o % % % % * * * ; a a m +.$.%.3.3.*.X.= 8 8 9 8 ; 0 0 q 0 q e z r r d R r y r w e e q q r h h h r e q e e e e 0 0 0 7         ",
"        * % % % % * % % % % % % % % % % % % % % % o % % % % % * % * ; ; 0 7 K X.+.*.*.3.3.%.X., ; 8 & 0 0 9 0 q l h z e z h z h E e q q q e r e r h e r e r r h q e q e e q         ",
"        * % % % % % * * % % % % % % % % % % % % % % o o o o % % & & 8 & & ; ` X.+.o.%.*.3.*.o.] = 7 8 q 0 0 e e h e e r r r e e e 0 q e r e e r e e e e e r h e e d l c 0 q         ",
"        o % % % * * % * % % % % % % % % % % % % % % % % % % % o % & & - - a ] { +.+.*.*.4.*.+.+.J - q q 9 q e e q e e e r v e e w 0 e q q p e e l h r h l r e e r e e q w 0         ",
"        o % % % % % * % % % % % % % % % % % % % % % % % % % % % & & & & & B ] { +.*.*.3.4.4.3.+.{ N 7 e e e r e e e e l e r r e 0 0 e w q f E e e e r h r r r e e e 0 0 w e         ",
"        % % % % % % % % * % % % % % % % % % % % % % % % % % % * & ; 8 & & J ] { +.*.*.4.0.w.0.*.{ P a e e e r h e e d d e e e e q w e 0 7 w w w e e d d e d d d e w e q e 0         ",
"        % % * % * % * % % * % % % % % % % % % % % % % % % % % * 8 8 8 8 1 J ] { +.*.*.9.e.x.w.4.+.U Z i e e e e e r e f r q e e r w 0 q w p 0 w e q w e e d e w w w w w w e         ",
"        % % % % % % % * % * * * % % % % % % % % % o % % % * ; * ; ; 0 8 n M M M Z ` ` ] K  .:.:.C n N N j d p d e w r w 7 q e d e r r e p d l w w 0 - 7 w e r w e p 0 0 e 0         ",
"        * % % % % * % % * * % * % * % % % % % % % % % % % % % * 8 9 ; q M M n n M N N C n N n L ..D n N N s h x r W i 0 w e r r d y p r d r d e e w w d d e w w e l q e e q         ",
"        % % % % % * * % % * % % % % % % * % * * % % % % % ; ; * 8 * 9 N M M n n M M N N N N n I  .D n n M n p d d p r w w e e d R f f d d d E d d v e d e r e e w e e e e e         ",
"        o o % % % % % % * * * % * % * % * % % % % % % * % ; ; 1 a V D J N M n n n M N Z M P |  .,.J M M Z P P Z V a i u w d e d f f R R W d d f f f d d v r d w e 0 e e q e         ",
"        % % % % % % % * * % * % % * * * * % % % % % % % , D D D J J P P { +.+.+.o.%.%.<.+.o.<.%.#.4.9.4.*.+.} { ' ' U P C b d d d R R v E z R R f R f d d r e w e e e e 0 e         ",
"        % % % % % % % % * % % * * * * % % * % * % % % % , D L L P P ] { +.*.3.4.9.q.e.c.b.b.n.n.v.c.x.x.w.0.3.&.@.} P V p d f d R R f f z z R f f R f f w d w e r e e 0 9 e         ",
"        * * % % % % % % * % % * * % * % * % % % % % % % % % k 1 m C P } +.+.+.3.4.X.0.q.x.v.V.b.c.x.q.3.@.] D C 3 6 w e f d d f f y f t W f f R R f f d d e w w e e e e q 9         ",
"        * * % % % % % % % * % * * * * * * * * * % * * % * % % % % ; X . O O O : , O 4 m / H 4 4 , , ! ~ , , $ - e e d r d d d d d d f s f v f f f f d f d r r e e e x e q 0         ",
"        % % % % % % % % % % % % % * * * % * % % * * * * % % % % % = X . . O O : : $ , ) j.g.k , 4 k g.k.G : $ = d e e p e d d p w w w w r r d f r s w e p r r r r e r e p q         ",
"        % % % % % % % % % % % % % * % % % * * * % * * * * % % ; & % o . . O O + : $ , d.j.z.k 4 , k h.l.^ , + - e e e e d e e w s y W d d w u f t e w e w d e e r e r g e 7         ",
"        % % % % o % o % % o o % % % % % * * * % % % * % % * % * % < J C m 3 , O + : , ^ f.d.1 3 , 1 _ s.1 4 L D 9 r r w r w w w e d v d d d p W f d e w w d w w e v r e q -         ",
"        * % * % % % % % % o o o % % % % % % % % * % * % * % * % & & J ] { { +. .T T =.-.;.4 3 , , 4 , >.t.<.+.D 9 y q q e e w d d r f d r r w ( d d d d w 7 w w e p 0 0 7 7         ",
"        * % % * % % % % o % % o % % % % % % % * * * * % * % * % % & m P U ] { +.@.&.6.L.L.1.1 , , , ..S.u.o.X.a e r q l w 0 e w e d d z r e r r d f d e w w e e r q w 7 7 -         ",
"        * % % % % % o % % % o o % % % % % % % * * % * * * * * * & % - A U ] { { X.#.#.y.T.y. ., , , 7.J.1.X.] q e e r e 0 w e e e z z d r f y e d r d w w e r w q w w e 0 7         ",
"        ; % % % % o % % % o % o % % % % % % % % % % * * * * * % & % % C P ] { { } @.@.%.L.H.%., : m M.P.&.} P 0 w w w w i e p r d r r v c d d e r e e w w d w e w w - w 0 w         ",
"        o % % % % o o % % % o o % % % % % % % % % % % % % % % * % & @ Z P P ] X.} @.@.@.p.W.r.{ + L S.C.X.{ ] 1 7 w - 7 7 w q r r d r e e e r e r e e w w d p W d e 7 - 0 &         ",
"        % o % % % % o o o o o % % % % % % % % % % * % % % * * % % % < A P ` P ] { } } @.&.Q.R.*.2 6.Y.6.X.| ] D 0 6 0 w w w q e r e f e e e e r d d d e w p e F d w w 7 7 7         ",
"        % % o o % % o % o o o @ o % % % % % % * % % % % % * % % % % N P S P ` ' { O.} O.X.N.Q.6.P J.B.{ { { ] P i 0 e w e e e r e p e w w d r z d d d d w w w w w 0 7 7 e q         ",
"        % o o % % @ o o o @ o % % % % o o o o % % % @ % % % % % % = A P P ` ` ' { O.O.} O.3.E.M.+.2.5.{ { { ] ] B 6 w q e e e e e 0 7 7 f W h z z R d d d e 0 7 0 0 0 w 7 7         ",
"        % % % % % % o o o o % @ % % % o % o o % @ % o o o o o % % n A P S ` [ [ { [ [ } O.O.i.I.&.| ` [ { { ] ] Z 6 - e r q e q r e r w e e z r l d d r p q w w w 7 w - 7 p         ",
"        @ @ % % @ @ o o o o @ % o % o o % % % % @ % o % @ o % % @ M Z A S S ` ` [ [ O.[ } O.6.I.6.X.Z [ { ' ` ` J u 7 e e l f r c e E e e d e z z z d r v d e 7 0 0 - 7 - &         ",
"        @ @ @ = % % @ @ @ @ o o o % % % & % % % & % % % % % % % % = n n Z A ` ` [ [ [ [ [ { @.S.a.#.n ` ` A C n < w w p c v y r z e y d d d d d z r r e e d h e q q 0 l q &         ",
"        - @ @ % @ # @ o @ @ @ X % @ % # 5 # 5 5 % % * * % % * % % % m m 4 n 3 n n n N C A A P :.:.D : 2 , 3 4 2 q 7 q g e r t t t y r f h h r z z z r r l e r e 0 0 q e q 8         ",
"        & @ % & # @ # @ @ @ o @ @ & # @ & # # & * % % % % % % % % < N N M m N m B n m 4 3 2 4 m 4 m m m m m m m q l r y d y t t t r r q e r r h h r h h e e e q 0 0 q q 8 0         ",
"        % % @ & @ @ @ @ @ @ @ @ # % # % & % % & * % * % * % % % % m N N N N N N C C C D C C C C C B C N B N m C < q l h y e r y t t e e e e e h h e r e e e e e l j 9 7 8 -         ",
"        & & - # # # @ @ @ @ @ @ @ % & # # & & % * % % * % % % % ; N N D N D D J Z A J J J Z D D D D D D C N C N a e e g h y y e r e e q r e h h e e e e q q 9 q 9 e 8 & & 7         ",
"        7 7 # # # @ o @ @ # @ @ o % o * % * % % * % * % % % % ; n C N C C C Z Z J J K K J J J J D D C Z C N C N m q e e r r r r r e 7 q w q h e g e 9 0 0 e 9 9 e 0 8 q 7 ;         ",
"        & & & # # @ o @ @ @ % % o % % % % * * % % * % % % % % % M C C C Z Z Z K J K K K J J J J Z J J Z C C N C N q e g g h 9 r d e w e w e e e 9 q 9 q 8 q 8 l 7 8 q 0 7 e         ",
"        5 # 5 @ @ @ @ @ % % % o o % % % * * % * % % % % % % % , N D C Z Z J K K P P J K J K Z J J P J C C C C Z J i 8 e r y r r d e w 0 - 0 0 e 9 e q 8 q 0 q 8 q q 8 8 7 8         ",
"        5 5 # # @ o @ @ % o o o o % % o % % % % % % % % o % o D J J Z Z Z J K K P J P K K P P P P J J D C C J J J 4 q e e 9 9 e d 7 - w 7 - 0 q q q q 8 9 j 7 e 8 9 e 8 7 7         ",
"        7 & % % % o o o o % o % o % % % % % % % % % % % o % , D P L ` ] ` P J K K K P K K P P K J Z Z Z Z J P U U B e g 9 e e e c 0 7 w q q 7 7 7 & 7 7 q q 0 q 0 8 r q g 8         ",
"        # & & @ % o % % o % o % % % % % % % o % % % % o o o 2 J P ] { { +.+.$.$.+.X.] ` P P K P ' X.%.*.*.@.X.{ U C q q e 8 l q w 7 7 7 7 - 7 7 7 & & 7 7 8 q q 8 8 q 9 8 0         ",
"        @ # % % % % % % % o o % % % % % % % o % % % % % % o , D K P P X.+.*.*.*.4.9.x.c.b.V.Z.G.F.A.V.x.4.%.+.{ P B q q 9 q 7 7 7 e q e 7 i & q 7 # - - & 7 7 q q 8 9 8 9 8         ",
"        & % % % % % % % % % % % % % % o o % % % % % % % % o % , n J P ] [ } +.*.4.w.x.c.m.V.A.G.G.F.b.q.*.{ P P Z < 7 ; 0 7 e 7 - 7 q q 0 j 7 0 & & 7 & - & 7 7 8 q q 9 8 9         ",
"        % % % % % % * % % % % % % % % % % % % o % % % % % o o o o o $ > n ` ] ] [ ] { O.+.+.$.+.+.{ { { ' ' A n + 7 7 7 7 0 0 8 7 q 7 7 7 q 7 8 & - - # & - & 8 q 9 8 9 8 8         ",
"        % % % % * % % % % % % % % % o o o % o o o o o % % % % o o o . . . O , m Z K ] ] [ { ] { { ' ' A > : X . . & 7 & 7 0 0 8 q e e & 7 7 e 8 7 - % % & & & 0 8 8 9 9 9 8         ",
"        * % % % % % * % % % % % % % % o o % % o o % % % o % % o o o . . . o @ % % o o O + $ = , = @ $ @ % @ X . . @ - - 7 & ; 8 7 7 q - - - 0 8 - & - & & - 7 q 8 9 9 9 8 8         ",
"        % % o % % % % % % % % % % % % o % % % % % % % % % % o % o . . . X o o % o % o o o o o o @ @ % @ X @ % . . o & - & & 8 ; 7 & & & 7 7 ; 7 & & - @ @ & & q 8 8 8 9 9 8         ",
"        % % % o % % % % % % % % % % o o % o % % % % % % % % % % o . . X o o o o % o o o o o o @ + @ @ @ @ @ @ X . X & - & & 7 & & & & - 7 7 & & & # & & & & & & 7 8 8 9 9 8         ",
"        % % % % % % % % % % % % % % % o % o % o % % % % % % % o o . . o o o o o % o % o % o o o % @ % + @ % @ $ . O % & % - & & & & & & & & & - = & = # & - - & & 7 & 8 8 9         ",
"        % % % % % % % % o % % o % % o o o % % % % % % % % % o o o X o o o o o % % o % o o o % o o o % % % % & $ @ @ - % % - % & & & & & & & - & @ & & @ @ & & & * & ; 8 8 8         ",
"        % o % * % % % o % % o % o o % o % % % % % % % % % o o % % o o o % o % % % % % % % o o o @ % % % & & @ % @ % & @ & @ & & & & & @ & & % % - & & @ @ & & & & & * * 8 9         ",
"        % o % % % % % o % o % % o % % o % * % % % % % % % o o % % % % % % % % % % % % % o o % % % % % % * % % % % % % % % % % ; & * * % * * % & % - % % & & & & & ; * & g 8         ",
"        % o % % % % o o % o o o o % % % % * % % % % % % % % o % % % % % % % % % % % % % % o % % % % * * * * % ; o = = % = % % % * % % * * % & % % & - @ @ @ & & 0 * * & & ;         ",
"        % % % o % o % o o % o o % % % % % % * % % % % % o % o % % % % % % % % % o % % % % % % % % % % % * * ; % % % % % % % % % % % * * % * % % % % & & % & & & & * & * * *         ",
"        % % o o o o % o % o o % % % % % % * % * % % % % % % % % % * % % % % % % o % % % % % % % % % % * % * * * % % % % % % % ; % & % % % % % & & % % % - % % & * * * & & *         ",
"        % % o o o o % o o o o % % % % % % * % % % % % % % * % % % % % % % % % o o % o o o o % % % % * % % * ; * * % % % % % % % % % % % % % * % * % & % % % % * * & * * 8 *         ",
"        % o o * o o o % o o % % % % % % * % % % % % % % % % % % % * * * % % % o o % o o % % % % % % % % * * * % ; % % % % % % % % % % % * * % % % * % * * * % * & * & 8 * *         ",
"        % o % o o o % o % % % % % % % % % % % % % % % % % % % % % % * % % % % % % % o % % % % * * % * * * % * ; % % % % % % % % % * % % % % * % % & % % % % % * & & * * * 7         ",
"        % % % % % % % % % % % % % % % * % % * % % % % % % * % * * % % * * % % % % o % % % % % % * % * % * * % * ; % % % % % % % * % % % % * % % % % % % % & % % & * * & 7 &         ",
"        % % % % % % % % % % % % % % * * % % * * % % % % * % % % * % % * * % % % % o % % % * * * % % * * * * % % % % * % % % % % % % % * % % % % % % % % % % % * * * & & 7 &         ",
"        * % % % % % % % % % % % % % % * % % * * % * * * % % % % % * % * % % % * % % % * % % % * * * % % * g * % % % % % * * % % % % % % % % % % % % % o % ; % % % % & & & &         ",
"                                                                                                                                                                                    ",
"                                                                                                                                                                                    ",
"                                                                                                                                                                                    ",
"                                                                                                                                                                                    ",
"                                                                                                                                                                                    ",
"                                                                                                                                                                                    ",
"                                                                                                                                                                                    ",
"                                                                                                                                                                                    "
};
