/* XPM */
static char *Green_Nebula_02_512x512_91696780638[] = {
/* columns rows colors chars-per-pixel */
"90 82 41 1 ",
"  c None",
". c #0E0F00",
"X c #0E1201",
"o c #0E1B01",
"O c #131400",
"+ c #151B04",
"@ c #181C03",
"# c #141F08",
"$ c #0E2102",
"% c #0D2609",
"& c #162106",
"* c #192206",
"= c #152907",
"- c #1D2807",
"; c #162309",
": c #192509",
"> c #17290C",
", c #1B2B0C",
"< c #17320C",
"1 c #1D310E",
"2 c #163A0E",
"3 c #1B380F",
"4 c #1C2610",
"5 c #1D2B12",
"6 c #1E3411",
"7 c #1F3912",
"8 c #22290E",
"9 c #20340E",
"0 c #212D13",
"q c #223413",
"w c #223B12",
"e c #283917",
"r c #263618",
"t c #263A19",
"y c #2A3D1B",
"u c #2D3E20",
"i c #244215",
"p c #2B421D",
"a c #2C4523",
"s c #314122",
"d c #425835",
/* pixels */
"    OOO....OOOOOOO##O44@@4@@@@@@@OO++O@@@@**@;**##-#++;+##;;0:;:;;;,,;:4;>>,,-1,,:=,,1    ",
"    .O.O...OOOOOOOOOOO++*@*@8@OOO++O++@@@@*****#*-::&,,:##::>>:>>;:5>;>:;,*>,:,,>;>>,,    ",
"    OOOO.O..@OO@OOOOO#+4@@*@#@++++@++@@#@-****-:*::#::,,5;;>>r:5;#>45;:>>,0>;,,,;;-;;;    ",
"    @OOO.O..OOO@OO+OOOOO@@8*+@+++@@+O8@@@**---,:-*:::,,1>1u,>>:>#;%5;5;:>:::;:,;;&&&;;    ",
"    OO@OO...OOOOOOO@OOOOO@@@@++O++++@@8@*@-::--,::::-5,8,:>>5>:;%#>4q>;qe:;#;;::###X+4    ",
"    O@@OOOOO..OO@OOOO@@OOO++#+++O++O##@@+*@*#*-*,#;:::,8,,1wa5;;>4;4;;,1t5#;;6,:#####+    ",
"    OOOOOOO....OO@OOOOOOOO++++++#O+++++#,@@8@*#;+#::>,,:,,,q6;##>;;;;>q1>;;;>,s,;#+#+;    ",
"    OOOOOO......O+OOOOOOO.OOOOO++++#+++#*@+#-:;+##:-:,,,,p565<#;;;;;;5,1,:;,>98,;#o##;    ",
"    OOOOOO...O.OOOOOO.O...#.OOOOO+#@*@@++*+&#;+;&:8,,,,,,9,,5>;>;,;>,,1,,::>,1:;###X+#    ",
"    OOOOO....OO.OOOOOOOO...OO.#+O#@#****+*&+++++*-e,9,8,>,6,,,:>,6>>>y116>;:,::&;#X###    ",
"    OOOOO..O....O.O.OO..O..O#.+@@+#8******++O+#@*,,:-::>:;,,:,>>>6:>,,11-:;*:,,0>;#4##    ",
"    OOOOO.....O..OOO.OOO.#...#O@@@@@**8***#++@*#::--q:>1>0>,>1q>6,,,,,,8::,:,:,,;;;#;:    ",
"    ..OO.....OO.OO.OOOOO.O..OO@@#*@@****+**#@@**-:-,,>59,,,,116,y11,:,:,:>,,,,,,;:>*:>    ",
"    .O......O......OOOOOO..OOO@O@@@8******#+@,*@-*,::;,,,<,,q9611,,:,,:=5,99,-:,5#;;::    ",
"    .....O.O.O.....OOOOOO...O@O@@8@*8*****++#@*#*--*:#>,:,r11,y71,,,,:;---9,8,,,;#::;#    ",
"    ..OOOOOOO..OO.O.OOOOO...OOO@@@@@****&++#*#:**:***:>::>w116i11,,,,;,11998,,,,>,:;;+    ",
"    @OOOO@OOOOOOOOOOOOOOOOOOOOOOO@*@**##**#+;*:*#+*;&::,9999q1w1y6:;>,9,89,1,9,9>,>>>:    ",
"    OOOOOOO@OOOOOOOOOOOOOOOOO.OO@@*#****#*@;@**#+;;*:*,>9,,1111,>>:,,,,,1,,,,19,,,eq;:    ",
"    OOOO@@O@OOOOOOOOOOOOOOOOOOO.O++#@,:0##++#++++#*:,:1,:,,>,t,,:;,>,,>,q919911,9>6:::    ",
"    OOOOOO@O@OOOOOOOOOOOOOOOOOOO++++++###++###*#;:;:,,,,,>8w1111::>;,rp,,,19111,,9;;;5    ",
"    OOOOO@OO@@OOOOOOOOOOOOOOOOO@+@*##+#*##*>-*>*>9-,,,,9,,q6,,,,>;,;;>;>:,666611>:5>>:    ",
"    OOOOOOO@O@OOOOOOOOOOOOOOOOO@@**-:######,1,,,,,,,,11,>6,7,;,>1>;>>6;;,>>4>6,>::>;:,    ",
"    OOOOOOOOO@@OOOOOOOOOOOOOO@@@@*****::##*:-,998,1191,1>><>;:6q,11>56q5:>#;;,6>>>:;,;    ",
"    @OOOO@@O@@O@@OOOOOOOOOOOO@@@*#**:**:*>;::,9,911,999e6a4;>,,16666566>5>><6>;5,r>>>:    ",
"    OOOOO@@O@@OOOOOO@O@OOOOO@O@@@*-*-**;;::;::,9991,1166,65>>>61i77766p66r>1,5,>,,>,,-    ",
"    .OOOOOOOO@@O@O@O@OOO@OO@O@@@*@@##**:::,;;#:,8,1w1q1,6>>;,1,677ita6677w66t66>,>,,,,    ",
"    OOOOOOO@@O@O@O@@O@@OOOOOOO@@@@;##:;:-,,:;#;:,,,,11,,>>-,,y667ii7pwiii7w6635>,,,,;,    ",
"    OOOOOOOO@OO@@@@OO@OOOOOOOO@O@@+O+*:*,,,:+#;:,q,,,>;,,,56y6w6ii77w7i77iw6>6>,0,,::,    ",
"    @@OOOOOOOOO@O@@O@O@OOOOOOOO@OO+;##*:,,-:*;++*:r,;;;,1,1,w66w77i7a7i7i7766>>,,-,,:,    ",
"    @OOOOOOOO@O@@@@@@@O@@O@O@OOO++++@#;:,:*::;;;*;*,:,,169w166665<577t777767661>,,e,:*    ",
"    OOOOOOOOOOOOO@@@O@OO@@@@@@O@O++++++:,-::r:#*+;+,-,,1w111166,>56><><t55>651616,,,5*    ",
"    OOOOOOOOOOOOOO@OO@@@OO@@O@O@+++;@:&&&:&##;#+;+&:-,,919616>6;<5a56<>76<>>>6,5,,19,;    ",
"    OOOOOOO.O...OOOOO@O@OOO@OO@@@++**;o#++&;;+;+#;**-,,9991,1>;5,6t766qa7654>6;;6q5,:+    ",
"    @@OOOO.OO..OOOOOO@OO@@@@@@@@@@++++++&++o++++&&**--199w,,,,>11676>1qa667<;>4<65::;;    ",
"    O@O@O..O.O..OOOOOOO@O@@OO@@O+++Xo+;&**&+o++;&&***:8,-<,q>;>>,17q6,116w6>;>6,,;::;#    ",
"    @OOOOOOOO...OOOOOOO@@OO@O@@@@O+oo+**:&&++O;#&++==::>1-1,;>,,,ww11711666>;6>>>>>>;;    ",
"    ++OOOOOOOO.OOOOOOOOOOO@@@@OOO+Ooo+=$&==$#o+#=&+;&+#:>>>>451,611tr6116>,;56>,>;;;;:    ",
"    OOOOO..OOO..OOOOOOOOOOOOO@@OO+oXo&&&&=&oo+##++&+&%;+:>;;;;>1166,6,,,5,>;>65u6,#;;+    ",
"    ..OOOO.....OOOOOOOOOO@OOOO@OOOOOO*+&,*#oo++++++o&+;%;;;;>>;,,17,>,,11161><5u6:;;;+    ",
"    O..OOO.....XOOOOOOOO@OOO@OOOOOXXO@@*+#O#.#+#+++++;;1>>>:,,>615>;>61q7761>4>>>;#:>:    ",
"    O..OO.....OOOO......OOO.OOOOOOOOO@O@@OOOO++@++X;;;,y%%>;,,,,,;;;wa9wwi166>;;:;;5;;    ",
"    OOOO.O.....XOOO.OOOOXO..X..OOOOOOO@@OOOOO+++#+++;==>>#;,,,,;1,,>,,w6q1q36>:>;;;;;4    ",
"    XXOOOo....XOO..OOOOOOXO...OOOOOOO@OOOOOOO++++#+#&,:>>>;>;qq1e,p,,6,wi965r6,;;;;##+    ",
"    XX+XOXX.XX...OOOoXOOOOOOOOOOOOOOOOOOOOO@@+++O++;&++=;>;1ry31311q6666w11,151,;:;0:+    ",
"    #XOOoo..XX..OOOooo$$@@O@OOO@O@OO@OOO..OOO@++#+##+:&&,,-,1<2237<69119ww11q,,,:::,:*    ",
"    XXX#XXoXXX.XXooXo++OOOO@OOOO@OOOOOOOOOOOOO@Oo##:::;,,q111332263:1119991w,,,:;;::**    ",
"    OO#XXXXXXX.XX+X+o++OOOOO@OO@O@O@OOOOOOOOOO@O@#+*::,,,-e9111322,,>,,991,,,,,,qq*;;;    ",
"    #+++ooX.XXXXXX+ooO++@@O@OOOO@OOOOOOOOOOOO@@@##+:,,-8,,111<311,>:,999,,,,:--:,,*+++    ",
"    o&+ooX..oXOX.O.OO@OOO@@OOOOOOOOOOO.OO@OO@@@@#**-::,>,-81,1-<1>:::>9,8,-&:,:-:**:&*    ",
"    ++ooooXXXXOO.OOOO@@O@OOOOOOOO.O.OOOO@@OOO+@@*@*#*#:*,:,51919w,:>>5,,,-,:*::q*:::*:    ",
"    &o$XX.XXOOX..OOO@@O@OOOO.OOOOOOO.OOOOOO@@O@@*@##*##;:::-9,,1,,>;#;;:-8:::**::::*;&    ",
"    $$oo...XO....O.OOOOOOOOOO..OOOOO.OOOOOOO@+@@@#@##+#*+-,-,-9,6:;;;#;:;*:*:0;,:,::*+    ",
"    ;+OXO....O.OOOOOOOOOOOOO.OO.OOOOOO..@OOOO@@@*+##*#@;#-,,-:,,r;;;::**&++**:*:*:,-8:    ",
"    oO+O.OOO.O.OOOO.OOOOOO.O....OOOOO..OOOO@@@@@@*@#+@*:,---:,0:;;;;####&+##;*;:&*:-**    ",
"    OoOOOOOO.OO.OOOOOO.OOOOOO.OO..OO.OOO.OOO@O@*@84@#+#:,->*-::;;;::*4#*&o#+###*:*-:-:    ",
"    +XOOOOOOOOOOOO.O...OOOOOO..OOO..OOO..OOOOO@@#@@#@**4-****&:;#;4:*0#:++*++#***::-*:    ",
"    OOOOOOOOOOOOOOOOOO.OOOO.O..OOOOOOOOO@OOOOO@O+@++++#:::*****:::#:#**:###O++#*-:*-**    ",
"    OOOO@O@O@OOOOOO.OO....OOOOOOO.OOOOOOO@OOOOO@@+++++++*####*:*-8-###,*#O#X+#+***8*-*    ",
"    OO.OOOOOOOOOOOO..OO.OOOOOOOO.OOOOOOOOOO.OOOO+++++++#+#@*##########**#+#+++#**-8*:*    ",
"    OOOOOOOOOOOOOO..OOOOOOOOOOOOO..OOOOOOOOO.OOO+O++.O+#+#@#++*@@#@##*#@+##XO+##****--    ",
"    OOOOOOOOOOOOOO..O.OOOOOOOOOOO..OOOOOOOO..OOOOO#.O++#+++#++#@++++####O#+X++#+***-**    ",
"    OOOOOOOO.OOOOOO...OOOOOOOOO........OOOOOOO.OOOOOO+OO+#O#+O++++++@+O##OO#+#+#++@**-    ",
"    OOOOOOOO.OOO.O..OOO.OOOOO.....O...OOOOOOO.O..O.OO+#X+++O++O+++++++##OOOXOO++&+@+**    ",
"    OOOOOOO..OO.O.O.OOOOOOOOO..OOOOOOOOOOOOOOO.OOOO#O+O+OO+O+X+O#O+OO+XO###XoO++++@@8-    ",
"    O.OOOOO.O.OO.O.OO@OOOOOOO..OOOOOOOOOOOOO..OOOOO@@@OO.+O+.O.4O@@OO@OOO++O##+++@@+8@    ",
"    OOOOOO.......OOOOOOOOOOOO..OOO@O@OOOOOOOO.OOOO@OO@@@OO+.OOO+@OO@@@O+O+OO..++#@@++*    ",
"    .O...O..O...OOOOO@@@OOOO..OOOO@OOOOOOOOOO.OOOOO@@@@OOOOOO.+OOO@@@@OO+OO+OO#+@+@+@@    ",
"    OOO...OO.OO.OOOOO@OOOOOOOOOOOOOO@OOOOOOOOOOOOOOOO@@OOOOO.#O+O@OOOOO+OO+O#OO++@@@+@    ",
"    OOO........OOOOOOOOOOOOOOOOOOO@OOOO.O.....O@OOO@O@@@OOO@OOOOOOOOOO@O@OO++OOO@@@@@@    ",
"    O.OO..O...OOOOOO@OOOOOOOOOOOO@O@OOO..O...OOOO@OO@@@O@OOOOOOOOOOOO@OO@O+OOO@@@@@@@@    ",
"    O..OO.OOOOOOOOO@O@OOOOOOOO@OO@O@OOO.OO.OOOO@O@@@@@@@OOOOOOOOO@OOOO@OO+O+O@O@+@@@*+    ",
"    OOOOO.O.OOOOOOOOOOO@OOOOO@@OO@OOOOOOOO.OOOOOOO@O@OO@@OOOOOOOOOOOO@OOOOOOOO@OO@@+&@    ",
"    OOOOOOOOOOOOOOO@OO@@OOOO@OOOO@O@O@OOOOOOOOO@@OO@@@OOOO@OOOOOOOOOOOOOOOOOOOO@@@@+&+    ",
"    OOOOOO@OOOOOOOO@OOO@O@@@OOOO@@OOOO@@OOO@OO@@O@@@@8@OOOOOO@OOOOOOO@OOOOOOO@OOOOO@++    ",
"                                                                                          ",
"                                                                                          ",
"                                                                                          ",
"                                                                                          ",
"                                                                                          ",
"                                                                                          ",
"                                                                                          ",
"                                                                                          "
};
