/* XPM */
static char *Component_51696780322[] = {
/* columns rows colors chars-per-pixel */
"82 75 155 2 ",
"   c #010101",
".  c #060A04",
"X  c #0D0E01",
"o  c #0B0D09",
"O  c #0D1203",
"+  c #0E1A04",
"@  c #0D120B",
"#  c #0F1D0B",
"$  c #131400",
"%  c #151B04",
"&  c #181D03",
"*  c #12140E",
"=  c #131D09",
"-  c #191C0D",
";  c #141710",
":  c #161A11",
">  c #1A1D14",
",  c #0E2101",
"<  c #162106",
"1  c #1A2206",
"2  c #16230A",
"3  c #19260A",
"4  c #17280C",
"5  c #1B2B0C",
"6  c #1D310E",
"7  c #1D380D",
"8  c #142312",
"9  c #1C2116",
"0  c #172B11",
"q  c #1D2C12",
"w  c #1E2318",
"e  c #1D2C1A",
"r  c #1E3412",
"t  c #1F3912",
"y  c #1E351D",
"u  c #1F391B",
"i  c #20250E",
"p  c #20290D",
"a  c #20340E",
"s  c #223B0F",
"d  c #212611",
"f  c #222E14",
"g  c #21251A",
"h  c #252A1D",
"j  c #233314",
"k  c #223C13",
"l  c #23341A",
"z  c #28351B",
"x  c #253B1B",
"c  c #293C1C",
"v  c #272D20",
"b  c #282E20",
"n  c #273321",
"m  c #2D3424",
"M  c #233C21",
"N  c #2D3C22",
"B  c #303726",
"V  c #313926",
"C  c #333C29",
"Z  c #244214",
"A  c #264A13",
"S  c #294D16",
"D  c #24421C",
"F  c #2A421E",
"G  c #2C521D",
"H  c #254422",
"J  c #2B4425",
"K  c #274824",
"L  c #2B4B25",
"P  c #274F2B",
"I  c #2B4C2A",
"U  c #384623",
"Y  c #324C27",
"T  c #3A4B27",
"R  c #36422B",
"E  c #39442E",
"W  c #344C2C",
"Q  c #3B492E",
"!  c #2C5127",
"~  c #27512E",
"^  c #2B522E",
"/  c #33532D",
"(  c #3A542E",
")  c #345B2C",
"_  c #3C4631",
"`  c #3E4A32",
"'  c #2C5633",
"]  c #2D5936",
"[  c #2F5E3A",
"{  c #3B5332",
"}  c #355D30",
"|  c #366627",
" . c #386C2A",
".. c #356131",
"X. c #396235",
"o. c #32623B",
"O. c #366839",
"+. c #3E6939",
"@. c #3E7535",
"#. c #414E35",
"$. c #435335",
"%. c #455A36",
"&. c #465439",
"*. c #48573A",
"=. c #465B39",
"-. c #4A5C3B",
";. c #426537",
":. c #4D6137",
">. c #42633B",
",. c #4D633D",
"<. c #436C3B",
"1. c #4E6A3D",
"2. c #50663E",
"3. c #407537",
"4. c #427D3D",
"5. c #356E44",
"6. c #377247",
"7. c #387043",
"8. c #3D7B4A",
"9. c #4F6440",
"0. c #4C6D43",
"q. c #516641",
"w. c #536B43",
"e. c #506E48",
"r. c #4B7342",
"t. c #4D7846",
"y. c #567245",
"u. c #587446",
"i. c #5A7A47",
"p. c #527549",
"a. c #5B764A",
"s. c #57794B",
"d. c #5B7C4A",
"f. c #5F7E51",
"g. c #3F804A",
"h. c #3D8150",
"j. c #4B8046",
"k. c #5D824A",
"l. c #518B4A",
"z. c #56944E",
"x. c #448B54",
"c. c #5E8453",
"v. c #5D9754",
"b. c #60864C",
"n. c #638C54",
"m. c #639356",
"M. c #669957",
"N. c #699D5C",
"B. c #70A35F",
"V. c #6CA862",
"C. c #7EB46F",
"Z. c #7EAF70",
"A. c #84B875",
"S. c #91C482",
"D. c #96D086",
/* pixels */
"$ $ $ X X X X $ $ $ $ & $ $ $ & % = 1 & 1 3 & 1 1 & & $ & $ $ % $ % & & & & & 1 1 1 1 1 < < 3 < < % + + % 2 3 2 2 4 5 5 3 1 2 5 q 3 3 3 5 3 3 4 5 5 a 5 3 k 3 5 5 a ",
"$ X $ X X X X $ $ $ $ $ $ $ $ $ % % & & 1 1 1 1 i & & & $ % % $ & % & & & & 1 1 1 1 3 < < 3 3 < < < 4 < = = 2 2 f 4 3 4 3 2 4 4 2 2 3 5 3 6 3 3 6 3 3 3 4 2 3 5 5 a ",
"$ $ $ X X $ X $ $ $ $ $ $ $ $ $ $ % % = i & & & & & & $ % $ & $ $ & & & & 1 & 1 1 1 3 1 3 3 3 < 1 5 5 5 q < 3 5 4 j 3 1 3 = 4 5 2 2 5 4 3 4 3 3 3 3 5 a 2 4 5 2 3 3 ",
"$ $ $ $ $ $ X $ $ $ $ & $ $ $ - % $ $ % & & & 1 & & & % & % % % % & = & & 1 1 1 1 1 p 1 3 1 3 3 1 3 5 5 4 5 c 3 5 4 4 4 1 = 4 5 f = 2 2 4 3 r 4 3 3 5 3 2 2 2 4 3 < ",
"$ $ & $ $ $ X X $ $ $ $ $ $ $ $ & $ $ % % & 3 & % & % $ % % & % & 1 1 & & 1 1 p 1 3 3 5 3 3 3 3 4 5 p 6 3 5 5 5 5 4 2 3 < 2 2 e r f 2 q l 4 3 < 3 4 3 3 3 = = % < 5 ",
"$ & $ $ $ $ $ X $ $ $ $ & $ $ $ $ $ $ $ $ $ & & & % % % $ % % % % % 1 & 1 & 1 1 1 1 p 3 3 1 3 3 3 5 5 a 6 5 5 5 l 4 2 3 2 2 2 = 4 4 4 5 k 4 2 < 4 3 3 5 3 % % # = % ",
"$ $ $ $ $ $ $ $ X X X $ & $ $ & $ % % $ $ $ % % % % % % % % % % % % % < 1 & 1 1 < 1 3 2 3 < 1 1 3 5 p 5 5 1 6 x L 3 2 # 4 4 4 0 2 2 j 6 5 3 # < 3 6 j 3 < = + % % < ",
"$ $ $ $ $ $ $ $ X X $ $ $ $ $ $ $ $ $ $ $ $ $ $ $ $ % % = $ $ = % = % 1 3 & & 1 < < 3 % % < 3 3 3 3 5 3 5 a 5 a r 2 = = 2 2 = 2 3 5 5 5 4 < 3 4 5 5 k 1 2 2 @ % < < ",
"$ $ $ $ $ $ X $ $ X $ X $ $ $ $ $ $ $ $ X $ $ O $ $ O % $ % & 3 % = $ = 1 1 % 1 3 3 < = 1 1 5 5 5 6 5 3 3 c 5 6 q 6 = 3 2 4 < 4 5 5 3 6 6 3 2 5 4 r 5 4 < = + = = = ",
"$ $ $ $ X $ X X X $ X $ $ $ $ $ $ X $ $ X X $ $ % O $ % $ & & & 1 & % % = 1 & % % = $ 1 1 1 k 5 p 5 5 5 5 a 6 6 4 4 3 5 0 6 3 4 5 z 6 6 5 3 3 5 5 5 1 < < = % O # % ",
"$ $ $ $ $ X $ X X X $ $ $ $ $ $ $ $ $ $ $ X $ $ O % $ % % % & 1 1 1 3 1 < 1 < % + % = % 1 p 5 p 5 5 5 4 4 3 6 5 4 5 4 5 3 j 4 4 5 a 7 a 5 3 3 3 3 5 5 j 2 < # % % = ",
"$ $ $ $ $ $ X X X X $ X X X $ $ $ $ $ $ $ $ X X O $ % & % 1 & 1 1 1 1 1 < 1 % % $ % 1 1 1 1 5 5 5 1 4 5 3 3 3 4 4 5 5 4 5 5 4 4 5 5 5 5 3 3 3 3 3 3 3 4 4 2 % 0 < < ",
"$ $ $ $ $ X $ $ X $ $ X $ $ $ $ $ $ $ $ X $ $ X O % % % 1 & 1 & 1 1 1 1 1 1 3 % = = 1 & 3 3 5 1 j 3 6 5 5 k 2 4 6 6 6 3 6 5 5 6 5 6 3 6 5 3 1 3 3 5 6 6 3 3 3 < 3 4 ",
"$ $ $ X X X X X $ $ X $ $ X X $ $ $ $ $ $ $ X $ $ $ % % & & & 1 1 1 1 1 1 1 % % & 3 & 1 p 3 p 5 3 3 5 a 5 6 5 r 6 k 6 5 x 5 6 3 3 5 1 3 5 1 6 a p 5 3 3 4 2 3 2 4 3 ",
"X $ X $ X X $ X $ X $ X X X X $ $ $ $ $ X X X $ $ $ % % & & 1 1 1 1 1 1 1 1 % % % 1 1 = 1 3 3 3 3 < 5 6 3 3 l 5 6 6 F k 6 3 6 3 5 3 1 3 3 6 a 6 5 5 5 5 3 2 2 3 3 = ",
"X X X $ $ X $ $ $ $ X X $ $ $ X $ $ $ $ X $ X X $ $ & $ 1 & & 1 1 p 1 1 1 & % % < % 1 1 1 1 3 3 3 = 3 3 3 3 s 6 5 6 6 6 t 6 5 5 5 3 3 5 6 6 a p 6 3 5 5 3 2 3 3 < = ",
"$ $ X $ $ $ $ $ $ $ $ $ $ $ $ $ $ $ $ $ $ X $ $ $ $ $ & % & & 1 1 1 1 & 1 1 = % < < 3 < 1 1 1 < < 4 < 4 5 5 a 6 k 6 Z 6 c 6 4 3 5 3 a 5 a a a 5 p 5 6 a 5 5 3 3 2 < ",
"$ $ $ $ $ $ $ $ $ $ $ $ $ $ $ $ $ $ $ $ $ $ $ X X $ $ $ $ & 1 & 1 1 < 1 % 1 % 1 1 1 3 < % < < 3 3 3 3 4 a a k p 6 k k 6 6 5 4 3 3 5 5 5 5 5 5 5 5 6 6 3 3 5 6 j 2 q ",
"$ $ $ $ $ & $ $ $ $ $ $ $ $ $ $ $ $ $ $ $ $ X $ $ X $ $ $ % & < % 3 1 q 1 < = % % < 2 % % < 1 1 3 3 6 5 5 6 5 5 6 5 3 3 4 2 5 3 5 5 5 5 p a 5 6 a a a 5 3 6 r r 4 2 ",
"$ $ $ $ $ $ $ $ $ $ $ $ $ $ $ $ $ $ $ $ $ $ $ $ $ $ $ $ $ % % % 1 3 1 4 % = % = % = < % = < 3 3 3 3 a 3 4 6 5 5 5 z 6 5 3 3 5 3 3 6 6 5 l 6 6 6 6 a 5 6 a 4 4 3 4 4 ",
"$ $ $ $ $ $ $ $ & $ $ & $ $ $ $ $ $ $ $ $ $ $ $ $ $ $ $ $ & % % % % = < = % = 1 1 1 3 1 5 a 1 3 5 5 5 a 5 3 r 6 6 6 6 6 4 2 5 2 2 y c 4 4 5 r t 6 6 6 6 4 5 2 4 4 3 ",
"$ $ $ & $ $ & $ $ & $ $ $ $ $ $ $ $ $ $ $ $ $ $ $ $ $ & & 1 1 1 1 = = = < = < 4 4 3 3 4 3 3 5 5 5 5 a 5 5 6 6 k 5 3 4 4 3 4 4 2 2 3 2 2 4 4 5 r 5 6 6 5 4 4 5 4 5 3 ",
"$ $ $ $ $ $ $ & $ & $ $ $ $ $ & $ $ $ $ $ $ $ $ $ $ & % 1 1 1 p 1 < 3 1 = 1 3 3 3 a 5 p 5 5 6 a a a 6 5 4 5 t r 4 3 6 4 6 5 5 5 5 r 4 4 4 2 2 2 5 6 5 2 3 2 2 3 4 4 ",
"$ & & $ $ $ $ $ $ & & & $ & $ $ $ $ $ X $ $ $ $ $ $ & & & 1 1 3 3 < < < = 3 4 p f j k x j a 5 6 a 6 5 c 5 q 4 < 3 3 6 7 6 6 6 5 6 a c 5 4 4 2 4 5 5 6 5 5 r 4 5 5 1 ",
"$ $ $ $ & & $ $ & & $ $ $ $ $ $ $ $ $ $ $ $ $ $ $ & $ & 5 f V T $.>.1.0.w.y.u.d.d.d.b.b.b.k.k.1.1.( c j 5 J f 3 4 5 6 6 t t t r 6 6 c 6 5 r 5 r r 5 4 4 4 5 3 5 5 3 ",
"$ $ $ $ & & & $ & $ $ & $ & $ $ $ $ $ & $ & h B E #.:.2.2.2.2.2.2.2.,.,.,.,.,.q.w.w.y.u.i.k.k.k.b.d.b.d.y.$.C h 2 6 6 6 A t k k j t 6 t t r 6 r l r 5 4 5 5 6 p 3 5 ",
"$ $ $ $ $ $ & $ & $ & & $ $ $ - i B #.*.2.2.:.:.%.*.*.*.%.-.-.:.,.:.,.,.,.:.:.,.,.,.2.2.y.i.i.i.y.y.u.u.i.i.a.a.-.r r r t k Z x Y k k k k k t 5 6 5 t 4 5 5 3 5 3 5 ",
"$ $ $ $ $ $ & $ & & $ - B _ *.*.*.*.&.&.#.E #.#.#.#.$.*.%.%.=.=.-.-.>.:.:.,.,.,.:.,.:.2.,.2.2.w.w.w.y.w.y.y.y.a.y.9.N 0 t Z k s t k Z k k k k t 5 k 5 5 6 5 5 3 3 3 ",
"$ $ $ $ $ $ $ & $ $ $ B _ _ _ B E C C R C E _ _ #.T #.#.#.#.$.$.%.%.=.=.>.-.:.=.%.-.:.2.-.q.q.q.2.2.q.w.y.y.q.w.q.q.w.R k k k t k t Z k A k t t r 5 2 4 5 3 5 3 3 3 ",
"$ $ $ $ $ $ $ $ & & $ b B B B B B B C C C C C R R U T #.#.( $.$.&.%.%.%.=.=.%.$.$.$.-.-.-.9.-.-.2.2.q.-.q.q.q.q.q.q.q.e.T 0 t t F x k k k r t r t 6 6 0 5 5 5 5 3 3 ",
"& $ $ $ $ $ $ $ $ & - h B B B B C C C C C C U _ Q Q Q Q T #.#.$.$.#.$.$.` Q Q _ Q #.*.-.-.-.-.-.-.-.-.-.*.*.-.*.-.9.-.-.9._ 0 4 t t 0 t 0 x 5 t 0 6 5 6 6 5 c 5 5 3 ",
"$ $ $ $ $ $ $ $ $ $ - b B B B B B B C B B C B C C Q Q Q Q E T ` ` ` Q E E E E E Q #.#.-.-.-.-.-.-.-.-.-.9.-.*.*.*.*.*.*.=.-.C j Y 4 5 k r 5 4 4 6 0 5 r 6 3 a 5 6 1 ",
"& $ $ $ $ $ $ $ X $ > h b B B B B B B B B m B B C C C C C C C C R C C C C C C E _ _ _ { -.-.,.-.,.-.=.*.*.-.9.-.9.-.*.*.*.-.9.{ m.%.0 ( B.r 4 4 4 t 4 4 6 a 5 6 3 < ",
"$ $ $ $ $ $ X $ $ & f h v B C B B B B m m B B B C m m b v v m m C C C V C C C C C C C _ &.0.,.9.=.*.-.*.&.&.9.9.w.e.9.9.-.9.w.w.$.-.4 %.n.D r 5 4 4 4 4 5 z 5 3 3 < ",
"& $ $ $ $ $ $ $ $ X > h g v m B B m m m b b v g w > > > > > > > h V V B B B V V C C C _ _ $.=.=.$.&.&.#.&.#.#.#.*.-.-.=.-.-.*.,.,.T f :.2.k j 6 4 4 4 6 6 4 4 < < = ",
"& $ $ $ $ $ X $ $ $ : v g w g g v v v h g g > w > > > > > > > > > h B m m b B V m m C C _ _ #.#.` ` #.` #.#.#.#.` $.&.$.*.&.&.&.*.-.h U T 5 6 5 3 4 5 4 4 3 4 4 < 2 ",
"& $ $ $ $ $ $ $ I H 8 h h g g g g g g g w > > > > > > > > : > : : > b b b m m b m m m C C _ _ ` ` _ ` #.` ` _ #.` #.#.#.&.#.#.&.$.c.m ;.C.L 4 3 2 r 5 5 5 4 < 3 3 3 ",
"$ $ & $ $ X $ $ 8.t.J v h g g g w w g > g > > > > > > > > : : : : ; : v h h b b v v m m C R E _ _ _ _ _ #.` #.#._ ` ` #.&.#.#.#.,.D.m.m.V.4 S Z q q 4 L 5 5 # 2 2 = ",
"$ $ $ $ $ O X # $ I x v h > w g w w w > w > > : : : : : ; ; ; ; ; ; ; ; g h h h h v v m C C C _ _ _ _ _ _ #._ _ #.#.#.` _ #.#.#.N N.z.3.z.Z S 5 4 r 5 c j 4 3 2 = = ",
"$ $ $ $ $ $ ' h.H 8.M g h w w g 9 w w > > > > : : ; ; ; * ; * * * ; * ; ; w g g h h v v v C m C C C C E C #._ #.#._ _ ` 0.>.v A.M.M. .G @.7 s r 3 5 4 q 3 4 3 3 4 < ",
"X $ X O $ X - o.[ 7.Y d g w w > > > > > : > : : ; * * * * * o * o o ; o o ; > w w w w g h v m m B J s.` C N E _ C #._ C / j.J k.v.l.A Z G | 5 5 u 4 2 2 4 2 = 3 3 < ",
"X $ O $ $ X 8 M ' J c > g > w > > > > : : : - * * * * o o o o o o o o o o o * ; ; > > w w h v v m { c.N D u C E C S.s.e / | G ) 3.4.6 5 7 g.P O.x.' 2 < 2 2 3 < < q ",
"$ $ $ $ $ $ M 5.} e j @ g > > : > : : : * * * @ * o o o o o o o o . o . o . . * * ; ; ; : > w e.0./ X.H 6 r V m v Z.N.t.V.A ) <.G G t @ % ..^ } ! 0 4 4 2 2 < 2 = = ",
"o $ $ O $ O O K I M = O : > : : : ; * * * * * o o o . o . . . . . o   . . . . . o o o * * * ; n W K r H , 2 > 9 > =.r.+.t.Z t ) 5 k k O O c F L H ~ [ 0 3 2 < j < % ",
"X O O $ O $ c n.+.D + . o : ; * * * * * o o o o o . o . .     .   . .   . . . . o o o o o o e e M 0 4 0 y # e ' I x S ;.r.t 4 r < 4 < % % i f [ ' 6.' 2 2 4 3 3 3 % ",
"= $ = c.f.L 2 y ! t 2 . . ; * * * * o o o o o . . . . . . .         .           .     o o o y e y @ + 0 W { J J p.r 6 s.m.( c.x $ . . * O - f I K I 2 3 3 3 3 5 4 < ",
"$ $ = >.t.} D 5 < 4 * o . * o o o o o . . . . . .   . .                       .     . o @ o o # 8 # . 8 l J u y / H # J <...t.M           . 3 z l ] 5.0 3 3 1 3 3 1 ",
"$ = % $ W I t 2 O . .     . o o o . o . . .       .                                     . . o o o O @ y 2 y y 2 0 0 < # L D L u           . 4 : ~ ~ r 3 j f 3 < % % ",
"% < % 0 >./ r 2 + .         o . . . . .   . .                                         . . . . . . o O e 8 8 y 8 @ # W 0 0 2 r 4             o 4 K <.{ 3 3 3 1 < < < ",
"% % % + < < = # .           . . . . . .                                           .     .   .   . o . @ # @ 8 # # + J M = + 2 + .           X 6 H ^ l x J =.f 1 < 3 ",
"+ % , + O .   . .               .                                                                 . . # # . . O @ . = 8 2 . . . .         . O 2 0 2 6 L >.y.c 1 < 3 ",
", , , O X                                                                                         .     . . . .   . . + O X .               . O . + 2 r L c 1 1 % & ",
", % % O $ .                                                                                                             . .                 .   O , 4 u I N a 1 5 3 ",
"% % % O $ $ X .                                                                                                                                 . O # 0 e q 3 5 1 1 ",
"+ + $ $ $ $ $ $ $ X                                                                                                                             . O % < < < 3 3 3 1 ",
"% + $ $ X $ $ $ $ X X . X X .                                                                                                                   + = 2 3 3 1 1 3 3 1 ",
"$ $ $ $ $ $ $ & $ $ $ $ $ $ $ $ $ $ X X X X X                                                                                               . O + % < < 1 p 1 p 1 1 ",
"$ & $ $ & & $ $ $ $ $ $ $ $ $ X $ $ X X X $ X $ $ X X X X X X X X X X $ $ $ X X X $ $ $ $ O O $ O O O O O O O O O O # O O + O . . O . O + % + % % & < 1 1 5 1 1 1 1 ",
"$ $ $ $ $ $ $ $ $ & $ $ $ $ X X X $ $ X X $ X $ $ $ $ $ $ $ $ $ $ X $ & $ & $ $ $ $ $ % % $ % % % % % % % = < = % < 1 1 3 3 3 % < < 3 3 % % % O % % < 1 1 1 p 1 1 1 ",
"$ $ $ $ $ $ $ $ $ $ $ $ $ $ X $ $ $ $ $ $ $ $ $ $ $ $ $ $ X $ $ $ $ $ $ $ $ $ X X $ $ & % % % % $ O % % % 1 & = = % % 1 < % 3 < % 1 3 % = % % % O % 1 1 1 1 p 3 1 1 ",
"$ $ $ $ $ $ $ $ $ $ $ $ $ $ $ $ $ $ $ $ $ $ $ $ $ $ $ $ X X X $ $ $ $ $ $ $ $ $ X $ $ $ O % % $ O $ = % % 1 = % = % < % % % % 1 < < = = $ % % # + % = < < 1 1 1 1 p ",
"$ $ $ $ $ $ $ $ $ $ $ $ $ $ X X $ X $ $ $ $ $ $ $ $ $ X $ X $ X X X X $ $ $ $ $ $ $ $ $ $ O $ $ $ % $ % % % % % $ % % % % % $ % % < & < = % % % % % % % < < 1 1 p 1 ",
"$ $ $ $ $ $ $ $ X $ $ X $ $ $ X X X $ X $ $ $ $ $ $ $ X X X X X X $ X $ $ $ $ $ $ X $ $ $ $ $ $ $ % % $ = % = $ $ = % % % % % % % % % = O % $ O $ % % < & % & 1 1 1 ",
"$ $ $ $ $ $ $ $ X $ $ X $ X X $ $ $ $ X $ $ $ $ $ $ X X $ $ $ $ $ X $ $ $ $ $ $ $ O X X O $ $ $ $ % & * $ $ % % % $ $ % & % = $ $ % $ % O % = O O $ % % & & < 1 p 1 ",
"$ $ $ $ $ $ $ X X $ $ $ $ $ X $ $ $ $ $ $ $ $ $ $ $ $ $ X $ $ $ $ $ $ $ $ $ $ $ $ X X $ $ $ & $ & & $ $ $ $ - $ $ $ $ $ & & & & $ & $ & $ & $ $ $ = % $ % % & % 1 1 ",
"X $ $ $ $ $ $ X $ X X X X $ $ $ $ $ $ $ $ $ $ $ $ $ X $ $ $ $ $ $ $ $ $ $ $ $ $ $ $ $ $ $ & $ $ $ & & $ $ $ $ $ $ $ $ - & $ $ $ $ & & $ $ & $ * $ = % % & % & % i & ",
"$ X $ $ $ $ $ X X $ $ X X $ $ $ $ $ $ $ $ $ $ $ $ X $ $ $ $ $ $ $ $ $ $ $ $ $ $ X X $ $ $ $ $ & & & $ & $ - $ $ $ $ $ & $ $ $ & $ $ $ $ % $ $ $ % $ $ % 3 % % & & & ",
"$ $ $ X X $ X $ $ X X X $ $ $ $ $ $ & $ $ $ $ $ $ $ X $ $ $ & $ $ $ X X $ $ $ $ $ $ $ $ & $ $ $ & & & $ $ $ $ $ - $ $ $ $ & & $ $ & $ & $ $ % $ $ $ $ & & & & & % & ",
"$ $ $ X X X $ X $ X $ $ $ $ $ $ & & $ & $ $ $ $ $ $ $ $ $ & $ $ $ $ $ $ X $ $ $ X X $ $ $ $ $ $ & & i $ $ $ $ $ $ $ $ & $ $ $ $ $ $ $ & % $ $ % $ $ & & & & & & & & ",
"$ X $ $ X $ $ X $ $ $ $ $ $ $ $ & $ $ $ $ $ $ $ & & & $ $ $ & $ $ $ $ X $ $ $ $ $ $ $ $ $ $ & & $ $ & & $ $ $ $ $ $ $ $ $ $ $ $ & $ & $ & $ $ % & $ $ & & & & & & & ",
"$ X X $ X $ $ X $ $ $ $ $ $ $ $ $ & $ $ $ $ $ $ & $ $ $ $ $ & $ $ $ $ $ $ X $ $ $ $ $ $ & & $ $ $ & i $ - $ $ $ $ $ $ & $ $ $ $ $ $ $ $ $ % $ & & $ $ $ $ & $ & & & ",
"$ $ $ $ $ X $ $ $ $ $ $ $ $ $ $ $ $ $ & $ $ $ $ $ & $ $ & & & $ $ $ $ X $ $ $ $ $ $ $ $ $ $ & & & $ $ & $ $ $ $ $ $ $ $ $ $ $ $ $ & $ & $ $ $ $ & $ $ & $ & & & < & ",
"X $ $ $ $ $ $ $ $ $ $ $ $ $ $ $ $ $ & $ & $ $ $ & & $ $ $ & & $ & $ $ $ $ $ $ $ $ $ & $ $ $ & & $ & $ $ & $ $ $ $ $ $ $ $ $ $ $ $ $ $ $ $ $ X $ $ $ $ $ $ & & & < % ",
"$ $ $ $ $ $ & $ $ $ $ $ $ $ $ $ $ $ & & & & $ $ $ $ $ $ & $ $ & & $ $ $ $ $ $ $ $ & $ & & & & & & $ & $ $ $ $ $ $ $ $ $ $ $ $ $ $ $ $ $ $ $ $ X $ $ $ & & $ - $ % & ",
"$ $ $ $ $ $ $ $ $ $ $ $ $ $ $ $ $ & $ & $ & $ $ $ $ $ $ $ $ $ & & $ $ $ $ $ $ & $ $ & $ & & $ & & $ & $ $ $ $ $ $ $ $ $ $ $ $ $ $ $ $ $ $ $ $ $ $ $ $ $ $ $ $ & % & "
};
