/* XPM */
static char *Component_41696780322[] = {
/* columns rows colors chars-per-pixel */
"83 75 203 2 ",
"   c None",
".  c #010101",
"X  c #060904",
"o  c #0D0D01",
"O  c #0B0D09",
"+  c #0E1203",
"@  c #0E1B02",
"#  c #0E120B",
"$  c #0F1B0D",
"%  c #131400",
"&  c #151B04",
"*  c #181D04",
"=  c #12140E",
"-  c #131D0A",
";  c #181E09",
":  c #141710",
">  c #161A12",
",  c #1A1D14",
"<  c #0D2002",
"1  c #162106",
"2  c #1A2206",
"3  c #16230A",
"4  c #19250A",
"5  c #17290C",
"6  c #1B2B0C",
"7  c #1D320E",
"8  c #162212",
"9  c #1B2315",
"0  c #172914",
"q  c #1D2C12",
"w  c #1F2319",
"e  c #1D2B1A",
"r  c #1E3411",
"t  c #1F3A13",
"y  c #1E331B",
"u  c #1F391A",
"i  c #212C0F",
"p  c #20340E",
"a  c #223E0F",
"s  c #222D13",
"d  c #21261B",
"f  c #252A1E",
"g  c #282E1F",
"h  c #223513",
"j  c #223A13",
"k  c #2A3B17",
"l  c #24331B",
"z  c #2B361B",
"x  c #243B1A",
"c  c #2A3C1B",
"v  c #293517",
"b  c #313F1D",
"n  c #272D20",
"m  c #292E21",
"M  c #2C3424",
"N  c #253D22",
"B  c #2B3924",
"V  c #2F3828",
"C  c #243220",
"Z  c #303727",
"A  c #313927",
"S  c #323B29",
"D  c #244114",
"F  c #274816",
"G  c #26441C",
"H  c #2A421C",
"J  c #26491B",
"K  c #2B4C1E",
"L  c #32421D",
"P  c #32491E",
"I  c #2B531D",
"U  c #2E591D",
"Y  c #264422",
"T  c #2C4323",
"R  c #274923",
"E  c #2C4C23",
"W  c #2D4F2B",
"Q  c #234228",
"!  c #314223",
"~  c #334D23",
"^  c #36422C",
"/  c #39442E",
"(  c #3B4B2E",
")  c #354929",
"_  c #2E5524",
"`  c #2E5A23",
"'  c #2C532C",
"]  c #2F592A",
"[  c #335324",
"{  c #355926",
"}  c #34532B",
"|  c #3A532A",
" . c #3A5C2C",
".. c #355A2E",
"X. c #3B4631",
"o. c #3E4A32",
"O. c #2C5935",
"+. c #395332",
"@. c #325D34",
"#. c #3C5C34",
"$. c #365D3A",
"%. c #375531",
"&. c #346129",
"*. c #3C672D",
"=. c #37682D",
"-. c #3F682E",
";. c #366233",
":. c #3B6633",
">. c #3C6B33",
",. c #33633C",
"<. c #3A643B",
"1. c #3B6D3B",
"2. c #41542B",
"3. c #415A29",
"4. c #414D35",
"5. c #434E38",
"6. c #435235",
"7. c #455A36",
"8. c #46533A",
"9. c #49563D",
"0. c #455D39",
"q. c #4A5B3C",
"w. c #46632A",
"e. c #40682C",
"r. c #48612C",
"t. c #446433",
"y. c #43633B",
"u. c #4D623D",
"i. c #446C3C",
"p. c #496E3D",
"a. c #4E6536",
"s. c #506939",
"d. c #437334",
"f. c #49723D",
"g. c #457C3D",
"h. c #4B7B3A",
"j. c #497B37",
"k. c #547C3A",
"l. c #527338",
"z. c #346D42",
"x. c #3A7342",
"c. c #3D7945",
"v. c #3C7E4C",
"b. c #4E5C41",
"n. c #505F44",
"m. c #4D6240",
"M. c #4C6C44",
"N. c #516542",
"B. c #556C44",
"V. c #477542",
"C. c #4D7144",
"Z. c #447D44",
"A. c #4C7B43",
"S. c #557244",
"D. c #597446",
"F. c #567847",
"G. c #5A7A45",
"H. c #5B7549",
"J. c #547B49",
"K. c #5D7B4A",
"L. c #607D4B",
"P. c #4C8239",
"I. c #468140",
"U. c #4D8244",
"Y. c #44864E",
"T. c #518444",
"R. c #518548",
"E. c #5C844A",
"W. c #558B4B",
"Q. c #5A8E4D",
"!. c #568745",
"~. c #5E964B",
"^. c #5B8551",
"/. c #5B9252",
"(. c #62834D",
"). c #658A4E",
"_. c #628945",
"`. c #679848",
"'. c #668B51",
"]. c #658A54",
"[. c #6B9553",
"{. c #6C9D54",
"}. c #67965B",
"|. c #659D5A",
" X c #699B5D",
".X c #67985A",
"XX c #719F57",
"oX c #67A24C",
"OX c #69AA52",
"+X c #75AB5B",
"@X c #72A157",
"#X c #6DB054",
"$X c #72B656",
"%X c #6F9963",
"&X c #71A363",
"*X c #79AD6A",
"=X c #7CB66E",
"-X c #77C761",
";X c #84BD75",
":X c #87BE78",
">X c #89D869",
",X c #83D46B",
"<X c #95CF85",
/* pixels */
"  % % + o o o % % % % * % % % % ; & 2 2 2 2 2 2 * * * * & * % % % & & * * % * ; 2 2 2 1 1 1 4 4 1 3 - - @ - & 3 3 5 0 6 6 4 3 4 6 6 4 4 3 4 5 4 4 p 6 i 4 6 6 6 6 6 7 ",
"  % % o o o o o o % % * % % % % % & & ; * 2 2 2 2 2 * * & % % & % & * * * * * 2 2 2 2 2 2 1 2 2 1 2 1 3 & 1 3 3 3 6 4 4 4 4 3 4 5 2 3 4 4 3 5 4 6 6 2 6 6 6 1 6 6 4 7 ",
"  % % % % % o o % % % % * % % % % % ; & * 2 * * * * * * % & % & & & & * * * 2 2 2 2 2 4 2 4 4 4 1 2 6 7 6 1 1 4 5 h 6 4 3 3 3 3 5 q 5 5 5 2 4 4 6 1 6 6 6 5 5 5 2 3 1 ",
"  % % % % % % o % % % % * % % % & % % & & * * 2 2 * * * & & & & & & ; * * * i 2 2 2 i 4 4 4 2 2 4 2 6 6 6 6 6 6 5 6 5 6 5 3 3 5 l s - 1 3 l 5 5 5 6 2 6 6 - 1 1 1 3 5 ",
"  % % * % % % o % % % % % % % * % * % % % * * i * * & % & & & & & 4 4 & * 2 2 2 2 4 4 2 6 2 2 4 4 4 4 p 6 6 4 6 6 q 5 3 3 3 1 3 9 5 5 4 s 5 4 5 1 3 4 6 4 3 - - & 1 s ",
"  % * % % % % % % o % % % % % % * % & % % % % ; & * & & & % & & & & 2 & * * * 2 2 2 4 i 4 6 4 3 4 6 6 6 7 i 6 6 7 h l 1 3 5 3 3 3 5 q 5 r c 5 1 1 3 4 4 4 1 1 @ - - & ",
"  % % % % % % % o o o o % % % * % % * % % % % & % & & & ; & % & & & & & 2 & 2 2 2 2 2 2 2 1 * 1 6 6 6 6 6 7 2 7 x T 3 3 $ 3 5 5 1 5 3 h p 5 5 - 3 5 6 6 6 2 1 $ @ 3 1 ",
"  % % * % % % % o o o % % % % % % o % % % O % % & % % & * & & & & & & & & 1 * * 4 2 1 3 1 & 1 4 4 6 2 6 4 7 7 7 7 6 5 $ 3 3 3 3 1 3 7 6 6 4 3 1 5 6 6 6 4 5 - & - 1 1 ",
"  % % % % % % o o % o % % % % % % o % % % % % % + % & + % & & & 1 2 & + 1 2 ; & 2 1 4 & 1 1 1 7 6 i 6 6 6 6 7 6 7 r 5 1 5 5 4 3 5 6 6 6 6 7 1 3 6 6 6 6 3 3 & = & $ & ",
"  % % % % % o o % o % % o % % % % % o % o o o o % + + & & % * * & 2 2 ; ; 1 2 & & 1 & & 2 2 4 7 6 6 6 6 6 6 7 6 6 5 0 4 5 6 0 3 3 6 7 7 7 6 6 6 6 6 6 4 3 3 & @ + - 1 ",
"  * % % % o o % o o % o o % % % % % % % % o % % % & & % & & * ; 2 4 2 2 2 & 2 1 - @ $ & 1 2 p 6 2 6 6 4 4 3 3 7 6 6 4 4 6 6 7 5 2 6 6 7 7 6 2 1 4 4 5 l r 1 1 - @ - 3 ",
"  % % % % % o % o o o % % o % o % o % % % % % % + + & & & & * * 2 2 4 2 2 2 2 & % & & 1 2 2 2 2 6 i 3 3 6 6 3 6 5 5 6 6 5 6 6 5 6 4 6 7 6 4 6 1 4 6 4 2 4 5 4 1 1 3 & ",
"  % % % % o o o o o % o o % % % % % % % % % + % + + & & * * 2 * * 2 2 i 2 2 1 2 ; & 2 & 2 4 6 6 6 2 7 6 6 6 h 4 6 7 7 r 6 6 6 6 j 6 6 6 6 4 2 2 6 6 6 6 6 2 3 5 1 5 4 ",
"  % % % % o o % % % % % % % o % % % % % % % o % + % % & % * * 2 2 2 2 2 2 2 1 & & & 2 ; 2 4 2 i 2 6 4 6 6 6 6 6 j 7 H 7 6 r r 7 2 6 6 4 4 6 6 7 p 6 6 6 6 6 1 4 3 4 4 ",
"  % o % o o o o o % % o % o o o % % % % % o o o % % % & * * 2 2 2 2 2 2 2 2 2 & & 1 1 2 ; 4 4 i 4 6 1 7 6 6 6 6 7 6 6 j j 7 5 6 4 6 6 2 2 6 6 p 6 7 6 4 6 4 1 4 4 3 - ",
"  o o % % % % % % % o % o o % % % % % % o % % o o % % & * * * * 2 2 2 2 2 * * * 1 ; & 4 2 2 4 2 2 5 1 1 3 1 6 j 7 6 7 p p h 6 7 6 6 4 6 6 7 p i i i 4 6 5 6 3 2 5 1 - ",
"  % % o % % % % % % % o % % % % o % % % % % o % % % % % * * * 2 2 2 2 2 ; 2 2 1 & 2 1 2 2 1 2 2 1 1 3 3 4 6 6 p 6 h j j 7 7 7 6 4 6 6 6 6 i p i 6 p 6 p 7 6 6 4 6 3 1 ",
"  % % % % % % % % % % % % % o % % o % % % % o % % o o % % * * 4 ; 2 2 4 1 1 2 1 1 4 4 4 1 & 1 1 2 6 1 6 6 p p 7 7 7 j j 7 7 6 3 6 6 6 6 6 6 6 p 7 6 i 6 6 6 6 6 r 5 f ",
"  % % % % % % * % % % % % % % % % o % % % % % o % % o % % % & & ; * 4 2 6 ; 3 & & & 1 1 & - 1 3 4 4 6 6 6 6 6 5 6 p 5 6 6 6 1 5 4 6 6 6 p 6 p 6 6 p p 7 6 6 7 7 5 4 4 ",
"  % % % % % * % * % % % o % % % % % o % % % % % % % % % % % & & * 1 2 1 s & - & - & & - & ; 1 2 6 6 2 7 6 6 6 6 7 h z 6 6 3 3 6 4 6 7 r 6 6 6 7 i 7 7 p 7 6 6 5 1 4 5 ",
"  % % % % % % % % % % % % % % % % % % % % % % % % % % % % & * * & & @ - 1 - & 1 1 4 4 4 2 k 4 6 4 6 6 6 p 6 6 7 7 7 7 6 7 4 3 6 3 5 N x 5 6 7 r F p t 7 7 5 5 3 5 6 6 ",
"  % % % * % % % % % * % % % % % % % % % % % % % % % % % * * 2 2 1 1 & - - 1 5 ~.h 5 4 e.OX2 4 6 6 6 4 7 4 6 7 7 j 6 6 6 5 6 6 3 3 3 5 3 3 5 5 7 7 7 7 7 6 6 3 6 5 5 4 ",
"  * % % * % % % % * * % % % % % % % % i % % % % % % % * & 2 2 2 4 1 1 1 1 & P >Xk.h 6 $X#X6 6 7 6 6 6 p 6 6 6 r 6 3 5 7 6 7 6 6 6 6 r 5 5 6 3 3 4 5 7 6 1 3 5 3 3 4 4 ",
"  % % * % % % % % % % * % k % % % % 2 >Xg * 2.% % % & & * * ; ; 2 4 2 3 4 1 k `.k.4 k oX`.6 p 7 p p j 6 7 6 7 3 3 6 5 6 7 7 7 7 6 7 h x 6 5 5 3 5 7 5 7 6 6 x 6 6 5 3 ",
"  * % % % % * % * % * % [ -Xv % % % * ;Xk.i f.h % % * v 3.G.[.{.).E.l.| s 4 6 r.w.h v l.k.6 i 7 6 7 p 6 r r T 5 3 5 7 7 r t j 7 j 7 7 r 7 5 h q 7 5 r 5 6 3 6 6 6 6 4 ",
"  % % % % % % % % * * % 4 oXe.% % * v G.3.i d.v s 6.L.'.).(.E.L.K.(.(.(.(.6.q h L c h 3.w.i i p p h p p 7 7 6 6 3 5 q 6 7 D t j t t r r j t r 7 r q 7 6 6 6 6 i 6 q 6 ",
"  % % % % % % % % * % % % j.P.% % * P r.b * 2.6.7.q.7.s.D.D.D.D.G.G.K.G.K.K.K.q.z 4 s v P i 7 k h.j p 7 6 6 6 5 6 6 j r 7 7 D D D t r D D D t t 7 r 6 7 5 6 6 6 5 4 6 ",
"  % % % % % % % % % * 2.* { h.* * * L P i z 4.4.6.8.7.q.s.B.S.D.D.H.H.H.H.G.D.D.L.q.f i p 2 p P.{.h 7 6 5 5 3 6 7 7 r r r t F t t r D t j j t j r 5 r 6 6 7 6 6 4 4 6 ",
"  * % % % % % % % * % 3.b P d.4 % % z v g / / 2.6.6.7.q.q.B.B.B.B.B.B.B.B.D.D.D.D.L.L.u.A i k s.~ 4 1 3 6 7 7 7 k t x t t F j t r t D D t a D t t 7 5 5 5 6 6 6 4 6 6 ",
"  % * % % % % % % % * _.[ v -.h * % , , b / 4.4.6.6.7.a.a.u.u.N.B.B.B.B.B.B.B.B.B.D.D.L.D.D.| L 4 4 5 5 7 7 7 7 7 h 7 r r r 7 t r t t D t t r r r r 7 7 6 6 6 6 6 4 2 ",
"  % % % % % % % % % * L. .s  .h % * % m Z / / / / / ( 6.q.u.s.u.q.u.B.B.B.B.B.B.B.B.D.D.L.(.).S.q 6 7 i 7 7 } { 7 6 ..r r 7 6 7 5 r 5 7 G r t q r 5 0 7 6 7 6 i 6 4 ; ",
"  * % % % % % % % % % a. .q ~ c % % f Z Z Z S S ^ / / / o.0.m.u.q.q.q.n.B.B.B.B.B.B.B.D.L.(.[.+XXX0.i 6 i p  .[.h x +XG 5 5 7 0 7 7 q 0 j r 0 5 5 7 7 5 7 6 7 p 6 6 2 ",
"  % % % o % % % % H } H { q x E % ; g Z A S S S ^ ^ ^ / / / q.u.u.q.q.q.u.u.N.B.B.B.B.G.).[.[.XX+XXXL.A 6 7 x a.! | (.j 5 r h E r r 6 r Y r r 5 5 5 r 5 5 6 c 6 i 6 3 ",
"  % % % % % % % % c t.q [ x 4 G s d g Z S S S S S S S ^ S / / 6.u.u.q.q.9.q.u.u.B.S.D.K.(.).'.'.'.[.{.'.S.c 6 L z 2.2.0 6 r r j 7 7 x q T r r 6 6 5 8 5 5 7 v 6 6 1 - ",
"  * % * % % % o % & } q h T & l w f Z A S S S S S S S S S S S X.4.6.q.q.9.9.9.q.q.N.S.H.G.B.D.H.D.H.(.).].].q.d s z q 6 6 7 7 h H h 6 5 H r r j r 5 3 5 7 6 5 4 3 1 & ",
"  * % % % % % % o o N l % x y & f m A A Z Z Z S S S S S ^ S S S S 4.q.q.8.9.9.9.9.q.u.s.B.s.q.q.N.b.B.D.L.(.(.H.A i ; 6 5 6 t h 7 7 j 7 r r p r 6 5 5 6 5 6 5 5 6 1 3 ",
"  % * % % % % % % % * z 3 - l 9 f m Z Z m Z S S S S S S S S S S S S 2.q.9.8.8.8.9.9.9.q.u.u.9.8.9.9.q.b.b.B.B.B.H.b.q 6 7 7 7 7 6 6 j 7 7 r 6 6 5 3 h 7 5 5 5 3 6 3 3 ",
"  * % % % % % o % % o - e % 0 w f M Z Z Z Z Z S A S S S S Z Z V S S 4.6.8.8.6.6.6.q.q.q.q.q.9.6.8.6.6.9.9.9.b.b.b.N.m.M 6 7 7 t x 7 7 7 6 r 6 r 3 h 7 6 T 7 6 - 3 3 1 ",
"  % % % % % o % o % % 8 3 8 = d m Z Z Z Z S Z S S S S A Z Z Z Z A A / 4.4.4.5.5.6.6.9.9.8.6.5.5.6.5.6.6.6.9.9.9.b.b.b.N./ q 7 7 6 r 6 5 q r 7 6 5 3 r 6 k h 6 3 4 - - ",
"  % % % % % o o % o + l $ = - d m Z Z Z S Z S S Z Z Z A Z M Z Z M Z A ) 4.4.4.4.6.+.o.o.5.6.5.5.4.4.5.5.6.5.8.9.5.b.b.b.m.b.l k 5 6 5 7 r 7 7 t r 5 0 5 q 5 3 1 1 5 1 ",
"  % + o % % + o o % % 3 = # : d Z Z Z S S S S Z V V V V m V m m g g n A 4.S 5.X.4.o.o.X.5.X.X.X.X.o.o.5.5.X.5.5.5.8.b.b.5.b.b.m 3 6 j j j j F 7 r r 5 5 3 5 1 - 4 3 1 ",
"  % o % % + % o o o o % $ + 9 d M Z Z S Z S Z Z V V m V m m n n g g f g Z S S X.S X.S S S S S X.X.X.X.X.o.X.X.5.8.5.8.5.b.b.b.b.^ h T h a t j 7 r 6 4 3 3 3 5 5 5 ; q ",
"  + + % % % % o o o % + # + , w f Z Z S S Z Z Z V M C n m n n f f f d d d m M M C m d m S V Z S S S X.X.X.o.5.5.5.b.5.b.b.b.b.b.n.S 5 h p j j 7 6 6 q 3 4 5 2 3 3 - ; ",
"  % % = % % % o o o + o X $ 9 > : f Z Z Z Z Z Z M M m n n n d d d w w w w , , , : : : : , , m m V S S S ^ X.X.X.o.5.5.5.5.5.b.8.b.q.B r p j p 7 r 7 r 5 4 3 4 1 6 3 & ",
"  + + + + % & + o + h ) d ,Xl ` 8 z.n m Z V M M m n n f d n w w , , , , , : = = # # O = = : : : , , n M V S S X.X.o.o.5.5.b.5.5.9.9.9.q j 7 p 7 7 7 7 7 5 1 6 4 1 3 1 ",
"  + & % & + @ + o % G.:XE.|.E I > Y.Q z.V m M m n n n w w w , , , , : : : = = = = O O O O = = : : : : > 9 d M V S ^ ^ / $.+.$.$.y.y.q.K.A.j H *Xh 7 6 6 4 2 1 5 4 6 3 ",
"  % + @ & % % 1 | G ~ .Xg.Z.I j y z.$.z.$.]...e C V w w , , > > : : = = # # # # O O O O O # # = = : : : : > > , m.^ I B ,.x.z.%X&X>. X*X.Xd.f.=Xf.}.#.6 6 4 6 3 2 4 2 ",
"  & & & + + + T <XU.Q.Q.U I :.c.W } }.V.U.p._ S.M.K.> , n : : : : = # O O O O O O O O O O O # O O O = = : > > > J.} J l W ^.<.R.h.&. XA.j.W.|.U.T.A.j D 6 h h 4 1 & & ",
"  & 1 & & G q J.OXW.>.P.t 6 3 ;.~ ,.U.:.I p.R M.%.#.R n M.> = = O O O O X O X O O O X O X O O O O O = = : = M.C.;.i.j G R p./.U U.U.g.W.>.g.=.` g.` U F q 4 6 1 1 1 1 ",
"  & & & @ }.1.Q.R.|.>.j Z.x.0 p s x ` J t V.] R ;.x %.Y Q e C $ O O O O X X X O X X X X X X X O O O O O O # w %.' G <.<.E E =.a >.g.F Z.` F K 7 ` _ 7 q v.R 2 1 4 1 1 ",
"  1 @ @ 3 ;XR.>.A.>.g._ q ;.[ h = 1 p 5 R ] r R Q 0 N 5 0 e $ O O O X X X X O . . X X X X X X X X O O O # $ u <.t 5 %XC.#.} a r &.&.7 &.] u Y.@ j c.Y 1.c.y 6 4 2 2 1 ",
"  < < @ 1 g.>./.Z.t ] _ H - s i - + & r t r 3 u 0 3 8 @ 3 $ $ O X X X X X X . X X . . X X X X X X X O O w %.Y Q R r C.1.i.] 3 7 D j 1 H K 3 :.y q E G @.@.v.] 4 1 ; 1 ",
"  1 & & &XA.F J =.G q h h s = = X X + 1 4 + - 5 $ 3 0 X $ O X X X X X X . . . . . . . X . . X X X X O X # N y y 3 0 J J J J O 3 4 3 + 6 h - x z 4 s O.,.W ' 6 4 4 4 2 ",
"  * % % r :.J 5 G r + - ; & o . . . O + + . O - O $ $ . $ X X X O X . X . . . . . . . . . . . . . X . O > e 8 y u ^.r t 7 7 + @ o o . = ; ; ; 4 O - Y d N O.5 4 6 4 2 ",
"  @ & + O & 5 3 3 - % . . . . . . . . . X . X o X X O X X X . X X . . . . . . . . . . . . . . . . . X = O O $ # $ 1.E < 3 @ + X . . . . . X . o . o & & 0 e 3 6 i 2 4 ",
"  * @ o + X X X O X X . . . . . . . . . . . . . . X X . . . X . X . . . . . . . . . . . . . . . . X . O O # $ O X y a 5 X O X . . . . . . . . . . . X O O O X + 2 2 2 ",
"  % % % o o X . . X . . . . . . . . . . . . . . . . . . . . . . . . . . . . . . . . . . . . . . . . . X X X X X X . & @ + . . . . . . . . . . . . . . . . X o 1 2 2 2 ",
"  % % % % o . X . . . . . . . . . . . . . . . . . . . . . . . . . . . . . . . . . . . . . . . . . . . . . . . . . . . X X . . . . . . . . . . . . . . . . X & 2 6 2 2 ",
"  % % % . . . X . . . . . . . . . . . . . . . . . . . . . . . . . . . . . . . . . . . . . . . . . . . . . . . . . . . . . . . . . . . . . . . . . . . . X . . + 2 2 2 ",
"  % % % o o X . . . . . . . . . . . . . . . . . . . . . . . . . . . . . . . . . . . . . . . . . . . . . . . . . . . . . . . . . . . . . . . . . . . . . . . o 2 i 2 2 ",
"  % % % % % % o X . . . . . . . . . . . . . . . . . . . . . . . . . . . . . . . . . . . . . . . . . . . . . . . . . . . . . . . . . . . . . . . . . . . . X 2 2 2 i 2 ",
"  % % % % % % % % % o X . . . . . . . . . . . . . . . . . . . . . . . . . . . . . . . . . . . . . . . . . . . . . . . . . . . . . . . . . . . . . . . X + 1 1 2 2 2 2 ",
"  % % o % % % % o % % o % % o o o X X X . X o o X o X X o o X X . X X X X X . . . . . . . . . . . . . . . . . . . . . . . . . . . X . . . . . X O % & & * & & * 2 i i ",
"  % % % % % % % % o % % o % o o o % % % % % % % % % % o o o % % % % o % % % % % % % o % o o + % % & % % % + & & % % & & & & % & % % & & % & & & + + & & & * * 2 * 2 2 ",
"  o o % % % % % o % o % o % % o % % % % % % % % % % % o % o % % % % % % % % % % % % % % % % % * % * * % % % % % % : % % ; * * * % % * % % % ; % % = & % % & & * * 1 2 ",
"  o % % % % % % % o % % o o % o % % * % % % % % % % o o % % % % * % % % % % % % % % o % % * % % * % * * % % % % % % % % * % * % % * * % % % * * % % & & & ; * * & * * ",
"  o % % % % % % o % % o o % % % % % % % % % % % % % % % % % % % % % % % % % % % % % o % % % % % * * * % % % % * % % % % % % * * * * % % % % % % = % % % & 2 * & * * * ",
"  % % o o o o % o % o o % % % o % % * % % % % % % % o % % % % % % % % % % % % % o o % % % % % * % * * * * % % % * % % % * % % % % % % * ; % % % & % % * & ; & * * * * ",
"  % % o o o o % % % o o % % % % % * % * % % % % % % % % % % * % % % % % o % % % o % % % % % % % * % * * % * % % % % % % % % % * * % % % * * % * % % * % % * * * * & * ",
"  % % % o % % o o o % % % * % % % * * % % % % % % % % * % % * % % % % % % % % % o o % % % % % % % % * * * % % % % % * % % % % % % % * % % * % % * % % * * * * * * * * ",
"  % % o % % % o o o % % % % % % * * % % % % % % * % * % % % % * % % o % % o % % % % % % % % % * * * % * : % % % % % % % % % % % % % * * % % * % % * % * % * % * 1 * * ",
"  % % o % o % % % % % % % % % % % % % % % % % % % % % % % * % % % % % % % % % % % % % % % % % * % * * % * * % % % % % % % * % % % % % % % * % % % % % % % * * * 2 * & ",
"  + % % % % % % % % % % % % % % * % % * * % % % % * * % % * % * % * % % % % % % % % % % * % % % * * % % * % % % % % % % % % % % % % % % % % % % % % % % % * * * * < & ",
"  % % % % % % % % % % % % % % % % % % * * * % % % % % % % * * % * * * % % % % % % % * * % * * * * % % * % % % % % % % % % % % % % % % % % % % % o o % % % * * % & & & ",
"  % % % % * % % % % o o o % % % % % * % * % % % % % % % % * % % % % % % % % % % % % % * * * * * * % % * % % % % % % % % % % % % % % % % % % % % % % % % % % % % & * * "
};
