/* XPM */
static char *Component_21696780321[] = {
/* columns rows colors chars-per-pixel */
"82 75 127 2 ",
"   c #0E0F00",
".  c #0E1201",
"X  c #0D1C01",
"o  c #131400",
"O  c #151B04",
"+  c #181C03",
"@  c #141E08",
"#  c #251B02",
"$  c #341F02",
"%  c #3F1C01",
"&  c #0E2101",
"*  c #162106",
"=  c #1A2206",
"-  c #162309",
";  c #192509",
":  c #17280C",
">  c #1B2B0C",
",  c #16350D",
"<  c #1D320E",
"1  c #153B0E",
"2  c #1C3A0F",
"3  c #1B2711",
"4  c #1D2C12",
"5  c #1E3411",
"6  c #1F3911",
"7  c #272104",
"8  c #20250E",
"9  c #342404",
"0  c #322805",
"q  c #372D0A",
"w  c #20340E",
"e  c #222E14",
"r  c #223413",
"t  c #213B12",
"y  c #263519",
"u  c #29371B",
"i  c #263A19",
"p  c #293C1A",
"a  c #401D00",
"s  c #4C1D00",
"d  c #4F2303",
"f  c #442D0A",
"g  c #512403",
"h  c #522C09",
"j  c #5E3A13",
"k  c #6B2402",
"l  c #622E07",
"z  c #6E2B06",
"x  c #6B3705",
"c  c #6D3A05",
"v  c #65360A",
"b  c #713309",
"n  c #743A0A",
"m  c #254315",
"M  c #2B421C",
"N  c #2C4423",
"B  c #2E4B27",
"V  c #394E2D",
"C  c #474509",
"Z  c #534606",
"A  c #544807",
"S  c #554908",
"D  c #714207",
"F  c #724308",
"G  c #764B0A",
"H  c #6F5505",
"J  c #6F5805",
"K  c #6B6B60",
"L  c #787870",
"P  c #872802",
"I  c #892C04",
"U  c #992F01",
"Y  c #8C3106",
"T  c #973D02",
"R  c #A62E02",
"E  c #A82F02",
"W  c #A73103",
"Q  c #A93303",
"!  c #AA3906",
"~  c #AB3708",
"^  c #B33602",
"/  c #C22F00",
"(  c #C43301",
")  c #C63C04",
"_  c #D43F03",
"`  c #E03601",
"'  c #FD3800",
"]  c #894304",
"[  c #8C4A06",
"{  c #9A6F03",
"}  c #A77402",
"|  c #A87401",
" . c #FD4400",
".. c #FD4B00",
"X. c #EF5001",
"o. c #FD5300",
"O. c #FD5F00",
"+. c #C57D00",
"@. c #FD6400",
"#. c #FD6C00",
"$. c #FE7400",
"%. c #FE7E00",
"&. c #C48300",
"*. c #C78B02",
"=. c #FE8600",
"-. c #FE8E00",
";. c #FE9300",
":. c #FF9A00",
">. c #C4B600",
",. c #FFA100",
"<. c #FFA900",
"1. c #FFB100",
"2. c #FFC200",
"3. c #FFD200",
"4. c #FFDB00",
"5. c #FFEC00",
"6. c #FFE040",
"7. c #FFE150",
"8. c #FFF460",
"9. c #A5A59F",
"0. c #C4BE80",
"q. c #FFF580",
"w. c #FFF79F",
"e. c #C4C4BF",
"r. c #FFE9BF",
"t. c #FFFABF",
"y. c white",
/* pixels */
"o o o         o o o o + o o o + @ O + ; # ; + + ; + + O + O   o O + + + + + + + * = * * * * ; * * O X o @ @ - : - : > > ; - - > > : : - ; > : ; > > w > : r > > > w ",
"o               o o o o o   o o O O + + = ; = = 7 + + O o O O o + O + + + + = ; = = = = * ; ; * * * 3 - @ O - - e ; - ; ; : - > - - ; > = > ; ; w ; ; ; - : ; > ; w ",
"o o o . o     o o o o o o o o o o O O @ = @ + + * + O o O o + O o + O + + = + ; = > = = = ; ; * = > > > e * : : > y - : : @ ; > : - > : : : = : ; ; > w : : : - ; - ",
"o o o o       o + o o # O o o O o o O O + + + 8 = + + O + O O O O + + @ + 8 = = ; ; ; = ; ; ; ; = : > > : > u > > : - : - - : > 4 - @ - > > e : ; ; > ; - - - - * * ",
"o o o o o o     o o o o o o o O + o o o + O # @ O + O o O + O O * * * + + = ; 8 ; ; 8 > ; = ; ; ; > 8 > > > > > 4 : : : @ - - 3 4 e - 4 r - : - - - ; ; - @ @ @ * e ",
"o + o o o o   o   o o o + o o o o O o o o O @ O + O O @ O o O O + + * + + + = = * ; 7 > ; ; - ; > > > w w > > 8 5 : @ @ - - - - > : > 4 i > - O ; : > ; ; @ @ @ O * ",
"o o o o o o o o       o o o O o o O O o o o O O o @ O + O o O O + O + + = = = = * * ; * ; * = ; ; > > > ; ; < t B : - @ : : - 3 - : r > > : @ - ; < y : * O X . O - ",
"o o o + o o o       o o o o o o o o o o   o @ o O o o O @ o O O O O O ; ; + + = = * - * O * ; = ; ; > : > w > w 3 : - @ @ : - - ; > > > : - ; : > > y ; - * @ O @ - ",
"o o o o o o       o     o o o o o o o o   o o . o O o o o O + ; @ @ o @ * ; + * ; ; + * = = > > 8 > > > > u > < 4 5 @ - - : - - > > > < > ; * > > < > ; - @ . @ O O ",
"o o # o             o o o o o o o   o       o   o . o O o + + + * + @ O + = + @ + @ o * = ; p > ; w > : > < < < > : - 4 4 < : : ; i < < > : ; : > > ; - - @ @ . X @ ",
"o o o o o           o   o     o o o o o o   o O X o o @ @ O + * * 7 = * * * @ O O O @ @ = ; = w > ; > : : - 4 > : > : > > < : - > < w w > ; ; ; : ; > e : @ O O @ @ ",
"o   o o o o           o     o o o   o o o       . o O @ + + + = ; ; = = * + @ O . O = + = ; 8 ; > = : < - - > > : > > : > < : : > > < > ; ; ; > ; > : ; - - - 3 - @ ",
"  o o o           o     o o o o o o o o o   o   o o @ O = + = = + ; ; = = = - * @ @ + = = > = ; w ; > q h j h f > < < > 5 > > > > > > > ; ; ; ; > > > < ; ; ; - - : ",
"                o   o o o     o o o o o o o     . @ O O + + + = ; = = = = = O O + ; = * 8 = w > w ; > ! ' ' ' ) < t 5 > y > < : > ; = ; > ; w w > ; ; > > * ; - > ; ",
"  o         o       o         o o o o o       o o o O O + = * 7 = = = = = = O O + * = + ; ; 8 ; ; - > Q ' ' ' ( < < M t < > < - > ; = ; ; > w > > > > > : * - - = O ",
"      o o   o o o         o   o o o o o o       o o o + * + + = = 7 = = = O O + @ @ = = * ; = ; ; @ ; h z b n v > < < < 5 < > > > ; ; > w w w 8 w ; > > : - - ; - @ ",
"  o   o o     o o o     o o o   o o o o     o   o o + + o + + = = ; @ = = + @ @ * * ; = * = = * * : = > : < w > r w t w M > : : > ; w > w w w w > > > w > > : * - - ",
"o o o o o # o o o o o o o o       o o o o     o     o o o + = + = = + = @ * @ - ; * ; + + @ = * = ; ; : w < w w < t t < < > ; > ; > > > 8 > > > ; w > > : > w e ; 3 ",
"o o o o o o # o o o o o o o o o   o # o o o   o o     o o O @ + + ; = 3 = = O O + + @ @ O @ = ; ; ; > > > < > > < > : > ; ; : > > > > 5 > w : < w w w > > < 5 4 ; - ",
"  o o o o # o o o o o o   o o o       o o o   o o a s s d a O @ + ; = : @ O O O O @ @ O @ = ; ; > ; < > > > > < > i > > - ; : ; : > 5 3 y < > w > w > w < > ; - : : ",
"  o o o o o o o o o o o o o o o o   o o o o   o o / ' ' ' R + O @ O O = @ O @ = ; = ; @ > w * ; > > > r > : 5 5 < < < > : ; : ; - 5 p : > 4 5 6 > w < < : > : : : > ",
"o o o o o o # o + o o o o o o o o # o   o o o o o / ' ' ' Q = * ; @ @ O @ @ - : > ; ; > ; ; > > > : > > : w 5 t > : > : : : ; - - : - - : : 4 , > w < > > : > : > ; ",
"o o # o o o o o # o o o o o o o o o #   o o o o o / ' ' ' R = ; ; = : = O - = ; ; w > w w > < > w w > > > > < > : ; < > 5 > > > > 5 : : : - - - : < > - - : - - : = ",
"# o o o o o o o o o o o # o o o o o o   o o   o o ( ' ' ' R = ; = @ = ; - @ = > ; > w w w > w < w w w u > 4 > - ; : > 5 < 5 > < < 5 i > : : - - > > < > > 5 3 > > - ",
"o o o o o + o o # o o o o o o o # o o o o o o o # # % $ 9 $ * = = = ; @ - > U ` ` ` ` ` ` ` ` > 5 < > < < N 4 - : > 5 5 t 5 5 5 6 5 p 4 4 6 < 5 4 > : : : > : > > ; ",
"  o o o o # o o o + + o + o o o o o o o o o o o o o + + = = = + = ; ; = = : E ' ' ' ' ' ' ' ' w r < < < < : > : > > > , m t t t 6 6 5 5 5 5 4 , y 5 > > > : < e > : ",
"    o o o o o o + o o o # o o o o o o o o o o o + o O + + @ + @ @ = = = : > ~ ' ' ' ' ' ' ' ' w < t < > > > - > > i < 5 5 m m m B 6 t M 6 m 6 5 < < < : > > > ; = > ",
"o   o o o o o # o o o # o o + + o o o # o o o o o o + O + + @ @ @ ; = : ; > Q ' ' ' ' ' ' ' ' > > < > > : : > < 4 6 5 5 6 m t t 6 t m 6 6 6 i 5 > 6 > > w > > ; ; > ",
"o o o o o o o o o o o # o + o o + o o o o o o     o o o O a P P I I = ; ; > l I I I ^ ......o.Y Y I I f < < < < p 5 6 6 m 6 6 5 6 6 m 6 m t 6 6 5 > - : > ; > ; ; > ",
"+ o o     o o o o + o + o o # o # o # o o o o o o + + o o k ' ' ' ' + ; > > > ; ; ; x @.@.@.@.' ' ' ' b < < < > 6 5 5 6 5 5 6 6 N 6 6 m t 5 5 5 5 5 4 5 ; > > > ; = ",
"o o o o o o o o o # o o + # + + o o o o o # o o + o + o o k ' ' ' ' * ; > ; = ; r : c @.@.@.@.' ' ' ' b w w r < 5 5 5 , : , 5 : 6 5 5 6 5 i 4 1 4 , > > w > y ; > - ",
"o o # o o o o o o o o o o o o o o + + o + o + + o + o + O k ' ' ' ' * * ; ; * = ; : c @.@.@.@.' ' ' ' b t < > 5 < 3 5 4 : 4 3 5 4 : : 6 , 4 : : > 4 4 , < > w > w - ",
"o o o o o o o o         o o o o o + # o + o # o + a s d g U  . . . .O @ @ - 9 d d d T @.@.@.@. . . . .b > < w < w > : - 5 5 B 5 5 > 5 N 5 , : : : 5 3 : < w > > > @ ",
"# o o o o   o o o     o o o o + o o o o o o o + o ( ' ' '  .@.@.@.@.O O O O R ' ' ' ..@.@.@.@.@.@.@.@.G w w > < 5 > - < 4 , 6 5 < < : V 4 5 , > : : : : > y > > = - ",
"o o o o o o o   o   o         o o o o + + # o o + / ' ' ' ..@.@.@.@.* + * - W ' ' ' ..@.@.@.@.@.@.@.@.F w w > : > : > 4 > < 5 t 5 < : M 6 6 6 4 : : > 5 > > ; @ - @ ",
"+ o # o o     o o o         o   o o o o o o + o o / ' ' ' ..@.@.@.@.; = * = W ' ' ' ..@.@.@.@.@.@.@.@.F > > > y - @ : : < t r 5 > < t > 5 5 5 4 : : > : : : : : @ @ ",
"o + o o o o o o o o       o o o o o o o + o o # + ( ' ' ' ..@.@.@.@.* + ; * W ' ' ' ..@.@.@.@.@.@.@.@.D > : > : - > < < < < < > > t < < 5 > > - - 5 5 > : - - > = ; ",
"o o o o o   o o o   o   o o o   o o o # o o + o o +.:.;.:.=.@.@.@.@.` _ ` ` X.O.O.O.$.,.,.,.,.0 9 0 0 W ` _ ` E 3 > : > 5 5 5 i i 4 < > 5 > 5 : 4 > 3 N < > @ @ - @ ",
"o o o # o     o o       o o o o o o o o + o o o O &.<.<.<.;.@.@.@.@.' ' ' ' o.@.@.@.%.<.<.<.<.O & O @ R ' ' ' ( - - - < > 5 5 > , > 4 > > , > : : 5 > i 5 : ; - @ @ ",
"o     o o o           o       o o o o o o o + o + &.<.<.<.-.@.@.@.@.' ' ' ' o.@.@.@.%.<.<.<.<.O - - : W ' ' ' / > > > < > > r > > > > 4 5 5 6 5 : 3 : 5 : : - ; : - ",
"  .     o             . o       o   o o o o o o o &.<.<.<.;.@.@.@.@.' ' ' ' o.@.@.@.%.<.<.<.<.@ - - : ~ ' ' ' ( > > > > > > - - > t 6 t t t < 5 5 3 - - : : @ - ; = ",
"  o . o o         . . . o o o         . . o .     &.<.<.<.:.=.=.=.=.....o...$.=.=.=.;.<.<.<.<.] ] ] [ _ ' ' ' ( > > > : > ; : : 6 p r 6 t t 5 < > : - - - - - ; - 3 ",
". . @ o . o         . . o o     o o o o . o       &.<.<.<.<.<.<.<.<.@.@.@.@.-.<.<.<.<.<.<.<.<.@.@.@.@. .' ' ' ) > ; > > i < p : > > t w t t r > > 5 > : - - * @ @ @ ",
". . o . o . .     .       o . . o . o X o . o o o &.<.<.<.<.<.<.<.<.@.@.@.@.-.<.<.<.<.<.<.<.<.@.@.@.@...' ' ' ( : N i > r > 5 > > < < t t 5 < < i < > : : = * r - O ",
"@ . . . o o . . . . .   o o o X & X X X X X X o o &.<.<.<.<.<.<.<.<.@.@.@.@.;.<.<.<.<.<.<.<.<.@.@.@.@...' ' ' ( t , 1 2 2 t < t < w < t r w < > > 5 5 > * ; ; ; = @ ",
"@ . o o @ . @ . . .       o X X X X X O X O O O O *.1.1.1.1.1.1.1.1.#.#.#.#.;.<.<.<.<.:.,.:.,.#.#.#.#.o... . .) w , 1 1 , < > < w w < t t r w w > > > - ; ; : > ; = ",
". . . @ . .   . . . . . X o o o O O O o o O o o o >.5.5.5.5.5.5.5.5.<.<.<.<.<.<.<.<.-.@.@.@.@.<.<.<.<.<.<.<.<.*.r > 5 2 1 , < < > > > < < < > w > ; > : : ; ; ; = * ",
"@ o O . O . . . . .     X o X X X O O o + o O o o >.5.5.5.5.5.5.5.5.<.<.<.<.<.<.<.<.-.@.@.@.@.<.<.<.<.<.<.<.<.*.< < < < , , > - > > < w < < w ; > w > > r w = * @ @ ",
"O O O X X . . . . . o . . o o X o + + o + + o + o >.5.5.5.5.5.5.5.5.<.<.<.<.<.<.<.<.-.@.@.@.@.<.<.<.<.<.<.<.<.*.< , < < > > ; : > > r > w ; = = = ; ; ; ; ; = ; * * ",
"@ O O X X .   . X . o     . o o o + o o o o + o o >.5.5.5.5.5.5.5.5.<.<.<.<.<.<.<.<.;.@.@.@.@.<.<.<.<.<.<.<.<.*.> < > w w > * > : : > > w ; w ; ; > 8 r ; = ; = * - ",
"X O X X . .   o . o o     o o o + o o o + + o o o 0.t.t.t.q.5.5.5.5.r.r.r.r.7.4.4.4.2.:.:.;.:.<.<.<.<.{ A S S C > w w > < < : ; - > 3 ; ; ; ; = ; = = ; > = ; = * ; ",
"& & & . .   . o X         o   o o # o o o o o     e.y.y.y.w.5.5.5.5.y.y.y.y.8.5.5.5.3.<.<.<.<.<.<.<.<.H = = > ; w > w ; w : : * @ - = ; ; 8 = ; ; = = ; ; = ; = + @ ",
"& O O o .         o       o o o # o   o   # o o   e.y.y.y.w.5.5.5.5.y.y.y.y.8.5.5.5.3.<.<.<.<.<.<.<.<.J * : > > > > > > y - * : ; @ @ ; - = = @ ; w * > * ; w = > = ",
"O O o X   .       o   o o o o   o o o o o o       e.y.y.y.w.5.5.5.5.y.y.y.y.8.5.5.5.3.<.<.<.<.<.<.<.<.H ; ; ; > ; : : ; : - * - ; @ ; @ @ O @ - = ; = > * = = ; ; ; ",
"X X o o o o o o o o   o   o o o o   o   o     o   L 9.9.9.0.8.8.8.8.y.y.y.y.w.8.8.8.6.2.2.2.2.} } | } Z 8 > > ; ; 8 y * - ; - ; ; O O ; @ O O O * * * * = = ; ; ; = ",
"@ o o o o o o o o o o o o o o     o   o o o o   o   o o   K y.y.y.y.y.y.y.y.y.y.y.y.w.5.5.5.5.+ O @ @ = ; 7 = = ; ; = - - * : : @ y @ = O O - @ + * * ; ; * ; 8 = = ",
"o o o + o o o o o o o o o o o     o   o o o o o o         K y.y.y.y.y.y.y.y.y.y.y.y.w.5.5.5.5.O O - = > 8 ; = ; = * ; @ * * ; ; ; ; + = @ O O . X O * = ; ; 7 ; = = ",
"o o o o # + o o o o o o o o     o o o       o o o o o o   K y.y.y.y.y.y.y.y.y.y.y.y.w.5.5.5.5.+ O O O = ; ; + = + = ; * * > ; @ @ ; ; ; @ O @ O O O * = = = > ; 7 = ",
"o o o o o o o o o + o o o o o     o             o o o o o K y.y.y.y.y.y.y.y.y.y.y.y.w.5.5.5.5.@ O O o @ + @ @ @ @ * * ; ; * ; + @ + > ; + O O o O X = = = ; > = = = ",
"o o o o o o # o o o o o o o o   o o o   o # o o o o o o o   o   o o o o o o o     o o o o O O O o o O + @ + @ O O @ + * * + ; @ @ @ = + @ @ @ o o @ = = = = 7 ; = = ",
"+ o o     o o o o o o o o o o   o o o o o o o o o o o o       o o o o o o + o     o o O o o o o . o @ O O @ @ O O O * @ + @ O + @ + @ @ o @ O @ . O @ @ = = = ; ; = ",
"o o o o o o o o   o o o o o     o   o o o o o o o o o   o   o         o o o   o o o o o @ o @ o o @ o O @ O + O o O + O O O O O @ @ + @ @ @ o @ @ - + O + * * = ; = ",
"  o o o o o #     o o   o o o       o   o o o o o o                   o o o o o o   o     o o o o O o @ O O @ o o O o O O O O o @ O O @ . @ . . o O @ + * O * = 7 > ",
"o o o o o o   o   o o o         o o o   o   o o o o         o o o   o o o o o o o o     .   o o o O O o o O O O @ . O O + O @ o O o o @ o o O . . o O O + + * = = = ",
"    o o o o     o o     o o   o o o o o o o o o       o   o o o o o o o o o o o       o o o + o + + o o   o o o O   O O O + + o + O o o O O o . O O O o O @ @ + = = ",
"    o o o o o         o       o o # o o o o o         o o o o # o o o o o o o o o   o o # o o o o + + + o o O O O   o O o O o o + + O o o O o o . O O O + @ + O 8 + ",
"    o o   o   o   o     o o   o o o o o o o o o       o   # o o #     o o   o o     o o o o + o + + o + o o o o o o o o O + o + o o o + o o O o o o o O * + O + + + ",
"o o o     o             o o o o o o # o o o   o   o   o o o o o o o o   o   o     o   o o o o o + + + o o . o o   + o + o o + o o + o o @ o @ o o o O + + + + + + + ",
"o o                 o o o o o o o # o o o o o o o o o + o o o o o o o     o           o o o o + + + + o O o o o   o o o o o o o # o o o o o o O o O o O + o + + + + ",
"o   o o   o o       o o o o o o + o o o o o o o o # o o o o o # o o o             o o o o o o + o + O + O o . o o o o O o o o o o o + + O O o O O o O + + + + + + + ",
"o   o o         o o o o o o o o o o o o o o o o + o o o o o + o o o   o o   o   o o o # o o o o o + + + @ o o o o + o o o # o o o + o o o O o O O o o + O + + + + + ",
"o o   o o o o o o o o o o o o o o o # o o o o o o o o o o + # o o o o o   o     # o o o # o # + + o O O O o o o o o o o o o o o o o o + o o o o O o o O o + + + * + ",
"  o o o o o o o o o o o o o o # o o + o + o o o + o o o o o o o # o o o o o   o o o o # o o o + + o o + + o o o o o o o o o o   o o o o o o o o o o o + + + + + * O ",
"o o o o o o o o o o o o o o o o o o o + o o o o o o o o # o o # o o o o o o o o o + o o + # o + o + o o o o o o o o   o o o o # o o o o o o o   o o o o o + o + O * ",
"o o o o + o o o o o o     o o o o o o o o # o o o o o o o o o o o o o o o o o o o o o o o + # o o + + o o o o o o o     o o o o o   o   o   o o o o o o o o o O O + "
};
