/* XPM */
static char *result[] = {
/* columns rows colors chars-per-pixel */
"48 48 5 1 ",
"  c #667A31",
". c #5C554C",
"X c #7B7765",
"o c #A09B83",
"O c None",
/* pixels */
"OOOOOOOOOOOOOXooooXXXXooooXXXXooooXOOOOOOOOOOOOO",
"OOOOOOOOOOOOXoooooo.Xoooooo.Xoooooo.OOOOOOOOOOOO",
"OOOOOOOOOOOOXoooooo.Xoooooo.Xoooooo.XOOOOOOOOOOO",
"OOOOOOOOOOXXXXooooX  XooooX  XooooXXXXOOOOOOOOOO",
"OOOOOOOOOXooooXXXXooooXXXXooooXXXXooooXOOOOOOOOO",
"OOOOOOOOXoooooo.Xoooooo.Xoooooo.Xoooooo.OOOOOOOO",
"OOOOOOOOXoooooo.Xoooooo.Xoooooo.Xoooooo.OOOOOOOO",
"OOOOOOXXXXooooXXXXooooXXXXooooXXXXooooXXXXOOOOOO",
"OOOOOXooooXXXXooooXXXXooooXXXXooooXXXXooooXOOOOO",
"OOOOXoooooo.Xoooooo.Xoooooo.Xoooooo.Xoooooo.OOOO",
"OOOOXoooooo.Xoooooo.Xoooooo.Xoooooo.Xoooooo.XOOO",
"OOXXXXooooX  XooooX  XooooX  XooooX  XooooXXXXOO",
"OXooooXXXXooooXXXXooooXXXXooooXXXXooooXXXXooooXO",
"Xoooooo.Xoooooo.Xoooooo.Xoooooo.Xoooooo.Xoooooo.",
"Xoooooo.Xoooooo.Xoooooo.Xoooooo.Xoooooo.Xoooooo.",
" XooooXXXXooooXXXXooooXXXXooooXXXXooooXXXXooooX ",
"O   XXooooXXXXooooXXXXooooXXXXooooXXXXooooXXX  O",
"OOO Xoooooo.Xoooooo.Xoooooo.Xoooooo.Xoooooo.X OO",
"OOO Xoooooo.Xoooooo.Xoooooo.Xoooooo.Xoooooo.X OO",
"OOXXXXooooX  XooooX  XooooX  XooooX  XooooXXXXOO",
"OXooooXXXXooooXXXXooooXXXXooooXXXXooooXXXXooooXO",
"Xoooooo.Xoooooo.Xoooooo.Xoooooo.Xoooooo.Xoooooo.",
"Xoooooo.Xoooooo.Xoooooo.Xoooooo.Xoooooo.Xoooooo.",
" XooooXXXXooooXXXXooooXXXXooooXXXXooooXXXXooooX ",
"O   XXooooXXXXooooXXXXooooXXXXooooXXXXooooXXX  O",
"OOO Xoooooo.Xoooooo.Xoooooo.Xoooooo.Xoooooo.X OO",
"OOO Xoooooo.Xoooooo.Xoooooo.Xoooooo.Xoooooo.X OO",
"OOXXXXooooX  XooooX  XooooX  XooooX  XooooXXXXOO",
"OXooooXXXXooooXXXXooooXXXXooooXXXXooooXXXXooooXO",
"Xoooooo.Xoooooo.Xoooooo.Xoooooo.Xoooooo.Xoooooo.",
"Xoooooo.Xoooooo.Xoooooo.Xoooooo.Xoooooo.Xoooooo.",
" XooooXXXXooooXXXXooooXXXXooooXXXXooooXXXXooooX ",
"O   XXooooXXXXooooXXXXooooXXXXooooXXXXooooXXX  O",
"OOO Xoooooo.Xoooooo.Xoooooo.Xoooooo.Xoooooo.X OO",
"OOO Xoooooo.Xoooooo.Xoooooo.Xoooooo.Xoooooo.X OO",
"OOXXXXooooX  XooooX  XooooX  XooooX  XooooXXXXOO",
"OXooooXXXXooooXXXXooooXXXXooooXXXXooooXXXXooooXO",
"Xoooooo.Xoooooo.Xoooooo.Xoooooo.Xoooooo.Xoooooo.",
"Xoooooo.Xoooooo.Xoooooo.Xoooooo.Xoooooo.Xoooooo.",
" XooooX  XooooXXXXooooXXXXooooXXXXooooX  XooooX ",
"O      OO   XXoooooXXXooooXXXoooooXXX  OO      O",
"OOOOOOOOOOO Xoooooo.Xoooooo.Xoooooo.X OOOOOOOOOO",
"OOOOOOOOOOO Xoooooo.Xoooooo.Xoooooo.X OOOOOOOOOO",
"OOOOOOOOOOXXXXooooX  XooooX  XooooXXXXOOOOOOOOOO",
"OOOOOOOOOXooooXXXXooooXXXXooooXXXXooooXOOOOOOOOO",
"OOOOOOO Xoooooo.Xoooooo.Xoooooo.Xoooooo. OOOOOOO",
"OOOOOOO Xoooooo.Xoooooo.Xoooooo.Xoooooo. OOOOOOO",
"OOOOOOOO XooooX  XooooX  XooooX  XooooX OOOOOOOO"
};
