/* XPM */
static char *Component_61696780323[] = {
/* columns rows colors chars-per-pixel */
"83 73 180 2 ",
"   c #020201",
".  c #060A03",
"X  c #0C0D01",
"o  c #060E09",
"O  c #0B0D09",
"+  c #0D1202",
"@  c #0D1B03",
"#  c #0C140A",
"$  c #0E1A0C",
"%  c #131400",
"&  c #151B04",
"*  c #181C03",
"=  c #12150D",
"-  c #141C0A",
";  c #181E0D",
":  c #0E1D11",
">  c #141710",
",  c #161A12",
"<  c #1A1D14",
"1  c #0E2002",
"2  c #162106",
"3  c #1A2206",
"4  c #132903",
"5  c #16230A",
"6  c #19260A",
"7  c #17290C",
"8  c #1B2B0C",
"9  c #1D320E",
"0  c #1C380D",
"q  c #142413",
"w  c #1D2116",
"e  c #152913",
"r  c #1C2C13",
"t  c #1F2318",
"y  c #172D19",
"u  c #1D2C19",
"i  c #1D3411",
"p  c #1E3914",
"a  c #16311F",
"s  c #1C331C",
"d  c #1F3B1A",
"f  c #21350E",
"g  c #212C14",
"h  c #21261A",
"j  c #252B1D",
"k  c #223513",
"l  c #283513",
"z  c #213B13",
"x  c #2A3A15",
"c  c #23341B",
"v  c #29351D",
"b  c #233B1B",
"n  c #293C1B",
"m  c #1D3B21",
"M  c #272D21",
"N  c #292E21",
"B  c #253120",
"V  c #2C3424",
"C  c #223D21",
"Z  c #2D3924",
"A  c #303727",
"S  c #313927",
"D  c #353D2B",
"F  c #244215",
"G  c #294514",
"H  c #264B14",
"J  c #294F17",
"K  c #25441D",
"L  c #2B421C",
"P  c #274A1B",
"I  c #2A4F1C",
"U  c #2B521F",
"Y  c #254423",
"T  c #2C4423",
"R  c #274A22",
"E  c #2A4B24",
"W  c #214428",
"Q  c #29472A",
"!  c #264D2D",
"~  c #2D4C29",
"^  c #304324",
"/  c #314D24",
"(  c #37402D",
")  c #39422E",
"_  c #344C2C",
"`  c #394C28",
"'  c #2C5325",
"]  c #2F5927",
"[  c #2D532B",
"{  c #2F592A",
"}  c #325727",
"|  c #315D24",
" . c #32552B",
".. c #39512E",
"X. c #345B2C",
"o. c #385C2E",
"O. c #3B4531",
"+. c #3E4933",
"@. c #2A5130",
"#. c #2E5C32",
"$. c #3A5231",
"%. c #325D35",
"&. c #3B5D34",
"*. c #3F5A38",
"=. c #356329",
"-. c #39632E",
";. c #37692C",
":. c #346134",
">. c #3B6434",
",. c #3B6B33",
"<. c #33643B",
"1. c #3C643A",
"2. c #376C3E",
"3. c #386C3A",
"4. c #3E7234",
"5. c #414C36",
"6. c #434F38",
"7. c #415235",
"8. c #415A35",
"9. c #46523A",
"0. c #49563D",
"q. c #445C39",
"w. c #4A5B3E",
"e. c #406C35",
"r. c #43643A",
"t. c #4C613E",
"y. c #436C3B",
"u. c #4B693C",
"i. c #437336",
"p. c #45743B",
"a. c #437B3D",
"s. c #326A42",
"d. c #386E41",
"f. c #3C7442",
"g. c #3A7846",
"h. c #3B7B4B",
"j. c #4E5C41",
"k. c #505E43",
"l. c #4E6240",
"z. c #526344",
"x. c #556A46",
"c. c #4B7443",
"v. c #4D7B45",
"b. c #517445",
"n. c #527D47",
"m. c #557C4A",
"M. c #587C4C",
"N. c #5C7E51",
"B. c #49803F",
"V. c #3E8652",
"C. c #468242",
"Z. c #4B8444",
"A. c #40824B",
"S. c #4B884E",
"D. c #54834B",
"F. c #5A854E",
"G. c #528A49",
"H. c #5A8D4E",
"J. c #4E8E52",
"K. c #5C8650",
"L. c #5D8C51",
"P. c #5E9A56",
"I. c #628D56",
"U. c #658E59",
"Y. c #609555",
"T. c #619D57",
"R. c #649058",
"E. c #669A59",
"W. c #6B9A5D",
"Q. c #64A25C",
"!. c #6E9B61",
"~. c #72A664",
"^. c #70A865",
"/. c #79A76B",
"(. c #7AA86C",
"). c #7CB26E",
"_. c #80B171",
"`. c #83B974",
"'. c #8BC37C",
"]. c #99D389",
/* pixels */
"% + + % X X X % % % % % % % % * % & 2 * 2 * 3 * 3 8 * & & % & % & & & * * * 2 8 3 3 8 3 3 6 2 5 ; 8 8 2 3 & 5 5 5 8 7 2 6 6 6 7 6 r 5 7 2 7 6 5 8 6 6 8 8 7 3 6 8 5 7 ",
"% % % + % % X % % % % % % % % % - % & & 3 * 3 * * * * % & & & & % & * 3 * 6 3 * 3 3 3 3 3 3 3 6 3 2 8 g 8 g 5 8 6 b 7 7 7 ; - 6 7 8 5 r 2 8 8 8 8 5 6 8 8 5 4 7 5 8 2 ",
"* % % % X % % X % % % % % % % * & % % % * * * 2 * * * * * & * & * * 3 * * * 3 3 8 3 3 8 8 3 3 6 3 8 8 8 8 8 9 8 8 8 6 7 r - 5 6 8 5 5 5 7 v 6 5 3 5 6 8 7 2 - 5 2 3 2 ",
"% % * % % % X X % % % % * % % % & & % % & & * * * & & & & & & & ; * 3 * * 3 3 3 3 3 3 6 8 3 6 3 3 8 8 8 8 8 3 8 8 8 6 6 5 5 5 5 5 s 6 6 8 8 6 6 5 5 6 8 5 3 - @ - - 5 ",
"% * * % % % X % X % % % % * % % % = % % % & * & & & & & & % & & & - 2 & * * * 3 3 2 A B 6 8 2 2 8 3 8 f 3 f 8 9 b b 5 5 5 5 7 r 5 5 5 9 9 9 7 2 5 5 6 8 3 6 - 2 & - - ",
"% % % % % % % % X X X X % % % % % % % & % % % % & & & & & - % & & & & & 8 3 * 3 h 0.j.k.j & 5 2 8 8 8 8 3 8 6 f b i 5 5 - 7 8 5 5 6 7 i 9 6 2 5 2 7 b l 6 5 $ & @ - 4 ",
"% % * % % % % X X X X % % % % % % % % % % % % = % % = & - & @ ; & & - & - 2 * < O.9.w.j.k.j 3 8 8 8 8 3 8 f l 8 f 8 7 - 5 5 5 5 5 5 9 8 8 8 5 5 8 9 8 8 6 6 & - & 5 2 ",
"% % % % % % % X % % % % % * % % % X % % % X % % % + % % & % & 2 2 - & & * * & D O.+.5.9.k.j.j 6 8 8 8 8 8 8 f 8 8 r 7 5 e 5 6 5 8 8 8 8 9 8 6 5 8 8 9 8 5 5 & @ @ @ - ",
"% % % % % X % X X % % % % % % % % % % % X X X % % % % & % * * ; 3 3 3 * 3 % V ( O.+.5.+.9.j.j.h 8 8 f 6 8 8 9 8 8 8 7 7 7 8 8 5 5 8 8 9 9 8 6 5 8 8 8 6 2 5 - & % - - ",
"% % % % % % X X X X X % % X X % % % % X % % % X % = % * * * * 3 3 3 3 3 ; j D ( O.+.5.+.5.j.k.j.g 8 2 7 5 5 5 8 8 8 8 8 7 8 8 7 8 8 8 9 8 8 6 2 6 6 8 8 8 5 5 & = - 2 ",
"% % % % % X X % % % % X X % % % % % % % X % X % X % & & * ; * * 3 3 3 3 h A D D D O.+.+.5.6.k.j.j.t 7 8 9 8 7 8 8 8 8 8 8 8 8 8 8 8 8 8 8 8 6 6 6 6 6 5 7 5 5 5 2 2 2 ",
"X % % % X % X % % X X % % % % % % % % % % % % X + - * * * * 3 * ; 3 3 5 A A D D O.O.O.5.5.5.j.j.k.0.r 8 8 8 8 5 8 9 i i 8 8 i 8 l 8 8 8 8 3 3 8 l 8 8 8 8 3 6 8 8 7 5 ",
"% % X % X X % X X % % X % % X % % % % % % % % % % % & & * * * 3 3 3 & N A A D O.O.D 5.+.+.5.j.j.z.k.5.2 8 g 8 8 9 k n 8 r 8 8 9 3 9 8 7 8 8 8 8 8 8 6 8 8 9 2 5 5 2 2 ",
"X X X % % X X % % X % % X X X % % % % % X X X X % % & & * * 3 3 3 3 j A A A D D O.O.D 5.5.D D j.z.k.k.( 6 7 8 l 8 8 9 z z 9 8 8 3 8 3 3 8 3 8 f 8 f 8 6 8 6 2 6 8 5 - ",
"X % % % % % % % % % % X % X % % % % % % % X X X % % % & * * * 3 * < A V V A D O.D D +.D D D 6.j.x.z.z.k.v 6 8 G 9 9 9 9 f 9 8 8 8 8 8 3 f f f 8 g 8 8 8 8 6 6 5 2 5 - ",
"% % X % % % % % % X X X % % % X X % % % X % + + % % % * * * * * ; A V V A A D D D O.D +.D 5.D j.z.x.z.z.0.k 9 9 9 p F z 9 k 8 8 3 8 8 f 3 f 8 f 8 x 8 8 f 8 8 3 8 5 5 ",
"% % % % % % % % % % % % % % % % % % % % % % % % % % % % % % * * t A N A A A D ) ) ) ) ) ) ) ) O.7.x.x.x.k.9.k 8 9 f z i 8 8 5 8 9 8 8 8 8 8 8 8 8 8 f 9 8 8 8 k c 6 7 ",
"% % % % % % * % * % % % % % % % % % % % % % % % % % % % % % * > j N V N V A ) ) ) ) ) ) ) ) ) O.5.0.x.x.x.k.D 8 8 f 8 8 8 5 5 6 6 8 8 6 f 8 f 8 f f f 8 8 9 8 f 7 7 5 ",
"% X % % % * % % % % % % % % % % % % % % % % % % % % % % % > % < j N j N N D ) ) ) ) ) ) O.) ) ) O.6.x.x.x.x.w.c 9 8 9 8 8 5 7 8 6 8 b i 8 8 8 9 9 9 8 9 8 8 9 5 ; 6 8 ",
"% % % % % % % * * % * % % % % % % % % % % % % % % % % % % * % h j j N N N ) D ) ) ) ) ) O.) ) O.5.5.w.b.x.x.x.+.8 8 8 8 9 6 6 g 6 6 b r 6 8 9 n f 9 f 9 8 8 8 8 8 8 8 ",
"% % % % % % % % % * % % % % % % % % % % % % % % % % * * * * > t h j N j V ) D ) ) D ) ) ) ) ) O.O.+.5.z.z.x.z.z.S 8 8 8 6 9 6 5 5 6 e 5 7 7 9 e 9 8 i 8 7 7 5 5 6 8 6 ",
"% * % % % % % % % * * % % % % % % % % % % % % % % % * * * % < < h N N j A ) D ) D ) D D D D ) O.O.O.O.6.z.z.z.z.w.5 6 9 9 9 7 r 8 i 9 7 7 7 5 5 5 8 7 i 5 7 7 5 5 8 2 ",
"% % * % % % % * % * % * % * % % % % % % % % % % % % * % * < < t h h j j A ) ) D D D D D D ( ( ) O.5.O.5.9.z.z.z.z.+.6 9 9 9 9 9 8 i 0 9 8 7 6 5 8 8 i 7 8 8 c 8 8 8 5 ",
"% % % % % * % * * % * % * % * % * % % % % % % % % * % * * < t t j j h N A D ) ) ) D D ) D ( ( ) 5.O.5.5.9.9.j.z.l.j.c 8 z z p p p 8 i n r 8 8 8 7 8 7 6 8 7 8 8 8 8 8 ",
"% % % % * % % % * * % * * * % % % % % * % % % * * * % * * < t < h h j N A ) D ) 5.S D D D D ( 5.5.D D 5.6.9.0.k.j.k.6.7 k z z z z 9 9 i H z i i i 8 r 8 8 8 8 x 8 9 8 ",
"% % % % % % * % * % % * % % % * * % % % % % % % % * * * % < t t h j j N D ) ) ) D S D D D ) ( ) 5.5.5.5.6.9.9.0.j.j.j.B i z F F / p z F z z z z 7 i 9 i 6 8 8 8 7 3 8 ",
"% % % % % % % * * % % * * * * * % % % % % % % % % % % * < < t < h j h A D ) ) ) S 5.5.D D D ) ) D 5.D 5.6.9.9.9.w.j.j.0.r z z l p z p F z z z z p 8 b 8 8 9 8 6 6 3 8 ",
"% % % % % % % % * % * * * % * * % % % * % % % % % % % % < < t t h h j A ) D ) ) 5.D S D ) D ) 5.5.D 5.5.5.9.9.6.9.j.j.0.S p z p z z z z z z F i F i 8 7 8 8 6 8 6 8 6 ",
"% % % % % % % % % * * * * % * % * % * % * % % % % % % % h h < t h h j D ) ) ) ) D D 5.D D D D D ) 5.5.D 5.6.9.6.6.9.0.j.9.r 0 i p p K p F p i 0 i p 8 i r 8 8 8 8 6 6 ",
"% * % % % % % % % % % % * % * * % * % * * * * * % * % % t t t t h h A D ) O.) ) 5.D S ` D S 5.5.5.) 5.) 5.9.9.9.9.9.0.j.w.j 7 i 7 i 0 r n 8 p e r 8 8 r 8 f 8 9 8 8 2 ",
"% % % % % % % % % % % % % % * % % % * % % * * * * * * < t t t t t j N D ( ` ) ) S D ) ) D ) D ) 5.D 5.D 5.9.9.9.9.6.9.0.w.5.e i 8 9 7 e b c i 7 7 8 9 7 8 9 8 f 8 f 2 ",
"% % % % % % % % % % % % % % % * % * % * * % * % % % % t t t < t h t l D ( ( D 5.5.D D ) D ) 5.D 5.5.5.5.O.0.9.9.9.9.9.9.0.0.v ~ r 0 9 b n i 8 7 7 r i 7 8 8 x 8 8 6 2 ",
"* % % % % % % % % X X X % % % % % % * % % % % % * % = < h < t t h t V D ( D ( ( ) D ) D D 5.O.O.5.5.) ` O.9.w.9.9.9.9.9.9.0.5.k i 9 z r i i i 9 7 7 7 e 8 8 8 8 8 5 2 ",
"% % % % % % % X % % % % % X % % % % % % * * * * % & - h t t < t t h A D D ( ( D ) D D D D ) O.) ) 5.O.5.) 9.w.9.9.9.9.9.9.9.9.k i i 8 7 z 9 i i i 6 5 7 8 8 8 8 2 - 5 ",
"* % % % % % % % % X X X X % % X % % % % * % * & v * , t t < t t t t A D D D S S D D D D D 5.) O.O.) O.O.O.7.l.0.9.9.9.9.9.9.0.v 9 8 8 9 9 f 9 i 7 5 8 8 8 7 7 7 7 2 & ",
"* * % % % % % % % % % X X % % % % % % * 3 7.* u._.* < t h h t t t h A D V D D D D D O.D ) 5.` O.) ) 5.O.) +.l.w.9.9.9.9.9.9.0.S 8 9 k 9 9 z 8 9 5 6 n 8 8 5 8 5 8 5 5 ",
"% % % % % % X % % % X % X % % X % % % % ` ].I.Y.I.& h h t t t t t h A D S D D ( D D D D D 5.D 5.) ) O.O.) O.u.t.9.9.9.9.9.9.0.5.8 8 i i 8 9 8 8 5 i 8 8 b 9 8 - 5 5 - ",
"% % % % % % X % % X % X % % % % % % % * * E.P.a.G.e h w t t t < t t A D D D D D D D D ) ) 5.5.O.O.) ) O.) +.t.z.w.9.9.9.0.0.0.0.r 9 9 7 i i i 8 5 7 i i Z i 7 5 e 5 & ",
"% % % % % % X % X X X % + + X % % t._.u.p.~.4.=.a.h w h t t < t w w j D D ( D D D ) D D ) ` 5.D ) D O.) D O.w.z.u.0.9.9.9.9.w.w.v 8 8 9 i i i z e 7 8 7 7 8 7 5 2 6 2 ",
"X X % % % X X % X % X % % + % % % u.`.R.i.T.| H 0 w < h t t t t t < t A S D D D D D D ) O.O.) D ) O.O.D ) ) q.t.z.w.w.9.0.0.w.w.) 8 T i z z F 8 i 9 8 5 5 7 3 5 5 6 5 ",
"% % X % % X X X X % X X % % b / 7.W.G.H.-.;.;.z 5 w t t t t w < w < < h D D D D D D D D D ) ) 5.O.) D O.D O.7.w.w.z.w.0.9.t.t.w.9.r n 9 z z z 9 p 9 5 5 5 5 5 5 6 5 g ",
"O % % = % % X % + X % % % % b.H.e.E.p.P.Z.F F J.B h t t t t t w < w < < j D D A D D D D 5.) D D D V D O.) O.7.w.0.t.t.w.w.w.t.z.j.c i z z k z 9 8 8 8 7 8 5 5 2 5 - - ",
"X % % % % % % X % + + + X % !.P.e.=.B.>.C.,.8 Y t t t t t t w t w < w < < N D D D D D O.) D D ) D D O.D O.) 7.9.q.w.t.z.t.t.w.t.w.S 8 9 z z f 9 n 9 9 8 8 5 6 5 9 3 & ",
"% O % % % % % X + + X X % X c.B.H.Y.i.H ;.| } q < t t t t t w w < w < w < w V D D D D D ) D ) ) O.D D ) D O.5.9.9.9.t.t.w.z.w.t.j.9.8 k z f f 9 9 9 k 8 5 5 6 6 3 3 - ",
"2 + + & % @ % X % + X X % r.i.| I Z.p.P s.K L r t t t t t t t < w < t < < < h A D D D ) D ) ) D D D O.D O.( +.7.9.9.0.w.9.0.t.w.k.w.v f F f f f 9 8 8 f 6 5 5 6 7 8 2 ",
"+ & % & = % + + + + + + % L.Q.a.0 #.g.' V.#.T q h t t t t t t t < t < < < < < N A D D D D D D ) D O.D O.D O.+.6.9.9.9.w.0.9.w.0.t.w.S 8 f f f 8 9 8 8 8 6 6 6 6 3 3 2 ",
"& & & + + @ + @ + + + + @ & } ] ' K A.d.f.<.g.w t t t t t < < t t t < < < < < h A A D D j D D D D D D O.( ( O.5.5.9.9.q.9.9.0.0.w.w.9.g f 9 8 8 8 8 8 8 8 k k 3 2 - 4 ",
"& & & & @ + X + + + + + + b.n P P 9 2.:.#.` C w t t t t t t t t < < < < < < < t A D D D t A D D D O.D D ( ( ) 5.5.9.9.9.9.9.7.0.9.w.9.v 9 8 8 f 3 3 8 3 6 3 6 6 2 2 & ",
"@ & @ @ & + X + @ % % % X W.F.H U 9 R ~ h.%.w t t h t t t t t t < < < < , < < w V D D D D D D D O.D D O.) D ) +.+.j.+.6.j.j.+.j.9.j.9.D 6 g 8 3 3 8 8 8 l 3 5 2 6 & * ",
"2 & @ @ + % X % % + % 3 ^ n.P.4.F f.3.R %.2.< w t t t t < t < < < < < < < , < < N A D D D D D D D O.O.D ( ) ) +.+.+.j.+.+.6.6.+.9.j.j.5.6 8 3 8 3 3 3 3 6 6 6 3 2 3 5 ",
"1 1 @ % + X + + % % X (.'.T.4.,.=.=.-.n l g w h h w t w w w w w h < < , < , , < N A D D D D D D O.D D O.) ) ) +.+.+.j.j.+.j.j.+.9.9.0.0.v 3 8 8 3 3 2 2 3 6 6 3 2 2 4 ",
"4 & & @ % X X % % + X g M.Z.;.J 9 - ; l 2 = w h w h h w t w < < < < < < < , < < N A A D D D D D D D D D ( ( ) O.+.j.+.+.6.+.j.6.9.0.9.0.V 2 3 3 3 8 6 6 3 3 8 6 6 l 2 ",
"& & % % % + + + X % % k y.^.,.F 9 Y b z w = < v r.w r t j u < w < , , < , , , > h A A A D A S D D D D D D D ( O.+.+.+.O.6.j.+.6.9.9.9.9.) - & 3 2 2 6 6 8 & 3 8 6 3 3 ",
"@ & @ % % % % % % + ` n.;.G.a.| S.A.X.x l _ h I.F.g | g %.%.< m j ` X.> , , > < t V A A A A A A A D D D D D D ) O.+.+.j.6.+.6.6.9.9.9.9.5.@ & - & 2 3 6 3 6 3 3 8 3 8 ",
"& @ % % % % % % + % `.).Z.>.F 9 5 q e 8 u.`.v.P.y.P J , <.d.Q d.W.W.X.$.Z /.$.> ; 5.D A A A A A A A A A D V D D ) O.+.+.+.6.+.6.6.6.6.6.9.5 & & - & 5 2 8 8 3 3 3 3 3 ",
"% + % % % % % % % % ^ L.p.D.y.] Y k b 8 w U.G.,.p.z z e #.c.K.:.p.o.' U.n.I.r.n B !.t.N j A N A V V A A V D A D D ) ) O.+.+.+.+.6.+.+.5.+.j - - & & - & 3 3 8 3 l 3 3 ",
"% % % % * % * % % % 8.M.e.m.F.K ' ~ <.<.P <.' ' =.R %.C R X.v.P I m.d v.{ >.~ &.1.c.&.$.q.V N N M M V N V V V A D D D ) O.O.O.O.O.I.N.( ) *.Z & @ r ; * 3 3 3 3 3 8 3 ",
"% % % % % % % % *  .r./.c.n.y.p F ..%.<.Y s.p 9 7 9 [ E d ! ] p p c.] ' >.~ E y.E '  .r.$.j j j M M M M M M V V A A A D D D N.U.$.I.M.Z E !.!.r w ,...- 3 3 3 8 3 3 3 ",
"% % % % % % % % % b.c.F.c.X.>.p 9 c [ ! ! @.W q @ . r r w 9 i 7 s [ d e [ d i Y 7 p Q d e i q h M M M h M M M M M M A V s d m d.>.,.r.c.E v.v.b.X.} U.T 6 3 3 3 3 3 3 ",
"% % % % % * & & h T T r.R K R d Y s d B C b ! W ! i $ - % @ 5 1 p p 5 y d e 1 e @ 7 s 1 7 q q < < < t h t t h M M M M M g s m Z E P K 3.R  .T r.z T &. .r l 3 6 3 8 3 ",
"% % % % X % % g N.$.K 1.K 7 5 5 b b e W m t s s s u q + . X + - 5 5 # 5 r 5 $ m + + y q > > w a < < < < t < t h h h s W u q 6 i d 7 7 Y 7 [ E ! Y *.p d q._ * 3 3 3 3 ",
"% % X % % % % ; *.~ s C K 1 # o # q - q y > - = # - # % .   . # + + . # - # # a # . q q : q a q > , , , , , , , q < q m s , y m $ + 7 7 1 C d 5 Y Y - d Q 6 & 3 3 3 3 ",
"% % % % + u $ _ b s b 1 @ s s q . + X X # X X X O . . .     . . .     X + + . $ # . # # # : : # O > > > > > > > : a y q q , e e . . m 5 $ e q @ i y X 7 e * * 3 3 3 3 ",
"X % % % % c q 5 s , y q # o $ $ = #     . . . . X .                   . . . . X . . . o : o # : : O O O O O O O = > : $ : # # # . : : . $ $ @ o $ $ o + % & * * 3 3 3 ",
"X % % % % h > > $ $ # $ # +   . . . .                                         .     . o O O O o   . o o o O O O O O = o : # O . . # X . o X . . X . . . . % 3 & & 3 * ",
"X X % % X = + = = O . . . . . . .                                                         . . .           . .   . o o .   o       .   . . .       . . . . & * & & * 3 ",
"% % % X X . .   . . X   .                                                                   X                     . .                                   . & & * * & & ",
"% % % X o .                                                                                                                                             . % & * * * * ",
"% % % + X . . .   X X   X X   X . . X X   X X X X X X X . . X . X X X X X X X X   . X   X X X X X X X X O . X   X   X X X X   X X X X X X X . . X X . X % * * * 3 * * ",
"% X + % X % % X X X % % % % % % * & % % % % % % % % % % % % % & % % % X X X X % % + % % % % % * % % % * & % % % % % * % % % % % % % % % % % % * % & % & & * % * & 3 * ",
"% X % X % X % % % % % % % % % % % * % % % % % % % % % % % % * % % % % X % X % % + % % * % % * % * * & & * % % % % % % % % % * % % % * % & % % % % & % % * & * * * * & ",
"% % % % % + % % X % % % % % % % % % % % % % % % % % % % * * * % % % % % % % % % % % % % * % * % * % % & & & % % % % % % % % % % % % % & % & % % % & % * % & * * & 4 & ",
"% % % % % % % % % % % % % % % % % % % * % % % % % % % % % * % % % * % % % % % % % % % % * % * * % * % % % % * % % % X % % % % % % % % % % % % % X % % % % * % * & & & "
};
