/* XPM */
static char *Component_71696780323[] = {
/* columns rows colors chars-per-pixel */
"82 74 134 2 ",
"   c #131414",
".  c #15171B",
"X  c #161C1A",
"o  c #1A1C1D",
"O  c #192117",
"+  c #18281C",
"@  c #141A20",
"#  c #1A1C23",
"$  c #151D28",
"%  c #1C1D2A",
"&  c #172623",
"*  c #1D2223",
"=  c #172925",
"-  c #1B2B23",
";  c #162329",
":  c #1D222A",
">  c #17292A",
",  c #182D2B",
"<  c #1E3C24",
"1  c #19332D",
"2  c #1C3C2D",
"3  c #1E2130",
"4  c #212525",
"5  c #21272A",
"6  c #242B2C",
"7  c #292E2F",
"8  c #233F24",
"9  c #283A27",
"0  c #24332B",
"q  c #24392C",
"w  c #202334",
"e  c #262D31",
"r  c #292F30",
"t  c #212539",
"y  c #24283F",
"u  c #2A2F3B",
"i  c #2B3334",
"p  c #2E3A36",
"a  c #2C3639",
"s  c #2E393C",
"d  c #323D34",
"f  c #323C3D",
"g  c #1E422D",
"h  c #204024",
"j  c #264825",
"k  c #22452D",
"l  c #2E4029",
"z  c #224B2E",
"x  c #2C4D2C",
"c  c #33432E",
"v  c #394529",
"b  c #24552E",
"n  c #2C552F",
"m  c #27592E",
"M  c #2A5C2F",
"N  c #335826",
"B  c #32552F",
"V  c #315D2F",
"C  c #3B5F2A",
"Z  c #354B33",
"A  c #345032",
"S  c #336A2F",
"D  c #3E722E",
"F  c #346630",
"G  c #356B30",
"H  c #3E7631",
"J  c #3F7A31",
"K  c #436236",
"L  c #4F643B",
"P  c #59683D",
"I  c #427C31",
"U  c #4C7F35",
"Y  c #507031",
"T  c #5D7C3E",
"R  c #637D39",
"E  c #272B46",
"W  c #292E44",
"Q  c #2A2F4E",
"!  c #2F3C41",
"~  c #333D41",
"^  c #383F40",
"/  c #354245",
"(  c #3B4444",
")  c #35454A",
"_  c #3B4749",
"`  c #3C4A4C",
"'  c #3A4B50",
"]  c #424D4D",
"[  c #454E50",
"{  c #445152",
"}  c #4A5554",
"|  c #415459",
" . c #465A5E",
".. c #4E5A5C",
"X. c #515D5C",
"o. c #495C60",
"O. c #525F60",
"+. c #4B6064",
"@. c #4E666A",
"#. c #546262",
"$. c #586565",
"%. c #5B6861",
"&. c #5E6D6C",
"*. c #526C70",
"=. c #577277",
"-. c #606F71",
";. c #657675",
":. c #6C7E7D",
">. c #468232",
",. c #4A8433",
"<. c #538B36",
"1. c #579038",
"2. c #5D943A",
"3. c #6D833D",
"4. c #70853E",
"5. c #63913D",
"6. c #69953E",
"7. c #669C3E",
"8. c #699E3E",
"9. c #6E8845",
"0. c #708946",
"q. c #6C9F40",
"w. c #729245",
"e. c #6FA341",
"r. c #75A743",
"t. c #7BAB45",
"y. c #7FAA48",
"u. c #96B452",
"i. c #9BC153",
"p. c #A5C856",
"a. c #6D8384",
"s. c #738786",
"d. c #7A8F8E",
"f. c #819796",
/* pixels */
"Q Q Q Q Q Q Q Q Q Q Q Q Q Q Q Q Q Q Q Q Q Q Q Q Q Q Q Q Q Q 3 t E Q * a r $.d.f.f.f.f.f.f.f.X.} $.f.f.f.f.f.f.;.  f s t Q Q Q Q Q Q Q Q Q Q Q Q Q Q Q Q Q Q Q Q Q Q ",
"Q Q Q Q Q Q Q Q Q Q Q Q Q Q Q Q Q Q Q Q Q Q Q Q Q Q Q Q E # ;.;...@ * ` ) ! f $.f.f.f.f.f.f.f.s.;.i ;.f.f.f.$.f a s.s.-.# E Q Q Q Q Q Q Q Q Q Q Q Q Q Q Q Q Q Q Q Q ",
"Q Q Q Q Q Q Q Q Q Q Q Q Q Q Q Q Q Q Q Q Q Q Q Q Q Q t ( $.f.f.f.f.f.( s ! ' ' s e $.d.f.f.f.f.s.$.6 ( $.$.s | =./ s.f.f.f.X.~ t Q Q Q Q Q Q Q Q Q Q Q Q Q Q Q Q Q Q ",
"Q Q Q Q Q Q Q Q Q Q Q Q Q Q Q Q Q Q Q Q Q Q Q Q Q E   ;.f.f.f.f.f.f.f.;.{ 5 ) ' ) a f &.f.f.} ` ' ' 5 f { *.=.=./ s.f.f.f.f.$.  Q Q Q Q Q Q Q Q Q Q Q Q Q Q Q Q Q Q ",
"Q Q Q Q Q Q Q Q Q Q Q Q Q Q Q Q Q Q Q Q Q Q Q Q Q E e i ^ $.f.f.f.f.f.f.f.f.] f f ` ) s 6 s +.=.=.' a ' =.=.=.=./ s.f.d.$.` ' 6 Q Q Q Q Q Q Q Q Q Q Q Q Q Q Q Q Q Q ",
"Q Q Q Q Q Q Q Q Q Q Q Q Q Q Q Q Q Q Q Q Q Q Q Q Q E e ' ) a ( s.f.f.f.f.f.f.f.:.#., ) ' ' =.=.=.=.{ a  .=.=.=.+.4 s.-.( ] @.=.6 Q Q Q Q Q Q Q Q Q Q Q Q Q Q Q Q Q Q ",
"Q Q Q Q Q Q Q Q Q Q Q Q Q Q Q Q Q Q Q Q Q E E r i i 6 _ ' ' ' : ] ;.f.f.f.f.f.s.&.* / ' ' =.=.=.=.{ s ' =.+.` _ ;.6 ' =.=.=.=.6 Q Q Q Q Q Q Q Q Q Q Q Q Q Q Q Q Q Q ",
"Q Q Q Q Q Q Q Q Q Q Q Q Q Q Q Q Q Q Q Q t W $.d.f.d.$.i a ' ' ' / a ( ;.f.f.] ` ' / / ' ' =.=.=.=.' * 6 s $.} ' ' *.=.=.=.=.=.6 Q Q Q Q Q Q Q Q Q Q Q Q Q Q Q Q Q Q ",
"Q Q Q Q Q Q Q Q Q Q Q Q Q Q Q Q Q Q Q . O.s.f.f.f.f.f.d.$.f ~ ) ' ' ) e a f +.*.=./ ! ' ' =.=.=.=.~ X.:.$.f 5 o.=.=.=.=.=.=.=.7 Q Q Q Q Q Q Q Q Q Q Q Q Q Q Q Q Q Q ",
"Q Q Q Q Q Q Q Q Q Q Q Q Q Q Q Q Q Q Q X ] $.f.f.f.f.f.f.f.f.} s s ' ' '  .=.=.=.=./ ! ' ' =.=.@./ } } [ / *./ @.=.=.=.=.=.=.=.6 Q Q Q Q Q Q Q Q Q Q Q Q Q Q Q Q Q Q ",
"Q Q Q Q Q Q Q Q Q Q Q Q Q Q Q Q Q Q Q * ) f r &.s.f.f.f.f.f.f.d.&.f ! ) ' =.=.=.=./ r f /  .( } $.f o.@.=.=./ @.=.=.=.=.=.=.*.4 Q Q Q Q Q Q Q Q Q Q Q Q Q Q Q Q Q Q ",
"Q Q Q Q Q Q Q Q Q Q Q Q Q Q Q Q Q Q Q * ) ' ' i ( X.f.f.f.f.f.f.f.d.  a | =.=.=.=./ ;.;.} } } [ / =.=.=.=.=.( @.=.=.=.=.=.' s : Q Q Q Q Q Q Q Q Q Q Q Q Q Q Q Q Q Q ",
"Q Q Q Q Q Q Q Q Q Q Q Q Q Q Q Q Q W 5 # ' ' ' ' ) ~ 6 &.d.f.f.s.&.r ' a | =.=.=.=.f ;.d.;.6  .*.=.=.=.=.=.=./ @.=.=.*. .5 W Q Q Q Q Q Q Q Q Q Q Q Q Q Q Q Q Q Q Q Q ",
"Q Q Q Q Q Q Q Q Q Q Q Q Q Q Q 3 ) &.f.o ! ' ' ' ' ' ' a ~ } } _ | =. .a | =.=. .) } } ` f a =.=.=.=.=.=.=.=./ @.=.) a 3 Q Q Q Q Q Q Q Q Q Q Q Q Q Q Q Q Q Q Q Q Q Q ",
"Q Q Q Q Q Q Q Q Q Q Q Q E W e ;.d.f.d.:.[ e ~ ' ' ' ' ' ~ ~  .*.=.=. .i ' @._ { $./ { @.@.a =.=.=.=.=.=.=.=./ | i t E Q Q Q Q Q Q Q Q Q Q Q Q Q Q Q Q Q Q Q Q Q Q Q ",
"Q Q Q Q Q Q Q Q Q Q Q Q # ( f.f.f.f.f.f.d.s.( ! ~ ' ' ' ' ' =.=.=.=. .i ( ( $.[ f =.=.=.@.a =.=.=.=.=.=.=.| / / / E Q Q Q Q Q Q Q Q Q Q Q Q Q Q Q Q Q Q Q Q Q Q Q Q ",
"Q Q Q Q Q Q Q Q Q Q Q Q % / f s.d.f.f.f.f.f.f.;.+.Q ~ ' ' ' =.=.*.@.i $.0.( ' @.=.=.=.=.@.a =.=.=.=.*.+.s ' *.=./ Q Q Q Q Q Q Q Q Q Q Q Q Q Q Q Q Q Q Q Q Q Q Q Q Q ",
"Q Q Q Q Q Q Q Q Q Q Q Q : ' ' 5 ] ;.f.f.f.f.f.f.f.d.' u ! ' =.| _ ( $.a Q =.=.=.=.=.=.=.@.s =.=.=.' / / =.=.=.=./ W Q Q Q Q Q Q Q Q Q Q Q Q Q Q Q Q Q Q Q Q Q Q Q Q ",
"Q Q Q Q Q Q Q Q Q Q Q Q : ' ' ' ~ s i f.f.f.f.f.f.f.f.0.o.# 6 O.$.a o.e =.=.=.=.=.=.=.=.@.a =. .6  .*.=.=.=.=.=./ E Q Q Q Q Q Q Q Q Q Q Q Q Q Q Q Q Q Q Q Q Q Q Q Q ",
"Q Q Q Q Q Q Q Q Q Q Q Q % ' ' ' ' ' 5 5 ] ;.f.f.f.f.f.f.f.f.$.] ' =.=.W *.=.=.=.=.=.=.=.@.6 ( ' =.' s f =.=.=.=./ W Q Q Q Q Q Q Q Q Q Q Q Q Q Q Q Q Q Q Q Q Q Q Q Q ",
"Q Q Q Q Q Q Q Q Q Q Q Q % ' ' ' ` ' : ' ~ i ( d.f.f.f.f.;.( ' @.=.=.=.a @.=.=.=.=.=.=.| a ' @. .s a ) ' =.=.=.=./ E Q Q Q Q Q Q Q Q Q Q Q Q Q Q Q Q Q Q Q Q Q Q Q Q ",
"Q Q Q Q Q Q Q Q Q Q Q Q : ' ' ' ' ' 5 ' ' ' ' * ` ;.;.f ` =.=.=.=.=.=.a @.=.=.=.=. .s ` =. .5   a ` ' ' =.=.=.=./ Q Q Q Q Q Q Q Q Q Q Q Q Q Q Q Q Q Q Q Q Q Q Q Q Q ",
"Q Q Q Q Q Q Q Q Q Q Q Q % ' ' ' ' ' : ` ' ' ' ' / s ' @.=.=.=.=.=.=.=.a @.=.=.} a ' @.| f 4.0 @ a ' '  .=.=.=.=./ # t Q Q Q Q Q Q Q Q Q Q Q Q Q Q Q Q Q Q Q Q Q Q Q ",
"Q Q Q Q Q Q Q Q Q Q Q Q % e ! ' ' ' : ' ' ' ' ' ' | =.=.=.=.=.=.=.=.=.a +. .6 ' =. .c R p.w.; @ e ' ' ' =.=.=.' a :.3 Q Q Q Q Q Q Q Q Q Q Q Q Q Q Q Q Q Q Q Q Q Q Q ",
"Q Q Q Q Q Q Q Q Q Q Q Q Q Q t 5 ! ' : ' ' ' ' ' ' ' =.=.=.=.=.=.=.=.=.a f ' *.| a F 6.r.u.0.= & ( 5 f | =.f ] &.f.( 3 Q Q Q Q Q Q Q Q Q Q Q Q Q Q Q Q Q Q Q Q Q Q Q ",
"Q Q Q Q Q Q Q Q Q Q Q Q Q Q Q E 3 e * ' ' ' ' ' ' ' =.=.=.=.=.=.*. .s  .+. .0 x H ,.8.t.p.0., & 4 $./ f / $.{ 7 f { 3 Q Q Q Q Q Q Q Q Q Q Q Q Q Q Q Q Q Q Q Q Q Q Q ",
"Q Q Q Q Q Q Q Q Q Q Q Q Q Q Q Q Q E : e / ' ' ' ' ' =.=.=.=.=.' / / =.| s + b b J H e.r.i.0.1 & a 6 ` } } (  .a =.@.3 Q Q Q Q Q Q Q Q Q Q Q Q Q Q Q Q Q Q Q Q Q Q Q ",
"Q Q Q Q Q Q Q Q Q Q Q Q Q Q Q Q Q Q Q * 6 : / ' ' ' =.=.*.@.6  .*.=. .- 1 z b b m S q.e.i.4., - a ` ) ' @.=.=.a =.@.3 Q Q Q Q Q Q Q Q Q Q Q Q Q Q Q Q Q Q Q Q Q Q Q ",
"Q Q Q Q Q Q Q Q Q Q Q Q Q Q Q Q Q Q Q * ) ) e e / ' =.' ~ e =.=.=.=. .& 1 1 z z b G <.2.y.A g < a ' ' ' =.=.=.a =.@.3 Q Q Q Q Q Q Q Q Q Q Q Q Q Q Q Q Q Q Q Q Q Q Q ",
"Q Q Q Q Q Q Q Q Q Q Q Q Q Q Q Q Q Q Q * ' ` ' ) a : > ! ) ' =.=.=.=. .& 1 1 2 g b G >.2.c > z < a ' '  .=.=.=.a =.@.3 Q Q Q Q Q Q Q Q Q Q Q Q Q Q Q Q Q Q Q Q Q Q Q ",
"Q Q Q Q Q Q Q Q Q Q Q Q Q Q Q Q Q Q Q * ' ' ' ' ' ' ' ' ' ' =.=.=.=. .@ ; > 1 1 b b H 2.l > M N a ' ' ' =.=.=.a =.@.3 Q Q Q Q Q Q Q Q Q Q Q Q Q Q Q Q Q Q Q Q Q Q Q ",
"Q Q Q Q Q Q Q Q Q Q Q Q Q Q Q Q Q E : 5 ! ) ' ' ' ' ' ' ' ' =.=.=.=. .@ $ ; 1 1 b b H ,.q , D n a ' ' o.=.=.=.a =.o.3 Q Q Q Q Q Q Q Q Q Q Q Q Q Q Q Q Q Q Q Q Q Q Q ",
"Q Q Q Q Q Q Q Q Q Q Q Q Q Q Q Q Q y ( f.$.f s ) ' ' ' ' ' ' =.=.=.=. .@ $ $ , , b b H n > g n - 5 ` ' ' =.=.+.5 ' 5 y Q Q Q Q Q Q Q Q Q Q Q Q Q Q Q Q Q Q Q Q Q Q Q ",
"Q Q Q Q Q Q Q Q Q Q Q Q Q Q Q Q Q E 5 i &.d.;.r a ' ' ' ' ' =.=.=.=.o.  . $ ; > b b b 2 , 1 g < 6 * s  .=.a /  .a E Q Q Q Q Q Q Q Q Q Q Q Q Q Q Q Q Q Q Q Q Q Q Q Q ",
"Q Q Q Q Q Q Q Q Q Q Q Q Q Q Q Q Q y a ' a # : O.| Z a ) ' ` =.=.@.' ( } c C $ $ z g 2 ; , , z z s ' a e d *.=.=./ w E Q Q Q Q Q Q Q Q Q Q Q Q Q Q Q Q Q Q Q Q Q Q Q ",
"Q Q Q Q Q Q Q Q Q Q Q Q Q Q Q Q Q y a ' ' 5 ' ! f u ;.a e ' =.f ~ ;.i _ c 9.6 $ 1 1 ; > ; ; F N s ' ' ' =.=.=.+.o X.: Q Q Q Q Q Q Q Q Q Q Q Q Q Q Q Q Q Q Q Q Q Q Q ",
"Q Q Q Q Q Q Q Q Q Q Q Q Q Q Q Q Q y a ) ' 5 ' ' ' ) 5 [ | ( ( } [ s =.=.c e.B k > > ; $ > g J h a a / ' =. .` _ $.i 3 Q Q Q Q Q Q Q Q Q Q Q Q Q Q Q Q Q Q Q Q Q Q Q ",
"Q Q Q Q Q Q Q Q Q Q Q Q Q Q Q Q Q y a ' ' 5 ' ' ' ' ' ~ s ( ( {  .=.=.=.9 <.G k $ ; $ ; , 2 q . i $./ 6 s $.} [ ' o.3 Q Q Q Q Q Q Q Q Q Q Q Q Q Q Q Q Q Q Q Q Q Q Q ",
"Q Q Q Q Q Q Q Q Q Q Q Q Q Q Q Q Q y a ' ' 5 ' ' ) ' ' ' ' ' =.=.=.=.=.=.- z g 1 $ $ $ $ > $ ; - a * ..;.;.6 ' =.=.@.3 Q Q Q Q Q Q Q Q Q Q Q Q Q Q Q Q Q Q Q Q Q Q Q ",
"Q Q Q Q Q Q Q Q Q Q Q Q Q Q Q Q Q E a ' ' 5 ' ' ' ' ' ' ' ' =.=.=.=.=.=.5 2 > ; $ $ $ $ > 1 q 8 a ) / ! ' *.=.=.=.@.3 Q Q Q Q Q Q Q Q Q Q Q Q Q Q Q Q Q Q Q Q Q Q Q ",
"Q Q Q Q Q Q Q Q Q Q Q Q Q Q Q Q Q E # ~ / 5 ' ' ' ' ' ' ' ' =.=.=.=.=.=.: $ $ $ $ $ > 1 2 M M F a ' ' o.=.=.=.=.=.@.3 Q Q Q Q Q Q Q Q Q Q Q Q Q Q Q Q Q Q Q Q Q Q Q ",
"Q Q Q Q Q Q Q Q Q Q Q Q Q Q Q Q Q E Q o e X 5 ) ' ' ' ' ' ' =.=.=.=.=.=.- , , > $ $ > 2 G I 1.Y a ' ' ' =.=.=.=.=.@.3 Q Q Q Q Q Q Q Q Q Q Q Q Q Q Q Q Q Q Q Q Q Q Q ",
"Q Q Q Q Q Q Q Q Q Q Q Q Q Q Q Q Q Q Q # ) ) ) 6 e ! ' ' ' ' =.=.=.=. .p - 2 > ; ; > > x <.e.y.3.a ' '  .=.=.=.=.=.@.w Q Q Q Q Q Q Q Q Q Q Q Q Q Q Q Q Q Q Q Q Q Q Q ",
"Q Q Q Q Q Q Q Q Q Q Q Q Q Q Q Q Q E 3 o ! ' ' ' ! e e / ' ) =.=.+./ s N z , > > , , ; 0 5.r.i.4.a ' ' ' =.=.=.=.=.) : Q Q Q Q Q Q Q Q Q Q Q Q Q Q Q Q Q Q Q Q Q Q Q ",
"Q Q Q Q Q Q Q Q Q Q Q Q Q Q Q Q Q y . ;.~ 7 / ' ` ' ) : 6 ) @.~ f @. .h 2 , , > 1 g > ; K L p.4.e ' ' | =.=.*.o.4 E E Q Q Q Q Q Q Q Q Q Q Q Q Q Q Q Q Q Q Q Q Q Q Q ",
"Q Q Q Q Q Q Q Q Q Q Q Q Q Q Q Q Q y a e ` } } i ! ` ' ' ~ e / @.=.=. .+ & , # 1 g b 1 > $ d u.4.> e ) ' =._ / ' ^ E Q Q Q Q Q Q Q Q Q Q Q Q Q Q Q Q Q Q Q Q Q Q Q Q ",
"Q Q Q Q Q Q Q Q Q Q Q Q Q Q Q Q Q y a ' ) i s.s...i ) ' ' ' =.=.*.@.r X.0 2 , V M b g 1 ; $ 9.* a ) e * 6  .*.@.~ E Q Q Q Q Q Q Q Q Q Q Q Q Q Q Q Q Q Q Q Q Q Q Q Q ",
"Q Q Q Q Q Q Q Q Q Q Q Q Q Q Q Q Q y a ' ' * e [ ;.d.| a s ' =.' ` } } ` + 2 V >.M b 2 1 ; $ $ . a ' ' | =.=.o._ } { ~ w Q Q Q Q Q Q Q Q Q Q Q Q Q Q Q Q Q Q Q Q Q Q ",
"Q Q Q Q Q Q Q Q Q Q Q Q Q Q Q Q Q t a ' ' : ' ! ~ a f }  .i f } $.^  .*.& > U 1.M m g 1 : > $ @ a ' ' ' =.a [ :.f.f.s.-.e y E Q Q Q Q Q Q Q Q Q Q Q Q Q Q Q Q Q Q Q ",
"Q Q Q Q Q Q Q Q Q Q Q Q Q Q Q Q Q y a ' ' 5 ) ' ' * ) i / #.$.` ' =.=.=.* > 6.2.G G g g 1 , > & a ' ' ' =.5 _ ;.f.f.f.f.f.X.~ t Q Q Q Q Q Q Q Q Q Q Q Q Q Q Q Q Q Q ",
"Q Q Q Q Q Q Q Q Q Q Q Q Q Q Q Q Q y a ' ' 5 ' ' ) * ' ' / !  .*.=.=.=.=., K r.2.>.G m b 2 1 1 & ! ' ' o.=.6 ) s i s.f.f.f.f.$.  Q Q Q Q Q Q Q Q Q Q Q Q Q Q Q Q Q Q ",
"Q Q Q Q Q Q Q Q Q Q Q Q Q Q Q Q Q E : ` ' 5 ' ' ' * ' ' ' ' =.=.=.=.=.=.* T t.7.,.G m m g g = X , ' ' ' =.e ` ' ' 6 _ $.$.) [ 6 Q Q Q Q Q Q Q Q Q Q Q Q Q Q Q Q Q Q ",
"Q Q Q Q Q Q Q Q Q Q Q Q Q Q Q Q Q E y * s , ' ' ' * ' ' ' ' =.=.=.=.=.=.& 0.y.r.,.>.M m x X X.;.;.* f | =.e ' ' ' ' ) ) o.*.=.6 E Q Q Q Q Q Q Q Q Q Q Q Q Q Q Q Q Q ",
"Q Q Q Q Q Q Q Q Q Q Q Q Q Q Q Q Q Q Q * a : ' ' ' * ' ' ' ' =.=.=.=.=.=.* 0.y.r.,.,.b A ] f.f.f.f.f.$.a   f f ~ ' ' ' ' =.=.=.6 ] u y Q Q Q Q Q Q Q Q Q Q Q Q Q Q Q ",
"Q Q Q Q Q Q Q Q Q Q Q Q Q Q Q Q Q Q Q * ' i : ) ' * ` ' ' ' =.=.=.=.=.' o 0.t.r.U j O } f.f.f.f.f.f.f.d.$.( 7   5 ) ' ' =.=. .o f.;.[ % Q Q Q Q Q Q Q Q Q Q Q Q Q Q ",
"Q Q Q Q Q Q Q Q Q Q Q Q Q Q Q Q Q Q y # ' ' ' * e o ! ) ' ' =.=.*. .5 * : w.6.P ( f.d.$.( ;.f.f.f.f.f.d.;.i $.f.f.4 5 / o.f X.f.i $.;.;.: t Q Q Q Q Q Q Q Q Q Q Q Q ",
"Q Q Q Q Q Q Q Q Q Q Q Q Q Q Q Q t s $.* ` ' ' ' / a a : a ` =.) / ' o.@ > v %.:.f.f.f.f.d.O.^ O.f.f.@.o.%.( &.:.( $.$.$.$.s.f.f.f.( * '  .t Q Q Q Q Q Q Q Q Q Q Q Q ",
"Q Q Q Q Q Q Q Q Q Q Q Q Q Q E f -.s.f.# ' ' ' ' ' ' ' ) s 5 a o.=.=.o.  i s.f.f.f.f.f.f.f.f.f.$.3 _ ;.d.f.&.} X.s.f.f.f.f.f.d.;.f ..6 =. .w E Q Q Q Q Q Q Q Q Q Q Q ",
"Q Q Q Q Q Q Q Q Q Q Q Q Q t   d.f.f.f.# ' ' ' ' ' ' ' ' ' ' =.=. .a a.$.} ( d.f.f.f.f.f.f.f.} } O.f.f.0.( $.:.f.f.f.f.f.f.} ` ' =.=.6 =. .( [ % Q Q Q Q Q Q Q Q Q Q ",
"Q Q Q Q Q Q Q Q Q Q Q Q Q t s i $.:.f.i / ~ ' ' ' ' ' ' ' ' =.i Z s.f.f.f.s.] X.;.f.f.s.$.( :.-.( ;.] ( i ;.s.f.f.f.s.$.f @.*.=.=.=.5  .Z ;.f.s.^ u t Q Q Q Q Q Q Q ",
"Q Q Q Q Q Q Q Q Q Q Q Q t # ! ' s s } f.&.] 6 ) ' ' ' ' ' ' =.6 f } f.f.f.f.f.;.} } } } X.f.f.:...} :.f.f.X.} $.f.X.] _ =.=.=.=.=.| 4 } f.f.f.f.f.;.[ 3 E Q Q Q Q Q ",
"Q Q Q Q Q Q Q Q Q Q y 5 -.X.! ' ' ' ) 6 5 ( s.f u ) ' ' ' ' =.5 ) ) 6 &.d.f.f.d.;.# -.d.f.s.f ( s.f.f.f.f.f.s.X.6  .*.=.=.=.*.@.7 #.:.f.f.f.f.f.s...f ~ E Q Q Q Q Q ",
"Q Q Q Q Q Q Q Q Q 3 4 f.f.$.5 ' ' ' ` ' 5 i } d.;.[ , ) ' ' =.6 ' ' ' s a } } ] ' ~ ;.;.} } } } } f.f.f.f.X.] a / =.=.=.=.' ` } f.&.} } f.f.s.} )  .=./ E E Q Q Q Q ",
"Q Q Q Q Q Q Q Q Q 3 a f &.:.;.i ~ ) ' ' 5 / ~ / #.:.;._ i ) @.6 ) ' ' ' ) ! | @.-.^ f X.:.f.f.s.;.( -.:./ ' @. ./ =.*.+.f } :.f.f.f.d.;.i f (  .=.*.o.: E Q Q Q Q Q ",
"Q Q Q Q Q Q Q Q Q w ~ ` a ~ | f.&.] 6 ` 5 ) ` ' ! i } s.:.} } } ' E ' ' ' ' *.=.=.( ;.f.f.f.f.f.f.} 7 ` =.=.=. ./ _ ` O.f.$.} } f.f.s.} a ' =.=.) a w Q Q Q Q Q Q Q ",
"Q Q Q Q Q Q Q Q Q w : ) ) ) ! f &.s.;.i # ~ ' ' ' ) ! s { s.f.f.0.$.u ! ' ' *.*.o.u $.d.f.d.s.;./  .r =.=.=.=. .i $.s.f.f.f.s.;.i f (  . .` o.i t E Q Q Q Q Q Q Q Q ",
"Q Q Q Q Q Q Q Q Q Q E % e ! ' ' a i $.$.} f a ) ' ' ' ' ! 5 $.$.} ( f.&.! a ' ] ] f.X.} $.$.` ' =.=.a =.=.| _ } f.f.f.f.f.f.s.$.6 ' =.=./ # 3 Q Q Q Q Q Q Q Q Q Q Q ",
"Q Q Q Q Q Q Q Q Q Q Q Q E t * ` ' ) !   $.d.;.i a ' ' ' ' ' ! o ( f.f.d.d.-.;.s.f.f.f.} X  .=.=.=.=.a +.6 %.} ] f.f.f.d.f.] f  .{ ' +.0 y Q Q Q Q Q Q Q Q Q Q Q Q Q ",
"Q Q Q Q Q Q Q Q Q Q Q Q Q Q Q % e ! ' * a r $.d.-.Z a ) ' ' ' # ! : $.s.f.f.f.d.d.$.` | a =.=.=.=.' ] } f.f.f.s.( $.$.$.a o.=.=.a # 3 Q Q Q Q Q Q Q Q Q Q Q Q Q Q Q ",
"Q Q Q Q Q Q Q Q Q Q Q Q Q Q Q Q t 3 6 # ' ) a / &.d.$.i a ' ' * ' ' a / #.f.f.;.( ' @.=.i =.=. .s $.s.f.f.f.f.f.f.* i | =.=. .a t E Q Q Q Q Q Q Q Q Q Q Q Q Q Q Q Q ",
"Q Q Q Q Q Q Q Q Q Q Q Q Q Q Q Q Q Q Q % e ! ' ' W 7 $.d.;.( a o ' ' ' ' ) 5 i ' =.=.=.=.i [ ] $.f.( } ;.f.f.:.#.s +./ *.' u e Q Q Q Q Q Q Q Q Q Q Q Q Q Q Q Q Q Q Q ",
"Q Q Q Q Q Q Q Q Q Q Q Q Q Q Q Q Q Q Q Q E : : ) ' _ s f $.f.$.* a ' ' ' ' ' *.=.=.=.=.| 5 $.s.f.f.f.;.} ( ( ` | =.@.* a 3 Q Q Q Q Q Q Q Q Q Q Q Q Q Q Q Q Q Q Q Q Q ",
"Q Q Q Q Q Q Q Q Q Q Q Q Q Q Q Q Q Q Q Q Q Q Q # e ! ' ' s #   ;.&.i f ) ` ' =.=.=. .f $.f.f.f.f.f.f.s.$.* @.=.*. .# t Q Q Q Q Q Q Q Q Q Q Q Q Q Q Q Q Q Q Q Q Q Q Q ",
"Q Q Q Q Q Q Q Q Q Q Q Q Q Q Q Q Q Q Q Q Q Q Q Q E t : / ' ' * f $.f.$./ i ' =.' f $.( &.f.f.f.f.f.( _ | a #.| a t Q Q Q Q Q Q Q Q Q Q Q Q Q Q Q Q Q Q Q Q Q Q Q Q Q "
};
