/* XPM */
static char *Component_31696780322[] = {
/* columns rows colors chars-per-pixel */
"82 75 213 2 ",
"   c #0E0E00",
".  c #110F03",
"X  c #0E1201",
"o  c #0D1B01",
"O  c #131400",
"+  c #191506",
"@  c #151B04",
"#  c #181D03",
"$  c #151409",
"%  c #1A150C",
"&  c #141D09",
"*  c #1C1C0B",
"=  c #1E1910",
"-  c #231C0B",
";  c #291F0E",
":  c #221712",
">  c #231A13",
",  c #2A1D16",
"<  c #2B1E18",
"1  c #0E2101",
"2  c #162106",
"3  c #1A2206",
"4  c #162309",
"5  c #192509",
"6  c #17290C",
"7  c #1B2B0C",
"8  c #1E310E",
"9  c #1D2511",
"0  c #1D2B12",
"q  c #1E3411",
"w  c #1F3912",
"e  c #23220E",
"r  c #2A280C",
"t  c #20340E",
"y  c #21380F",
"u  c #2A2313",
"i  c #282613",
"p  c #222D15",
"a  c #2C2319",
"s  c #2A2B19",
"d  c #332613",
"f  c #332B14",
"g  c #392E15",
"h  c #33231B",
"j  c #3A261D",
"k  c #342A1C",
"l  c #3B291E",
"z  c #233414",
"x  c #2F3016",
"c  c #213B13",
"v  c #253319",
"b  c #2B341C",
"n  c #263B19",
"m  c #293B1A",
"M  c #36351B",
"N  c #3D2A21",
"B  c #2C3E23",
"V  c #3C3121",
"C  c #343E22",
"Z  c #3B3A22",
"A  c #412C1C",
"S  c #48381C",
"D  c #422D22",
"F  c #492E21",
"G  c #453225",
"H  c #4C3324",
"J  c #463C25",
"K  c #4C3629",
"L  c #4E3B2B",
"P  c #543624",
"I  c #533B24",
"U  c #5D3E27",
"Y  c #523C2D",
"T  c #543F30",
"R  c #264218",
"E  c #2E4323",
"W  c #2E4B27",
"Q  c #364222",
"!  c #3A4423",
"~  c #3E4B27",
"^  c #374A28",
"/  c #38512C",
"(  c #3F5D34",
")  c #4C441C",
"_  c #494728",
"`  c #4D452D",
"'  c #444B2B",
"]  c #514421",
"[  c #5A4726",
"{  c #43522C",
"}  c #48512E",
"|  c #5F5B2D",
" . c #4E4C31",
".. c #594934",
"X. c #435732",
"o. c #4C5632",
"O. c #415B33",
"+. c #4B5E35",
"@. c #565C39",
"#. c #634727",
"$. c #644429",
"%. c #6C4B2B",
"&. c #714D2C",
"*. c #69552A",
"=. c #78572D",
"-. c #604A37",
";. c #6A5E30",
":. c #63573D",
">. c #745432",
",. c #735D31",
"<. c #7B5932",
"1. c #4C6036",
"2. c #4D6439",
"3. c #4C6D3E",
"4. c #536A3D",
"5. c #69612F",
"6. c #75602F",
"7. c #6E6131",
"8. c #746432",
"9. c #7D6434",
"0. c #7D6A33",
"q. c #695E43",
"w. c #576E40",
"e. c #4E7242",
"r. c #517542",
"t. c #5B7445",
"y. c #5E7C49",
"u. c #676A45",
"i. c #627E4B",
"p. c #697A4B",
"a. c #80572E",
"s. c #82592F",
"d. c #855D32",
"f. c #895F32",
"g. c #81692B",
"h. c #856135",
"j. c #8B6235",
"k. c #826A35",
"l. c #8A6C35",
"z. c #876138",
"x. c #8C653A",
"c. c #8F683D",
"v. c #916635",
"b. c #956A35",
"n. c #996C37",
"m. c #906739",
"M. c #936A3B",
"N. c #9A6E3A",
"B. c #8F7137",
"V. c #977336",
"C. c #9B7335",
"Z. c #9D7C36",
"A. c #957339",
"S. c #9D723B",
"D. c #A07737",
"F. c #A47B37",
"G. c #A3753B",
"H. c #A57A3B",
"J. c #AB7C3E",
"K. c #B07F3E",
"L. c #976E40",
"P. c #9D7341",
"I. c #A17641",
"U. c #A57941",
"Y. c #AB7E42",
"T. c #5C814B",
"R. c #62844D",
"E. c #658C52",
"W. c #6B8B54",
"Q. c #679456",
"!. c #699156",
"~. c #6B9559",
"^. c #6D9B5C",
"/. c #709D5D",
"(. c #6EA15E",
"). c #71A560",
"_. c #73AB64",
"`. c #76B167",
"'. c #AD823C",
"]. c #AA8B38",
"[. c #B4833E",
"{. c #B8863E",
"}. c #B68B3D",
"|. c #BB8B3E",
" X c #BC923E",
".X c #BE993A",
"XX c #C08F3F",
"oX c #C2933F",
"OX c #C39A3D",
"+X c #C7A53D",
"@X c #D4A73F",
"#X c #DEB43E",
"$X c #E1BD3C",
"%X c #E9C63F",
"&X c #AF8141",
"*X c #B38441",
"=X c #B58941",
"-X c #BB8C43",
";X c #BE9244",
":X c #C29543",
">X c #C49A43",
",X c #C99D43",
"<X c #C69B49",
"1X c #CDA343",
"2X c #D4AB43",
"3X c #D3A844",
"4X c #D7B045",
"5X c #DBB345",
"6X c #DFB947",
"7X c #E3BD47",
"8X c #E4BB48",
"9X c #E5C245",
"0X c #EBC24A",
/* pixels */
"O O O         O O O # O O O O # 2 2 3 # 3 3 3 # 3 # # # # O O @ O @ # # # @ 3 3 2 2 3 2 2 2 2 2 5 @ o o & 2 4 6 6 6 7 7 6 3 2 7 0 6 5 5 5 5 5 6 7 7 8 7 5 v 7 7 7 8 ",
"O               O O O O O . O O O @ # 3 3 3 3 # e # # O O @ @ O @ # O # # # 3 3 3 3 3 3 2 7 5 5 2 2 6 & 2 & 4 4 0 6 3 6 5 6 6 7 4 2 5 6 5 8 5 5 7 5 5 7 6 6 5 7 8 8 ",
"O O O O .     O # O O O O $ O O $ @ # # 3 # 3 # # # @ O O O @ $ O # # # # 3 3 3 3 3 7 3 2 7 2 2 5 7 7 7 0 2 6 6 6 p 5 5 6 2 5 6 6 6 7 6 5 6 5 7 5 5 7 8 4 6 6 4 7 2 ",
"O O O O O .   O O O O # O O O @ O o O @ # # # 3 3 3 # @ @ @ 2 @ @ 3 3 # # 3 3 3 3 3 e 3 7 3 3 5 5 5 7 7 5 7 m 5 7 6 6 6 2 2 5 0 0 & 4 2 6 7 q 5 6 3 7 7 4 2 6 1 2 2 ",
"O O # O O O . . O O O O @ O O # # O O @ O 3 3 2 @ @ @ $ O # @ @ 3 3 # 3 # 3 3 e 3 5 7 3 5 3 5 5 5 5 7 7 7 7 7 7 6 6 6 & 4 & & 0 0 v 4 0 w 6 6 2 5 5 7 5 5 @ & & 2 7 ",
"O O + O O . . . O O O O O O O O O @ O O O O @ @ 3 O @ @ O @ # @ @ @ 3 @ 3 # 3 3 3 3 7 7 5 5 5 5 7 7 7 8 r 7 7 7 n 6 & 6 4 4 6 & 6 6 6 8 n 7 & & 6 5 5 5 2 2 & & & 2 ",
"O O O O O O O O     . O O O @ O O O 2 O O O # @ O # # @ @ o O @ @ O @ 3 3 3 3 3 2 2 5 5 5 2 2 5 5 5 r 7 8 4 8 c W 4 6 & 6 6 6 6 4 4 z 7 7 6 & 2 5 8 z 7 4 & o $ @ 2 ",
"O O # O O O O .     O O O # O O O O O O O O O O O # o @ 2 $ @ # O # @ 3 3 @ 2 3 5 @ 5 @ & @ 3 3 5 7 7 6 7 8 8 8 q 6 & & & 6 & 4 5 7 8 7 6 & 5 7 7 7 z 5 4 2 o & 2 2 ",
"O O O O O O         O   O O O O O O O O . X X $ O o X $ @ @ @ 5 2 # X @ 2 3 # 2 5 5 & # # 3 7 7 7 8 7 7 7 n 7 8 0 0 & 4 4 6 4 6 7 7 7 8 7 7 2 7 7 8 7 5 6 & & $ o & ",
"O O O O   O       O . O O O O O O . O . X   X O O X $ @ X # # # 5 2 2 @ # 3 2 # & # o 2 3 7 n 7 7 7 7 7 7 8 8 8 6 6 4 8 6 q 5 6 7 c 7 t 7 3 6 7 7 7 5 2 2 & o o $ 4 ",
"O O O O .     .     . O O . . O O O O . .   O O @ O O # @ @ # 3 3 5 5 3 & 3 2 @ @ $ & & 3 7 7 7 7 3 6 6 6 5 8 7 7 6 5 6 7 8 6 5 7 8 8 8 7 5 5 5 7 6 7 p 6 & o $ & & ",
"O O O O O O         X .   O . O O O O O O O X   X @ @ & # # # 3 3 3 3 3 2 3 2 O o @ 3 # 3 3 7 3 7 7 4 8 4 5 5 7 6 8 7 6 6 8 6 6 7 7 8 8 5 5 5 5 5 5 6 5 6 2 & 0 2 2 ",
"O O O O O         O .   O O O O O O O O   O X   X O @ # # 3 # & 3 3 7 3 3 3 5 2 & # # 2 5 7 7 7 t 7 r 7 7 v 6 6 8 8 8 5 q 7 6 8 7 7 7 7 5 5 3 7 5 7 7 8 5 5 5 2 2 6 ",
". . . .         . O   O   O   . O O O O O O   O X $ $ m ^ 0 # 3 3 3 3 3 3 3 & @ @ 5 3 # 5 3 r 5 5 5 8 8 8 7 7 8 8 w 8 8 v 8 8 6 7 5 2 5 7 7 8 8 7 7 5 7 6 3 5 5 6 7 ",
"  . . .       .   O O       . O O O O O         O O E _._.(.E * 3 3 3 3 # 3 O @ # 3 3 2 5 5 7 7 4 4 6 8 6 5 z 8 8 8 m c 8 7 7 5 7 3 3 3 7 7 8 8 7 7 7 5 6 & 6 2 2 & ",
"    . O O   O O O         O   O O O O O O     X O X T.(.(.^.!.5 3 3 3 3 3 # # # & # 2 3 3 5 3 3 5 @ 5 5 5 7 8 8 7 8 w 8 8 8 7 7 7 7 7 7 8 8 8 r 8 5 7 8 6 4 3 6 5 & ",
"O O . O O O O O O O . . O O O . . O O O O . . . O   E.~.!.!.Q.^ 3 3 3 3 3 2 2 & 2 2 5 2 3 2 2 2 2 6 5 6 5 8 y 8 8 y c 8 R 7 7 5 6 5 8 7 t t t 7 r 8 8 8 7 7 6 2 4 2 ",
"O O O O O O O O O O . O O O O . . O O O O . . O .   y.E.R.y.R.y.& 2 # * 2 2 # 2 3 5 5 2 # 2 2 2 5 5 6 6 y q z 8 8 c c 8 q 7 5 5 v W 7 7 7 7 7 7 6 8 8 5 7 7 8 q 4 0 ",
". O . O O # O # O O O O . O O . . O O O O O   O O . X.y.t.w.w.t.Q 2 3 7 2 3 @ @ 2 @ 2 @ @ 2 5 5 3 7 7 7 7 7 7 7 8 5 5 7 6 2 7 0 (.`.e.4 7 t 7 8 t 8 8 7 7 7 q q 5 4 ",
"O O O O O + O O O O O O O O O O O . O O O . O O O O 9 t.2.1.+.+.4.9 & 6 # & & o @ @ @ & & 2 # 2 5 3 8 7 7 8 7 7 7 n 8 7 6 6 & e.(.).!.4 n 7 7 z 8 8 8 8 8 7 6 2 6 6 ",
"O O O O O + O O O O + O O O O O O O O O O O O O O O O { 1.{ { ~ / } & & 2 & & 5 5 2 5 2 7 2 =.j.e 7 t 8 7 5 q q 8 8 8 7 6 $ ( ~.^.^.E.4 6 6 q q 8 8 8 8 6 7 6 5 6 7 ",
"O + O + O O + O O # O O O O O + O O O O O O O O O O O 5 o.{ ! Q C Q ! 9 $ & 4 4 7 5 5 7 7 e F.J.=.5 7 7 7 8 8 w 8 5 5 5 & X.R.E.E.E.w.& 6 6 8 8 8 8 8 6 7 6 7 6 7 5 ",
"O O O O O O O + O + O + O O O O O + O O O . . O O O 3 O p ' Q M b s M Z i o 2 7 6 r 7 7 7 f J.Y.b.5 t 7 7 7 q q 6 5 6 0 2.t.t.y.T.R.E 6 6 6 6 6 5 8 6 5 5 5 4 5 6 5 ",
"+ O O + O # O O + O # O + O O O O O O . O O O O O O # @ O > C V s s a a N k X 5 6 7 y c 7 [ H.'.k.5 8 m 7 0 6 4 & $ C 1.1.1.2.4.w.2.v 7 6 6 & 6 8 6 8 6 7 q 6 7 7 2 ",
"O O O O + # O O + # O + O + O O # O O O O O O O O # # # 3 O * M k u < , a N , X 7 5 7 8 5 l.V.A.) 7 8 8 q E 0 $ p ' ~ ~ ~ { { 1.3.0 n 0 6 w 6 q q 6 6 6 7 7 7 7 7 5 ",
"O O O O O # + O + O O O O + O O + O # + O O O O + # O # 3 2 @ % h < , > = : < % & 2 5 5 ] 0.k.6.5 8 8 8 0 4 = N J C M C Q ! { X.v 6 q w w q q 8 v q 7 7 7 5 8 8 7 6 ",
". . O O + O + O O @ O # O # O O # O O O O O O O O O O + $ @ 2 $ : < : % % % = , r g M r ;.5.;.M 7 z 8 6 6 a D N a k M C C Q Q 7 R w w R w R q 8 q 6 q 6 6 7 7 5 5 7 ",
"O . O O O O O O r._.3.- O O # O O + O O O O O O O X =.A.8.g @ #   k *.Z.>X4X6X8X9X9X+X*.0.0.8.*.g.) * e l H A h h h k N J s 2 z w w R R w R w q 8 w 7 7 8 8 7 5 5 6 ",
"O O O O O O O O ^._.(.!.O.5 X O O O O O O O O . O O *.k.8.7.] S ].6X6X8X5X5X5X5X5X8X.XF.'.F.C.+X9X9XZ.H P H j j j N D J e q w q w w R w R w w w 8 6 6 6 8 5 5 5 5 5 ",
"# O + O . O O . r.(.~.!.E.R.w.{ C k * % $ O . O O O # *.0.B.F.oX5X5X4X2X3X1X1X1XOX@XoX[.'.}.[.$X%X%X=.%.U P S F F H P i 0 q q w B n w w c q q q q q 0 7 5 7 8 5 5 3 ",
"O O O O O O O O 7 E.!.E.R.t.w.@.o. .` Y Y G N < > + O f V.}.}.OX@X2X@XoX:XoXXX|.|.XX|.|.}.|.|.@X#XOXj.d.=.&.%.U U $.G 8 6 q q 6 q q q w q w 8 w 8 6 8 7 8 7 m 5 7 5 ",
"+ O O O O O O O O p i.i.t.4.+.} _ J J D j j j N H P H s. X|.-X1XOXoX|.{.{.{.[.{.{.[.|.{.{.|.{.|.oX'.F.F.C.b.f.a.>.%.q 8 0 6 6 q q 6 6 c 0 q 6 6 6 q 7 q 8 7 8 7 8 5 ",
"+ O O O O O O O .   & +.w.2.o._ J G N j h h h j A P $.&.f.oX>XoXXX{.Y.K.K.{.*X{.{.{.K.{.{.{.{.{.{.K.K.K.[.'.'.C.b.C.] & 6 q W q q 6 q E w 6 4 6 p m q 9 6 q 7 7 7 2 ",
"O O O # O . O O O       s '  ._ J J G N h j j A P U &.s.v.N.[.[.K.K.J.K.K.K.{.K.{.{.{.K.{.K.K.{.{.K.K.{.{.[.}.}.'.1X3X%.6 q w q q q 6 B * B X.t.R.!.^.~.O.0 7 7 2 2 ",
"# + O O O O O . O . O   O   + > u a D H F F H P $.=.j.N.D.G.G.J.J.J.J.J.K.K.K.K.K.K.K.K.K.K.{.{.K.XX{.K.[.[.{.{.|.5X5X3X[ 7 q c q 7 % N  .@.2.w.y.E.~.(._./ 6 2 2 & ",
"# O O O . O . O O O         O . O O . - A U $.%.s.v.C.G.J.G.G.G.G.G.G.J.G.G.G.G.G.G.G.J.G.J.G.K.K.K.K.K.[.[.*X*X|.OX2X2X1Xg z q 6 = G Y `  .+.4.t.E.!.(._.E 6 6 4 2 ",
"O # O O O O O O O . O   . O O . X O O O O %.<.j.n.G.J.G.G.G.S.G.G.G.G.n.N.N.N.N.n.G.G.G.G.G.G.G.J.J.K.K.K.K.[.[.{.XX>X1X1X=X9 $ , D D D L ` o.4.y.E.^./.( $ 4 6 2 6 ",
"O O O + O O . O O   .   . O O O O O O O d <X:XG.G.J.J.G.S.G.G.S.G.n.n.n.n.n.n.n.n.n.n.n.C.n.G.D.G.G.G.J.Y.[.K.[.[.*X-X:X<X1X9., h N N D K T @.t.y.2.W B 6 0 & 2 6 & ",
"X O O # X     X X     O O O . . O X . $ C.3X<X*XJ.G.G.[.;XOX X}.G.n.n.v.b.b.b.b.b.v.b.n.n.b.b.n.n.G.K.XX,X,X>X[.K.*X*X-X<X,X<Xl < h k D K .. .b & 6 6 B q 6 6 2 $ 2 ",
"O . O O O O   $ v b p * $ + + % > N G P ,X1X-X*XJ.G.F.1X6X6X7X6X5XoXn.v.v.f.v.f.v.f.f.f.f.v.v.b.K.@X#X8X8X6X6X>XJ.J.J.[.-X<X<XA.: < j G L a 6 q 6 6 6 0 6 6 2 6 6 2 ",
"X X X X O   9 Q.)./.W.p.u.q.:.-.Y H h l.1X,X*XJ.G.N.N.G.[.}.:X3X8X8XOXn.f.f.f.f.f.f.f.f.f.f.v.D.2X6X5X1X:X|.*XY.J.G.G.J.Y.-X<X:Xj h D N 9 w 8 q q 0 4 4 6 4 2 2 6 2 ",
"  O X O O   e._./.~.W.p.u.q...L G N h -X2X-X*XG.N.M.v.M.b.b.M.N.G.|.@XF.f.f.f.j.v.v.v.f.f.f.f.OX1X}.S.N.n.N.G.G.G.G.I.I.J.*X:X:X*.N h & v c q 8 7 6 4 4 4 4 6 6 2 0 ",
"X O $ $ O X E )./.W.p.w.q.....K D N I :X2X*XJ.G.n.m.M.m.v.m.f.j.f.v.b.v.j.b.'.OX@X8X@X.XF.v.f.j.v.j.j.j.v.b.N.N.G.P.S.N.I.Y.:X:XZ.: 6 q w c w 7 7 0 7 6 4 4 & # 2 2 ",
"X X X X $ X X / ~.W.p.u.:...T Y K D %.<X@X*XG.N.M.m.v.v.v.f.j.f.f.f.s.f.D.1X7X0X7X0X7X%X0XOXC.j.d.s.f.f.j.v.m.L.N.N.N.N.L.U.-XY.S.#.s 7 8 8 8 8 n 8 7 6 6 4 2 t 4 $ ",
"X X X X O O X X & ^ @.u.q.:.-.` G < =.,X@XY.G.N.M.m.v.m.z.x.f.x.d.s.f.D.#X0X0X0X0X0X0X0X0X0X2XC.j.d.d.j.f.L.f.m.L.N.N.M.N.I.U.N.b.9.;.| ] x 2 8 8 8 8 6 4 5 6 5 5 & ",
"& o O O X @ X X X X     . $ $ X X o <.,X#XY.G.N.m.v.x.j.x.x.d.f.d.f.n.OX0X0X0X0X0X0X0X0X0X0X0XoXb.s.d.d.f.m.m.m.M.N.N.M.N.I.U.M.c.h.;.5.k.A.h.f 6 7 7 5 5 5 6 7 6 2 ",
"$ X X @ O X X o X X X X O O o O O r <.J.OXK.S.M.m.m.m.j.f.f.d.d.s.j.D.8X0X0X0X0X0X0X0X0X0X0X0X5XC.f.s.f.f.f.j.m.m.M.M.M.M.P.Y.G.l.,.5.0.A.Z.J.H.f 7 5 7 5 5 2 5 3 2 ",
"@ @ @ O o X X X X X X X o O o $ S ,.f.j.M.Y.S.N.m.x.m.x.x.z.d.d.f.j.Z.7X0X0X7XOX|.}.}.+X8X0X0X4XC.j.s.f.f.f.f.j.m.M.M.M.N.I.-X:XU.i x [ A.U.J.'.=.5 5 8 z z 3 2 @ 2 ",
"@ 2 o o o X X X X X X   X   f *.;.,.z.x.x.G.I.M.m.x.x.j.f.d.d.f.d.d.v.'.OX|.n.j.s.s.s.v.C.|.OX'.j.d.d.d.f.z.z.x.m.M.M.m.L.P.-X-XN.4 z 5 e *.J.J.S 3 7 3 7 3 2 5 2 2 ",
"@ @ @ o o X   X o X O O   S 0.8.;.,.h.h.j.[.U.N.M.m.x.j.x.f.x.d.s.d.s.h.d.s.s.a.s.s.s.=.s.j.s.s.s.d.d.d.f.f.z.x.x.m.m.m.L.U.=X=X[ 7 7 7 7 3 * 3 3 7 3 z 6 3 3 5 2 3 ",
"1 @ 1 o X X X O X O O X . k.B.k.8.*.I %.&X@X*XP.M.m.x.j.d.x.x.d.d.d.f.s.s.s.a.s.s.s.s.s.s.s.<.s.s.f.d.j.j.j.j.j.x.v.m.m.P.U.&XU.* 7 7 7 7 7 7 7 5 2 3 7 3 3 7 3 2 3 ",
"2 1 o X X   X O X X     $ A.A.B.] @ O + A.-X>XG.L.M.x.j.x.x.d.d.d.d.s.s.h.s.a.<.s.s.s.s.s.s.d.d.f.s.h.h.z.j.j.x.v.x.m.L.P.U.U...& & 2 4 5 e 3 3 3 5 3 3 7 3 3 3 # 2 ",
"1 @ @ O X X     . O . .   g [ d   O O O j I.-X*XP.m.x.x.z.z.x.d.j.s.f.s.d.<.d.d.s.s.s.s.d.d.s.d.f.f.f.z.j.j.x.x.x.x.L.L.P.U.>.* 5 2 4 4 2 2 5 2 5 z 2 7 3 6 t 3 7 5 ",
"2 O O X O X     O O . O O O O O O O O O . d L.Y.I.L.L.x.c.x.d.<.h.h.f.h.f.<.d.d.s.s.s.f.<.d.d.f.d.d.z.j.j.z.z.x.x.x.L.L.L.-.$ 2 2 2 2 2 2 @ # 2 3 3 3 6 & 3 3 3 3 3 ",
"o o O O O . O O   . . O O O O O O O . O O . - <.I.P.L.c.x.x.z.L.z.j.z.z.z.d.d.d.d.d.f.d.d.d.d.z.z.z.z.z.z.x.c.c.L.L.L.x.H & 6 6 2 & & 5 & @ & @ 2 2 3 3 3 3 5 7 7 3 ",
"@ o O O O O O O O O . O O O . . . O . O O O . . A x.L.c.L.x.L.9.x.z.z.z.z.z.d.h.d.d.h.d.f.h.z.z.z.x.x.x.c.c.c.c.L.x.[ * & 3 5 6 5 s & 3 & o 2 2 @ 2 2 5 5 3 5 5 3 3 ",
"O O O O # O # O O O O O O O O . . O . X O O O O O . G %.x.m.m.c.c.x.x.x.j.z.z.z.z.z.z.z.z.z.j.j.x.x.x.x.x.L.L.>.J % & 2 2 2 6 5 5 5 & 2 2 @ & $ o @ 2 3 3 7 3 3 3 3 ",
"O # O O + + O O O O O O O O . . O O O     O O O O   O   O + - - - * + - - - ; d d d d f f - - * - 5 u u u 9 $ o & 2 5 2 3 7 3 & # 5 5 2 2 @ o $ @ @ 2 3 3 3 7 r 3 3 ",
"O O O O O O O O O # O O O O O . . O .     . . O O O O O O   O O O O O O # O O O O O O O @ @ @ 2 @ @ @ @ @ & 2 2 # 2 2 3 5 5 5 # 2 & 5 5 & @ @ o O @ 2 3 3 3 7 3 7 3 ",
"O O O O + O O O O O O O O O . . O O O O O O O O O O O O O   O O O O O O O O O   O O @ O $ O @ @ $ X @ & @ # # & & # & 2 2 # 5 & 2 2 2 & & # @ X o 2 2 3 3 3 7 e 3 3 ",
"# O O . O O # O O O O O O O O . O O O . O O O O O O O O .     O . O O O O O O O . O O O O O @ O X X # & # # & @ @ @ 2 2 @ @ @ 2 & 2 # 2 $ @ & o X @ & # 3 3 3 3 3 e ",
"O O O O O O O O . O O O O O . . O . O O O O O O O O O . . . O   . O . O O O O O O O O O $ X @ O O @ $ @ & @ @ @ @ @ # @ @ @ $ @ # 2 @ 2 @ @ $ @ & 2 & @ @ 3 3 3 3 3 ",
"O O . O O O O .   O O O O O O   .   O . . O O O O O .   X       . . . . O . O O O . O O X O O O O O O X @ # @ @ X @ O @ 2 @ O @ # @ @ @ X @ @ X o $ # # 2 @ 2 3 3 3 ",
"O O O O O O O O   O . O   .     O O O . O O O O . O   . .   O O O . O O O O O O O X   X X X O O # @ @ @ X @ @ @ $ X @ O 2 O 2 O X @ @ $ o @ & X X X @ @ @ @ 2 2 3 r ",
". . O O O O . . X O . O . O . O O O # O O O + . . .   O O O O O O O O O O O O O . . . O O O O O # + O # O O $ X @ X @ # # # 3 O O 2 O @ O # @ X @ @ $ O O 2 @ # 3 3 ",
"  . O O O O O       . X   O . . O O O O O O O .       . O O O O # O O O O O O O O . O O # O O # # # # O O O O O O $ O O @ @ O @ O # O O O # $ X o @ O 2 @ 2 3 O e # ",
". . O O O O   O   O       O O O + O O O O O . O .     O O # # O O O O O O O O O .   . O O + O + + # # # O $ @ O O O O O O # O # # O O O O o @ X @ O @ @ 3 @ @ # @ 3 ",
". O . .     O   . .   O O O O O O # O + O . O O . O . O O O + O O O .   . . O . . . O O # O O O O # # O O o O O O O O # O O O O O # O # O $ O @ O O O # # # # 3 @ # ",
"O O O X         . O X . O O O O + # + O O O O O O O O O O O O O O O O .   . . .     O O O O O # O # 3 O O O O O O O O O O O O # # O O # O @ O O O O @ @ # O # # # # ",
"O . X O       O   . O O O O O O # O O O . O O O + # + + O + O + O O . .   .   . . O O # O O + # O # # # @ O X O O O O # O O O O O + O O # O @ # @ O O # # # # 3 # # ",
"O   X O .   O   O O O O + O O + + + O O O O O O O # O O O # # # O O O   O . . O O O O O O # + O # # 3 @ @ O O O O O O O O + O O + # # O O @ O @ @ @ O # O # O 3 # @ ",
"X O X O O . O O O O O O O O O + O O O # O + O O + O O O + O + + O O O O . O . . O O O # + O # + # O O # @ O O O O O O # O O + O O + O # O O O O O O @ O @ # # # 2 # ",
"X O O O O O O O O O O O O O O O O O # + # + O O O # O + O # O + + O O O O O O . O + O # # O # O O # O O + O # O O O O O O O O O O O O O O O O O O O O O # # # 3 2 @ ",
"O O O O O O + O O O O O O O O O O O O + O O O O O O . O + O O + # + O O O O O O O O O + O + O - # O # O O O O O O . O . O O O O O O O O O O O . X O O # O # O O @ 2 ",
"O O O O # O O O O . . . O O O O O + # O + O O O O O O O O + O O O O O O O O O O O O + O + # # O # O O # O O O O . O . . O O O O O O . . O . O O $ O O O O @ O O @ 2 "
};
